<svg id="Layer_1" data-name="Layer 1" xmlns="http://www.w3.org/2000/svg" viewBox="0 0 410 410"><defs><style>.cls-1{fill:#333;}.cls-2{fill:#d66b6b;}</style></defs><title>Artboard 5 copy 2</title><path class="cls-1" d="M81.88,151.59q-1.59-2.58-.78-6.68l3.49-17.73c.54-2.73,1.62-4.69,3.26-5.89a7.76,7.76,0,0,1,6.31-1,7.73,7.73,0,0,1,5.45,3.35q1.59,2.58.78,6.68l-.57,2.89-5-1,.64-3.22c.43-2.22-.26-3.51-2.09-3.87s-3,.57-3.4,2.79l-3.64,18.45q-.64,3.27,2.1,3.81t3.39-2.73l1.3-6.6-2.65-.52,1-4.82L99.07,137,96.9,148c-.54,2.73-1.62,4.69-3.26,5.89a7.76,7.76,0,0,1-6.31,1A7.73,7.73,0,0,1,81.88,151.59Z"/><path class="cls-1" d="M107.53,119.18l12.81,2.52L119.5,126l-8.11-1.6-1.56,7.9,6.45,1.27-.84,4.27L109,136.54l-1.81,9.18,8.11,1.6-.84,4.27-12.81-2.52Z"/><path class="cls-1" d="M127.48,132.34l-5,.25-.21-4.35,14.78-.73.21,4.35-5,.25,1.3,26.08-4.78.23Z"/><path class="cls-1" d="M217.53,119.17l4.18.41-1.1,11.21L227,120.1l4.18.41-5.94,9.28,3.4,17.34-4.37-.43-2.37-12.21-2,3.22-.84,8.48-4.18-.42Z"/><path class="cls-1" d="M233.64,119.33l5.24.51,2.5,16.33h.08L243,120.25l3.73.37-2.62,26.61-4.29-.43-3.11-19.91h-.07l-1.91,19.42-3.73-.36Z"/><path class="cls-1" d="M248,149.07a7.09,7.09,0,0,1-1.15-5.11l1.38-14a7,7,0,0,1,2.12-4.79,7.28,7.28,0,0,1,9.43.93,7,7,0,0,1,1.15,5.1l-1.38,14A7,7,0,0,1,257.4,150a7.26,7.26,0,0,1-9.43-.92Zm7.34-4,1.43-14.52c.17-1.75-.46-2.7-1.91-2.84s-2.25.66-2.42,2.41L251,144.64c-.17,1.75.46,2.69,1.91,2.84S255.14,146.81,255.31,145.07Z"/><path class="cls-1" d="M264,121.24l4.41.44-.17,22.54h.09l4.35-22.13,5,.49,0,22.55h.08L281.9,123l3.94.39L280,152.18l-5.69-.56-.14-19.81h-.09l-4,19.4-6.07-.6Z"/><path class="cls-1" d="M33.4,164.34l27.6,1,9.19,88.48h.35L86,166.2l27.59,1-4.35,123-18.27-.64,3.29-93.14-.35,0L76.51,289l-16.17-.57L49.57,194.83h-.35L45.93,288l-16.87-.6Zm87.52,15.35,24.94.28,10.21,79.68h.32l12-79.42,24.93.28-1.26,111.15-16.51-.19.95-84.15h-.32l-13.65,84-14.61-.17-11.75-84.3h-.32l-1,84.15-15.25-.17Zm139.5,112.44q7.93-8.6,7.93-24.69v-7.57H248.24V269q0,12.87-11,12.87-5.4,0-8.21-3.12t-2.81-10.12a27.58,27.58,0,0,1,3.87-14.67q3.87-6.33,14.31-15.23,13.15-11.35,18.37-20.53A41.18,41.18,0,0,0,268,197.43q0-15.7-8.12-24.32t-23.59-8.61q-15.28,0-23.11,8.61t-7.83,24.69v5.49h20.11v-6.81q0-6.81,2.7-9.93t7.93-3.13q10.65,0,10.64,12.68a24.58,24.58,0,0,1-4,13.44q-4,6.24-14.4,15.14Q215,236,209.94,245.3t-5,21.76q0,16.28,8.22,25t23.88,8.7Q252.5,300.74,260.42,292.13Zm31.09-13.77q-7.42-8.62-6.86-24.25l2.44-67.6q.57-15.6,8.58-23.69t22.72-7.55q14.69.53,22.11,9.17t6.84,24.25l-.39,11L327.84,199l.45-12.31q.45-12.68-10-13.05T307.35,186l-2.54,70.35q-.45,12.49,10,12.87t10.92-12.11l.91-25.17-10.1-.36.66-18.37,29.2,1.05-1.51,42.07q-.57,15.61-8.58,23.69t-22.71,7.55Q298.92,287,291.51,278.36Zm69.82-97.09,19.3,1.35-8.58,122.8-19.3-1.35Z"/><path class="cls-2" d="M169.49,157.14a24.3,24.3,0,0,1-.87-10.14,34.57,34.57,0,0,1,4-10.69,40.8,40.8,0,0,0,4-10.09,16.36,16.36,0,0,0-.23-7.69c-.63-2.25-1.42-3.72-2.39-4.39a4,4,0,0,0-3.55-.43c-2.86.79-3.8,2.91-2.85,6.36l1.56,5.63-7.81,2.16-1.41-5.1q-1.77-6.39.44-10.67t8.22-6q6-1.67,10.1.88t5.87,8.92a21.66,21.66,0,0,1,.3,10,48,48,0,0,1-5,12.71,33.18,33.18,0,0,0-3.2,7.71,11.42,11.42,0,0,0,.16,5.57l.32,1.13,15.69-4.34,2.07,7.5-23.87,6.61Z"/></svg>