<svg id="Layer_1" data-name="Layer 1" xmlns="http://www.w3.org/2000/svg" viewBox="0 0 410 410"><defs><style>.cls-1{fill:#333;}.cls-2{fill:#d66b6b;}</style></defs><title>Artboard 5 copy</title><path class="cls-1" d="M81.88,152.59q-1.59-2.58-.78-6.68l3.49-17.73c.54-2.73,1.62-4.69,3.26-5.89a7.76,7.76,0,0,1,6.31-1,7.73,7.73,0,0,1,5.45,3.35q1.59,2.58.78,6.68l-.57,2.89-5-1,.64-3.22c.43-2.22-.26-3.51-2.09-3.87s-3,.57-3.4,2.79l-3.64,18.45q-.64,3.27,2.1,3.81t3.39-2.73l1.3-6.6-2.65-.52,1-4.82L99.07,138,96.9,149c-.54,2.73-1.62,4.69-3.26,5.89a7.76,7.76,0,0,1-6.31,1A7.73,7.73,0,0,1,81.88,152.59Z"/><path class="cls-1" d="M107.53,120.18l12.81,2.52L119.5,127l-8.11-1.6-1.56,7.9,6.45,1.27-.84,4.27L109,137.54l-1.81,9.18,8.11,1.6-.84,4.27-12.81-2.52Z"/><path class="cls-1" d="M127.48,133.34l-5,.25-.21-4.35,14.78-.73.21,4.35-5,.25,1.3,26.08-4.78.23Z"/><path class="cls-1" d="M218.51,119.34l4.15.64-1.74,11.14,7-10.31,4.15.64-6.45,8.93,2.41,17.5-4.34-.67L222,134.88l-2.18,3.1-1.31,8.42-4.15-.65Z"/><path class="cls-1" d="M234.58,120.41l5.21.81,1.57,16.44.07,0,2.47-15.82,3.7.58-4.12,26.42-4.27-.67-2-20.06h-.08l-3,19.28-3.7-.57Z"/><path class="cls-1" d="M247.21,150.91a6.94,6.94,0,0,1-.86-5.16l2.17-13.88a7,7,0,0,1,2.38-4.66,7.28,7.28,0,0,1,9.36,1.46,7,7,0,0,1,.86,5.16L259,147.72a7,7,0,0,1-2.38,4.65,7.25,7.25,0,0,1-9.36-1.46Zm7.55-3.57L257,132.92c.27-1.74-.31-2.72-1.75-2.94s-2.28.53-2.55,2.27l-2.25,14.42c-.27,1.73.31,2.71,1.74,2.93S254.49,149.07,254.76,147.34Z"/><path class="cls-1" d="M264.74,124l4.37.68-1.44,22.5h.08l5.61-21.84,4.95.77L277,148.67l.08,0,5.48-21.87,3.92.61L279,155.84l-5.65-.88,1-19.79h-.09l-5.1,19.14-6-.94Z"/><path class="cls-1" d="M33.4,162.34l27.6,1,9.19,88.48h.35L86,164.2l27.59,1-4.35,123-18.27-.64,3.29-93.14-.35,0L76.51,287l-16.17-.57L49.57,192.83h-.35L45.93,286l-16.87-.6Zm84.89,19.11,24.92-.9,14,79.09h.32l8.21-79.91,24.91-.9,4,111.08-16.5.6-3.06-84.1h-.32L165.19,291l-14.6.54-15.76-83.64h-.32l3.07,84.1-15.24.56ZM260.42,287.13q7.93-8.6,7.93-24.69v-7.57H248.24V264q0,12.87-11,12.87-5.4,0-8.21-3.12t-2.81-10.12a27.58,27.58,0,0,1,3.87-14.67q3.87-6.33,14.31-15.23,13.15-11.35,18.37-20.53A41.18,41.18,0,0,0,268,192.43q0-15.7-8.12-24.32t-23.59-8.61q-15.28,0-23.11,8.61t-7.83,24.69v5.49h20.11v-6.81q0-6.81,2.7-9.93t7.93-3.13q10.65,0,10.64,12.68a24.58,24.58,0,0,1-4,13.44q-4,6.24-14.4,15.14Q215,231,209.94,240.3t-5,21.76q0,16.28,8.22,25t23.88,8.7Q252.5,295.74,260.42,287.13Zm33.16-6.92q-7.72-8.35-7.73-24V188.58q0-15.63,7.73-24T316,156.23q14.7,0,22.43,8.36t7.72,24v11H327V187.29q0-12.67-10.48-12.68t-10.47,12.68v70.4q0,12.51,10.47,12.5T327,257.69V232.51H316.92V214.13h29.23v42.09q0,15.63-7.72,24T316,288.57Q301.28,288.57,293.58,280.21Zm68.1-97,19.26,1.77L369.7,307.52l-19.27-1.77Z"/><path class="cls-2" d="M171.49,154.14a24.3,24.3,0,0,1-.87-10.14,34.57,34.57,0,0,1,4-10.69,40.8,40.8,0,0,0,4-10.09,16.36,16.36,0,0,0-.23-7.69c-.63-2.25-1.42-3.72-2.39-4.39a4,4,0,0,0-3.55-.43c-2.86.79-3.8,2.91-2.85,6.36l1.56,5.63-7.81,2.16-1.41-5.1q-1.77-6.39.44-10.67t8.22-6q6-1.67,10.1.88t5.87,8.92a21.66,21.66,0,0,1,.3,10,48,48,0,0,1-5,12.71,33.18,33.18,0,0,0-3.2,7.71,11.42,11.42,0,0,0,.16,5.57l.32,1.13,15.69-4.34,2.07,7.5-23.87,6.61Z"/></svg>