<svg id="Layer_1" data-name="Layer 1" xmlns="http://www.w3.org/2000/svg" xmlns:xlink="http://www.w3.org/1999/xlink" viewBox="0 0 263 167"><defs><style>.cls-1{fill:#fff;}.cls-2{fill:#d66b6b;}.cls-3{isolation:isolate;}</style></defs><title>Artboard 1</title><path class="cls-1" d="M18.26,28.68l8.49-.8L33.09,54.6h.11l1.23-27.44,8.48-.8L46.49,64.2l-5.63.53-2.7-28.65h-.11L36.43,65.14l-5,.47-7-28.24h-.11L27,66l-5.18.49Z"/><path class="cls-1" d="M48.48,23.3,57,23l4.82,27h.11l2.78-27.33,8.51-.32,1.43,38L69,60.57,67.93,31.81h-.11L64.56,60.74l-5,.18L54.15,32.33H54l1.08,28.75-5.21.2Z"/><path class="cls-1" d="M80.22,61.73c-1.54-1.59-2.37-3.93-2.49-7l-.08-2.17,5.64-.21.1,2.6c.09,2.47,1.17,3.65,3.24,3.58a3,3,0,0,0,2.27-1,4.41,4.41,0,0,0,.67-2.94,8,8,0,0,0-1.24-4.16,19.91,19.91,0,0,0-4.18-4.22,24,24,0,0,1-5.37-5.69,12,12,0,0,1-1.69-5.89,9.94,9.94,0,0,1,2-7.06q2.19-2.55,6.53-2.71c2.89-.11,5.09.63,6.58,2.22s2.35,3.92,2.46,7l.06,1.57-5.64.21-.08-2A4.39,4.39,0,0,0,88.14,31a2.76,2.76,0,0,0-2.26-.81q-3,.11-2.85,3.75a7.24,7.24,0,0,0,1.26,3.81A21.65,21.65,0,0,0,88.49,42a22.19,22.19,0,0,1,5.38,5.72A13.11,13.11,0,0,1,95.53,54q.16,4.65-2,7.25C92.09,63,89.81,63.84,86.88,64A8.2,8.2,0,0,1,80.22,61.73Z"/><path class="cls-1" d="M101.06,57.44c-1.58-1.59-2.43-3.93-2.54-7l-.75-20q-.18-4.61,2-7.17c1.46-1.7,3.63-2.6,6.53-2.71s5.13.63,6.71,2.21,2.43,3.93,2.54,7l.12,3.26-5.64.21-.14-3.64c-.09-2.49-1.17-3.69-3.23-3.62s-3,1.36-3,3.86l.78,20.78q.14,3.69,3.23,3.57c2.07-.07,3-1.34,3-3.81L110.41,43l-3,.12-.2-5.43,8.63-.33.46,12.43q.18,4.6-2,7.17c-1.46,1.7-3.63,2.61-6.53,2.72A8.66,8.66,0,0,1,101.06,57.44Z"/><path class="cls-1" d="M119.07,24.16l6-.22,1.43,38-6,.22Z"/><path class="cls-1" d="M136.52,58.75a5.51,5.51,0,0,1-1.3-3.89l-.08-11.55a5.55,5.55,0,0,1,1.25-3.91,5.63,5.63,0,0,1,7.4,0,5.51,5.51,0,0,1,1.3,3.89v2.27h-3.2V43.05c0-1.34-.58-2-1.71-2s-1.68.68-1.67,2l.08,12c0,1.31.58,2,1.7,2s1.69-.67,1.68-2V51.76h3.19v3a5.53,5.53,0,0,1-1.25,3.91,5.63,5.63,0,0,1-7.4,0Z"/><path class="cls-1" d="M148.4,58.66a5.72,5.72,0,0,1-1.32-4L147,38.25h3.38l.11,16.65a2.27,2.27,0,0,0,.46,1.59,1.64,1.64,0,0,0,1.27.49,1.67,1.67,0,0,0,1.27-.5,2.32,2.32,0,0,0,.44-1.61l-.11-16.65h3.25l.11,16.41a5.62,5.62,0,0,1-1.26,4,5.72,5.72,0,0,1-7.49,0Z"/><path class="cls-1" d="M160.25,58.58a5.85,5.85,0,0,1-1.29-4V53.34h3.19V54.8c0,1.39.6,2.08,1.77,2.08a1.71,1.71,0,0,0,1.3-.52,2.43,2.43,0,0,0,.43-1.65,4.39,4.39,0,0,0-.63-2.37,11.39,11.39,0,0,0-2.29-2.46,13.7,13.7,0,0,1-2.94-3.32,6.76,6.76,0,0,1-.85-3.35,5.62,5.62,0,0,1,1.26-4,4.83,4.83,0,0,1,3.8-1.38,4.63,4.63,0,0,1,3.68,1.37,5.8,5.8,0,0,1,1.27,4v.89h-3.2V43a2.49,2.49,0,0,0-.44-1.61,1.52,1.52,0,0,0-1.27-.5c-1.12,0-1.68.7-1.67,2.07a4,4,0,0,0,.64,2.18,12.72,12.72,0,0,0,2.31,2.44,12.81,12.81,0,0,1,2.94,3.33,7.45,7.45,0,0,1,.82,3.53,5.74,5.74,0,0,1-1.28,4.06A4.88,4.88,0,0,1,164,60,4.77,4.77,0,0,1,160.25,58.58Z"/><path class="cls-1" d="M173.53,41.14H170V38.07L180.42,38v3.07h-3.53L177,59.55h-3.37Z"/><path class="cls-1" d="M183.14,58.4a5.62,5.62,0,0,1-1.35-4l-.07-11.31a5.65,5.65,0,0,1,1.29-4,5.83,5.83,0,0,1,7.62,0A5.65,5.65,0,0,1,192,43l.07,11.31a5.6,5.6,0,0,1-1.29,4,5.83,5.83,0,0,1-7.62,0Zm5.54-3.81-.08-11.74c0-1.41-.6-2.12-1.77-2.11s-1.75.72-1.74,2.13l.08,11.74c0,1.42.6,2.12,1.77,2.11S188.69,56,188.68,54.59Z"/><path class="cls-1" d="M194.22,37.93H199l2.25,15.38h.07l2-15.41h4.82l.15,21.51h-3.19L205,43.13h0l-2.34,16.3h-2.83l-2.57-16.27h-.06l.11,16.28h-2.95Z"/><path class="cls-1" d="M210.74,37.81l9.22-.06v3.07h-5.84v5.69h4.64v3.07h-4.64l0,6.61H220v3.07l-9.22.06Z"/><path class="cls-1" d="M221.9,37.74h5a5.17,5.17,0,0,1,3.81,1.19A5.15,5.15,0,0,1,232,42.62v1.32q0,3.35-2.19,4.25v.07a2.64,2.64,0,0,1,1.75,1.49,7.49,7.49,0,0,1,.53,3v3.78a9.08,9.08,0,0,0,.07,1.49,3.92,3.92,0,0,0,.32,1.11H229a4.9,4.9,0,0,1-.26-1c0-.31-.06-.87-.07-1.66V52.53a3.28,3.28,0,0,0-.48-2,2,2,0,0,0-1.65-.57h-1.17l.06,9.21h-3.38Zm4.67,9.19a2,2,0,0,0,1.51-.54,2.4,2.4,0,0,0,.5-1.75V43a2.8,2.8,0,0,0-.43-1.69,1.55,1.55,0,0,0-1.31-.51H225.3v6.14Z"/><path class="cls-2" d="M41.75,135q-4.28-3.63-5.29-11.34L36,120.07l9.42-1.25.58,4.35q.82,6.18,6,5.48a4.89,4.89,0,0,0,3.65-2,7.08,7.08,0,0,0,.67-5,13.56,13.56,0,0,0-2.75-6.78,34.19,34.19,0,0,0-7.67-6.41A40.75,40.75,0,0,1,36,99.77a20.19,20.19,0,0,1-3.77-9.59q-1-7.5,2.26-12.16c2.17-3.1,5.65-5,10.52-5.61s8.57.25,11.38,2.67,4.55,6.21,5.24,11.35L62,89.05,52.5,90.3,52.07,87c-.29-2.16-.92-3.7-1.9-4.58a4.6,4.6,0,0,0-3.92-1q-5,.66-4.17,6.74a12,12,0,0,0,2.7,6.19,36.5,36.5,0,0,0,7.72,6.35q7,4.6,9.92,8.73a22.13,22.13,0,0,1,3.75,10.12q1,7.78-2.27,12.47t-10.64,5.66Q46,138.69,41.75,135Z"/><path class="cls-1" d="M71,68h6.67l5.11,31.33h-5l-.89-6.22v.09h-5.6l-.89,6.13H65.88Zm5.38,21-2.2-15.49h-.09L71.92,88.9Z"/><path class="cls-1" d="M88.68,75.94H83.53V71.46H98.75v4.48H93.6v26.85H88.68Z"/><path class="cls-1" d="M101.12,69.7H106V101h-4.92Z"/><path class="cls-1" d="M110.7,99.45a8.45,8.45,0,0,1-1.84-5.84V91.82h4.66V94c0,2,.85,3,2.55,3a2.38,2.38,0,0,0,1.9-.74,3.51,3.51,0,0,0,.65-2.39,6.68,6.68,0,0,0-.89-3.47,17,17,0,0,0-3.32-3.61A20,20,0,0,1,110.16,82,10,10,0,0,1,109,77.1a8.2,8.2,0,0,1,1.88-5.76,7.13,7.13,0,0,1,5.46-2,6.8,6.8,0,0,1,5.35,2,8.5,8.5,0,0,1,1.82,5.84v1.3H118.8V76.82a3.58,3.58,0,0,0-.63-2.35,2.27,2.27,0,0,0-1.83-.74q-2.46,0-2.46,3a5.85,5.85,0,0,0,.91,3.18,17.73,17.73,0,0,0,3.34,3.58,18.55,18.55,0,0,1,4.25,4.88,10.81,10.81,0,0,1,1.17,5.15,8.4,8.4,0,0,1-1.91,5.91,7.14,7.14,0,0,1-5.52,2.06A6.9,6.9,0,0,1,110.7,99.45Z"/><path class="cls-1" d="M126.54,69.13l13,.14v4.47l-8.11-.08-.09,8.73,6.35.07v4.47l-6.36-.07-.15,13.65-4.92-.05Z"/><path class="cls-1" d="M144.31,67.56l6.67.07L155.74,99h-4.92L150,92.74v.09l-5.59-.06-1,6.12h-4.56Zm5.14,21-2-15.51h-.09L145,88.52Z"/><path class="cls-1" d="M161.31,99.82a8.09,8.09,0,0,1-2.47-5.45L157,77.64a8.08,8.08,0,0,1,1.22-5.86A8.23,8.23,0,0,1,169,70.6a8.11,8.11,0,0,1,2.47,5.45l.36,3.3-4.62.5-.4-3.6c-.21-1.93-1.13-2.8-2.77-2.62s-2.34,1.23-2.13,3.16l1.92,17.4c.2,1.9,1.13,2.75,2.76,2.58s2.34-1.22,2.13-3.12l-.52-4.76,4.63-.51.48,4.41A8,8,0,0,1,172,98.64a8.22,8.22,0,0,1-10.72,1.18Z"/><path class="cls-1" d="M179.31,72.42l-5.15-.06.05-4.48,15.22.17-.05,4.48-5.15-.06-.29,26.86L179,99.27Z"/><path class="cls-1" d="M191.8,69.83h4.92l-.34,31.34-4.92-.06Z"/><path class="cls-1" d="M201.64,99.66a8.15,8.15,0,0,1-1.86-5.84L200,77.35a8.2,8.2,0,0,1,2-5.8,8.51,8.51,0,0,1,11.1.12A8.25,8.25,0,0,1,215,77.51L214.73,94a8.2,8.2,0,0,1-2,5.8,8.51,8.51,0,0,1-11.1-.12Zm8.16-5.42.18-17.1c0-2-.81-3.09-2.51-3.11s-2.57,1-2.59,3.06l-.18,17.1c0,2.06.82,3.1,2.52,3.11S209.78,96.31,209.8,94.24Z"/><path class="cls-1" d="M218.3,68.36l6.18.07,4.58,18.8h.09l.2-18.76h4.39L233.4,99.8h-5.06l-5.66-22.94h-.09l-.24,22.87H218Z"/><path class="cls-1" d="M72.31,135.23a7,7,0,0,1-1.59-4.95V110h4.17v20.57a2.88,2.88,0,0,0,.56,2,2.35,2.35,0,0,0,3.14,0,2.88,2.88,0,0,0,.56-2V110h4v20.27a7,7,0,0,1-1.6,4.95,6.9,6.9,0,0,1-9.24,0Z"/><path class="cls-1" d="M87.94,106.5h6.2c2.16,0,3.74.5,4.72,1.51a6.3,6.3,0,0,1,1.49,4.63v1.63c0,2.77-.91,4.53-2.74,5.26v.08a3.25,3.25,0,0,1,2.15,1.86,9.33,9.33,0,0,1,.63,3.77v4.69a16.18,16.18,0,0,0,.08,1.84,4.49,4.49,0,0,0,.38,1.39H96.58a6.3,6.3,0,0,1-.3-1.21,15.7,15.7,0,0,1-.08-2.06V125a4.15,4.15,0,0,0-.59-2.55,2.49,2.49,0,0,0-2-.72H92.12v11.42H87.94Zm5.71,11.43a2.46,2.46,0,0,0,1.88-.65,3,3,0,0,0,.63-2.17v-2.06a3.42,3.42,0,0,0-.51-2.09,2,2,0,0,0-1.62-.65H92.12v7.62Z"/><path class="cls-1" d="M102.92,111.77h3.68l2.38,18h0l2.38-18h3.35l-3.51,23.15h-4.83Z"/><path class="cls-1" d="M117.68,108.26h11.43v3.81h-7.24v7h5.75v3.81h-5.75v8.19h7.24v3.81H117.68Z"/><path class="cls-1" d="M137.51,124.43l-5.46-16.52h4.8l3.08,10.56H140l3.09-10.56h4.39L142,124.43v12.24h-4.52Z"/><image class="cls-3" width="500" height="500" transform="translate(191.5 99.14) rotate(10.62) scale(0.09)" xlink:href="face-classification/Sales/Tissa.png"/><image class="cls-3" width="500" height="500" transform="translate(146.36 106.61) rotate(-7.8) scale(0.08)" xlink:href="face-classification/Head/Richard.png"/></svg>