<?xml version="1.0" encoding="utf-8"?>
<!-- Generator: Adobe Illustrator 23.0.0, SVG Export Plug-In . SVG Version: 6.00 Build 0)  -->
<svg version="1.1" id="Layer_1" xmlns="http://www.w3.org/2000/svg" xmlns:xlink="http://www.w3.org/1999/xlink" x="0px" y="0px"
	 viewBox="0 0 263 167" style="enable-background:new 0 0 263 167;" xml:space="preserve">
<style type="text/css">
	.st0{fill:#FFFFFF;}
	.st1{fill:#D66B6B;}
</style>
<title>Artboard 1</title>
<g>
	<g>
		<path class="st0" d="M121.8,67.2c-1-1.2-1.6-2.8-1.5-4.4l-0.1-13c-0.1-1.6,0.4-3.2,1.4-4.4c2.4-2.1,5.9-2.1,8.3,0
			c1,1.2,1.6,2.8,1.5,4.4v2.6h-3.6v-2.8c0-1.5-0.7-2.2-1.9-2.2c-1.3,0-1.9,0.8-1.9,2.2l0.1,13.5c0,1.5,0.7,2.2,1.9,2.2
			s1.9-0.8,1.9-2.2v-3.7h3.6v3.4c0.1,1.6-0.4,3.2-1.4,4.4C127.8,69.2,124.2,69.2,121.8,67.2L121.8,67.2z"/>
		<path class="st0" d="M135.2,67.1c-1-1.3-1.6-2.9-1.5-4.5l-0.1-18.5h3.8l0.1,18.7c-0.1,0.6,0.1,1.3,0.5,1.8
			c0.4,0.4,0.9,0.6,1.4,0.6c0.5,0,1.1-0.2,1.4-0.6c0.4-0.5,0.6-1.2,0.5-1.8l-0.1-18.7h3.7l0.1,18.5c0.1,1.6-0.4,3.2-1.4,4.5
			C141.2,69.1,137.7,69.1,135.2,67.1L135.2,67.1z"/>
		<path class="st0" d="M148.5,67c-1-1.3-1.5-2.9-1.5-4.5v-1.4h3.6v1.6c0,1.6,0.7,2.3,2,2.3c0.5,0,1.1-0.2,1.5-0.6
			c0.4-0.5,0.6-1.2,0.5-1.9c0-0.9-0.2-1.9-0.7-2.7c-0.7-1-1.6-2-2.6-2.8c-1.3-1.1-2.4-2.3-3.3-3.7c-0.6-1.2-1-2.4-1-3.8
			c-0.1-1.6,0.4-3.2,1.4-4.5c1.1-1.1,2.7-1.7,4.3-1.6c1.5-0.1,3.1,0.4,4.1,1.5c1,1.3,1.5,2.9,1.4,4.5v1h-3.6v-1.2
			c0-0.6-0.1-1.3-0.5-1.8c-0.4-0.4-0.9-0.6-1.4-0.6c-1.3,0-1.9,0.8-1.9,2.3c0,0.9,0.2,1.7,0.7,2.5c0.7,1,1.6,1.9,2.6,2.7
			c1.3,1,2.4,2.3,3.3,3.7c0.6,1.2,0.9,2.6,0.9,4c0.1,1.7-0.4,3.3-1.4,4.6c-1.1,1.2-2.7,1.8-4.3,1.7C151.2,68.7,149.6,68.1,148.5,67z
			"/>
		<path class="st0" d="M163.5,47.4h-4v-3.5l11.7-0.1v3.5h-4l0.1,20.8h-3.8L163.5,47.4z"/>
		<path class="st0" d="M174.3,66.8c-1.1-1.2-1.6-2.9-1.5-4.5l-0.1-12.7c-0.1-1.6,0.4-3.2,1.5-4.5c2.5-2.1,6.1-2.1,8.6,0
			c1.1,1.2,1.6,2.8,1.5,4.4l0.1,12.7c0.1,1.6-0.4,3.2-1.5,4.5c-2.5,2.1-6.1,2.1-8.6,0L174.3,66.8z M180.5,62.5l-0.1-13.2
			c0-1.6-0.7-2.4-2-2.4c-1.3,0-2,0.8-2,2.4l0.1,13.2c0,1.6,0.7,2.4,2,2.4C179.9,64.9,180.5,64.1,180.5,62.5z"/>
		<path class="st0" d="M186.7,43.8h5.4l2.5,17.3h0.1l2.2-17.3h5.4l0.2,24.2H199l-0.1-18.3l0,0L196.2,68H193l-2.9-18.3h-0.1l0.1,18.3
			h-3.3L186.7,43.8z"/>
		<path class="st0" d="M205.3,43.6l10.4-0.1V47h-6.6v6.4h5.2v3.5h-5.2v7.4h6.6v3.5l-10.4,0.1L205.3,43.6z"/>
		<path class="st0" d="M217.9,43.6h5.6c1.5-0.1,3.1,0.3,4.3,1.3c1,1.1,1.5,2.6,1.5,4.1v1.5c0,2.5-0.8,4.1-2.5,4.8v0.1
			c0.9,0.2,1.6,0.8,2,1.7c0.4,1.1,0.6,2.2,0.6,3.4v4.3c0,0.6,0,1.1,0.1,1.7c0.1,0.4,0.2,0.9,0.4,1.2h-3.9c-0.1-0.4-0.2-0.7-0.3-1.1
			c0-0.3-0.1-1-0.1-1.9v-4.4c0.1-0.8-0.1-1.6-0.5-2.2c-0.5-0.5-1.2-0.7-1.9-0.6h-1.3l0.1,10.4H218L217.9,43.6z M223.1,53.9
			c0.6,0,1.2-0.2,1.7-0.6c0.4-0.6,0.6-1.3,0.6-2v-1.8c0-0.7-0.1-1.3-0.5-1.9c-0.4-0.4-0.9-0.6-1.5-0.6h-1.7v6.9L223.1,53.9z"/>
	</g>
	<path class="st0" d="M209.4,148.2c0.4-0.5,0.7-0.5,0.9-0.3l1.6-0.2c-0.1,0.9-1,1.6-2,1.4c-0.2,0-0.3-0.1-0.5-0.2
		c-0.4,0.3-1.1,0.4-1.2,0.1c-0.2-0.3-0.1-0.7,0.2-0.9C208.6,147.9,209.1,147.9,209.4,148.2C209.4,148.2,209.4,148.2,209.4,148.2z"/>
	<path class="st0" d="M208,148.7c-0.3,0.1-0.4,0.3-0.5,0.3s-0.3-0.2-0.4-0.3l0.5-0.6L208,148.7z"/>
	<g>
		<path class="st1" d="M40.4,148.2c-2.9-2.4-4.6-6.2-5.3-11.3l-0.5-3.6l9.4-1.3l0.6,4.3c0.5,4.1,2.5,5.9,6,5.5
			c1.5-0.1,2.8-0.8,3.7-2c0.8-1.5,1.1-3.3,0.7-5c-0.3-2.5-1.2-4.8-2.8-6.8c-2.2-2.5-4.8-4.7-7.7-6.4c-3.7-2.3-7.1-5.3-9.9-8.7
			c-2.1-2.8-3.4-6.1-3.8-9.6c-0.7-5,0.1-9.1,2.3-12.2c2.2-3.1,5.7-5,10.5-5.6s8.6,0.3,11.4,2.7s4.5,6.2,5.2,11.3l0.4,2.6l-9.5,1.3
			l-0.4-3.3c-0.3-2.2-0.9-3.7-1.9-4.6c-1.1-0.9-2.5-1.3-3.9-1c-3.3,0.4-4.7,2.7-4.2,6.7c0.3,2.3,1.2,4.4,2.7,6.2
			c2.3,2.5,4.9,4.6,7.7,6.3c4.7,3.1,8,6,9.9,8.7c2.1,3,3.4,6.5,3.8,10.1c0.7,5.2-0.1,9.3-2.3,12.5c-2.2,3.1-5.7,5-10.6,5.7
			C47.1,151.5,43.2,150.6,40.4,148.2z"/>
		<path class="st0" d="M69.6,81.2h6.7l5.1,31.3h-5l-0.9-6.2v0.1h-5.6l-0.9,6.1h-4.5L69.6,81.2z M75,102.2l-2.2-15.5h-0.1l-2.2,15.4
			L75,102.2z"/>
		<path class="st0" d="M87.3,89.1h-5.2v-4.5h15.2v4.5h-5.2V116h-4.9V89.1z"/>
		<path class="st0" d="M99.8,82.9h4.9v31.3h-4.9L99.8,82.9z"/>
		<path class="st0" d="M109.3,112.6c-1.3-1.6-2-3.7-1.8-5.8V105h4.7v2.2c0,2,0.8,3,2.6,3c0.7,0.1,1.4-0.2,1.9-0.7
			c0.5-0.7,0.7-1.5,0.7-2.4c0-1.2-0.3-2.4-0.9-3.5c-0.9-1.4-2-2.6-3.3-3.6c-1.7-1.4-3.1-3-4.3-4.8c-0.8-1.5-1.2-3.2-1.2-4.9
			c-0.1-2.1,0.5-4.2,1.9-5.8c1.5-1.4,3.4-2.1,5.5-2c2-0.2,3.9,0.6,5.3,2c1.3,1.7,2,3.7,1.8,5.8v1.3h-4.7V90c0.1-0.8-0.2-1.7-0.6-2.3
			c-0.5-0.5-1.1-0.8-1.8-0.7c-1.6,0-2.5,1-2.5,3c0,1.1,0.3,2.2,0.9,3.2c0.9,1.3,2.1,2.5,3.3,3.6c1.7,1.4,3.1,3,4.3,4.9
			c0.8,1.6,1.2,3.4,1.2,5.2c0.1,2.1-0.5,4.3-1.9,5.9c-1.5,1.4-3.5,2.2-5.5,2.1C112.7,114.8,110.8,114.1,109.3,112.6z"/>
		<path class="st0" d="M125.2,82.3l13,0.1v4.5l-8.1-0.1l-0.1,8.7l6.4,0.1v4.5L130,100l-0.1,13.7l-4.9-0.1L125.2,82.3z"/>
		<path class="st0" d="M142.9,80.7l6.7,0.1l4.8,31.4h-4.9l-0.8-6.3v0.1l-5.6-0.1l-1,6.1h-4.6L142.9,80.7z M148.1,101.7l-2-15.5H146
			l-2.4,15.5L148.1,101.7z"/>
		<path class="st0" d="M159.9,113c-1.5-1.4-2.4-3.4-2.5-5.4l-1.8-16.7c-0.4-2,0.1-4.1,1.2-5.9c2.8-3,7.4-3.5,10.8-1.2
			c1.5,1.4,2.4,3.4,2.5,5.4l0.4,3.3l-4.6,0.5l-0.4-3.6c-0.2-1.9-1.1-2.8-2.8-2.6s-2.3,1.2-2.1,3.2l1.9,17.4c0.2,1.9,1.1,2.8,2.8,2.6
			s2.3-1.2,2.1-3.1l-0.5-4.8l4.6-0.5l0.5,4.4c0.3,2-0.1,4.1-1.3,5.9C167.9,114.8,163.3,115.3,159.9,113L159.9,113z"/>
		<path class="st0" d="M177.9,85.6l-5.1-0.1l0.1-4.5l15.2,0.2l-0.1,4.5l-5.1-0.1l-0.3,26.9l-4.9-0.1L177.9,85.6z"/>
		<path class="st0" d="M190.4,83h4.9l-0.3,31.3l-4.9-0.1L190.4,83z"/>
		<path class="st0" d="M200.3,112.8c-1.4-1.6-2-3.7-1.9-5.8l0.2-16.5c-0.1-2.1,0.6-4.2,2-5.8c3.2-2.7,7.9-2.7,11.1,0.1
			c1.4,1.6,2,3.7,1.9,5.8l-0.3,16.5c0.1,2.1-0.6,4.2-2,5.8C208.1,115.7,203.4,115.6,200.3,112.8L200.3,112.8z M208.4,107.4l0.2-17.1
			c0-2-0.8-3.1-2.5-3.1s-2.6,1-2.6,3.1l-0.2,17.1c0,2.1,0.8,3.1,2.5,3.1S208.4,109.5,208.4,107.4z"/>
		<path class="st0" d="M216.9,81.5l6.2,0.1l4.6,18.8h0.1l0.2-18.8h4.4L232,113H227L221.3,90h-0.1l-0.2,22.9h-4.3L216.9,81.5z"/>
		<path class="st0" d="M70.9,148.4c-1.1-1.4-1.7-3.2-1.6-4.9v-20.3h4.2v20.6c-0.1,0.7,0.1,1.4,0.6,2c0.9,0.8,2.2,0.8,3.1,0
			c0.4-0.6,0.6-1.3,0.6-2v-20.6h4v20.3c0.1,1.8-0.5,3.6-1.6,4.9C77.6,150.8,73.6,150.8,70.9,148.4L70.9,148.4z"/>
		<path class="st0" d="M86.6,119.7h6.2c2.2,0,3.7,0.5,4.7,1.5c1.1,1.3,1.6,2.9,1.5,4.6v1.6c0,2.8-0.9,4.5-2.7,5.3v0.1
			c1,0.3,1.8,0.9,2.2,1.9c0.5,1.2,0.7,2.5,0.6,3.8v4.7c0,0.6,0,1.2,0.1,1.8c0.1,0.5,0.2,1,0.4,1.4h-4.3c-0.1-0.4-0.2-0.8-0.3-1.2
			c-0.1-0.7-0.1-1.4-0.1-2.1v-4.9c0.1-0.9-0.1-1.8-0.6-2.6c-0.5-0.5-1.3-0.8-2-0.7h-1.5v11.4h-4.2V119.7z M92.3,131.1
			c0.7,0.1,1.4-0.2,1.9-0.7c0.5-0.6,0.7-1.4,0.6-2.2v-2.1c0.1-0.7-0.1-1.5-0.5-2.1c-0.4-0.5-1-0.7-1.6-0.7h-1.9v7.6H92.3z"/>
		<path class="st0" d="M101.6,124.9h3.7l2.4,18l0,0l2.4-18h3.3l-3.5,23.1H105L101.6,124.9z"/>
		<path class="st0" d="M116.3,121.4h11.4v3.8h-7.2v7h5.8v3.8h-5.8v8.2h7.2v3.8h-11.4V121.4z"/>
		<path class="st0" d="M136.1,137.6l-5.5-16.5h4.8l3.1,10.6h0.1l3.1-10.6h4.4l-5.5,16.5v12.2h-4.5L136.1,137.6z"/>
		<path class="st0" d="M214.2,152.9l-0.8,0.5v-0.1c0.7-0.6,1.3-1.1,2-1.7c1-0.9,1.8-2,2.3-3.3c0.5-1.4,0.7-2.9,0.7-4.3
			c0.1-0.9,0.2-1.9,0.2-2.8c0-0.8-0.1-1.6-0.2-2.4c-0.1-1.2-0.3-2.5-0.4-3.7c-0.2-1.7-0.6-3.4-1.2-5c-0.3-0.7-0.6-1.4-1-2.1
			c0-0.1-0.3-0.3-0.3-0.3c-0.4,0.2-0.5-0.1-0.7-0.4c-0.6,0.2-1.1,0.3-1.7,0.5c-0.4,0.1-0.7,0.9-0.7,1.4c0,0.4-0.2,0.7-0.4,1
			c-0.6,0.7-0.9,1.6-0.9,2.5c-0.1,0.4,0.4,0.8,0.8,0.8c0.1,0,0.2,0.1,0.4,0.2c0.4,0.2,0.8,0.3,1.3,0.4c0.9,0.1,1.8,0.3,2.6,0.6
			c0.5,0.3,0.5,0.7,0.5,1l-2.1-0.3c-0.3,0.3-0.4,0.7-0.3,1.1c0.1,0.3,0.2,0.5,0.5,0.6c0.9,0.5,1.7,1.1,2.5,1.6
			c0.1,0.1,0.1,0.2,0.1,0.3c-0.2,0.1-0.5,0.3-0.5,0.2c-0.4-0.4-0.9-0.2-1.3-0.1c-0.2,0.1-0.4,0.2-0.6,0.3c0.1,0.1,0.2,0.3,0.3,0.4
			s0.2,0.2,0.3,0.3l-0.9,0.9l0.1,0.4c-0.3,0-0.6,0-0.8,0c-0.3,0.1-0.4,0.4-0.3,0.7c0,0,0,0,0,0.1c0.1,0.4,0.2,0.8,0.4,1.3
			c0,0.1,0.1,0.1,0.2,0.2c0.1,0.3,0.3,0.6,0.4,0.9s0.1,0.7,0.3,0.8c0.7,0.5,0.4,1.2,0.3,1.8c-0.2,0.9-0.5,1.7-0.9,2.6
			c-0.2,0.6-0.7,1-1.3,1c0.1-0.3,0.2-0.7,0.2-1.1c-0.1-0.4-0.3-0.7-0.5-1l-0.6,0.4c-0.2-0.4-0.6-0.2-0.9-0.1l-1.9,0.6v0.2l1.2,0.7
			c-0.3,0.2-0.6,0.3-0.8,0.4s-0.9,0.2-0.4,0.8c-0.3,0.3,0.3,0.9-0.4,1.1c-0.1,0-0.1,0.1-0.1,0.2c0,0.7-0.1,1.4-0.1,2
			c0,0.1-0.1,0.3-0.2,0.3c-1.3,0.4-2.7,0.3-3.9-0.4c-1.2-0.7-2.2-1.6-3-2.8c-0.1-0.1-0.2-0.2-0.3-0.3c-0.3,2.1-0.5,4.1-0.8,6.2
			c0,0.3-0.1,0.5-0.4,0.5c-0.8,0.2-1.6,0.3-2.4,0.3c-0.5-0.1-1-0.3-1.4-0.6c-0.7-0.4-1.4-0.8-2-1.2c-0.4-0.3-0.8-0.6-1.2-0.8
			c-0.7-0.4-1.4-0.8-2-1.3c-1-0.7-1.7-1.7-2.1-2.8c-0.2-0.7-0.5-1.4-0.9-2.1c-0.7-1.5-0.7-3.2,0-4.7c0.6-1.1,1.2-2.2,1.9-3.3
			c0.3-0.6,0.6-1.2,1-1.8c0.8-1.2,0.9-2.6,1.4-3.9s0.3-2.4,0.6-3.6c0.3-1.4,0.9-2.8,1.7-4.1c1.3-2,2.9-3.7,4.7-5.2
			c2-1.6,4.4-2.9,6.9-3.6c1.3-0.5,2.8-0.6,4.2-0.4c1.4,0.3,2.7,1.1,3.7,2.1c0.2,0.1,0.4,0.3,0.6,0.3c0.9,0.2,1.8,0.6,2.6,1
			c1,0.7,1.8,1.6,2.3,2.8c0.5,1.4,1.1,2.7,1.5,4.1c0.3,0.9,0.5,1.8,0.7,2.7c0.4,2.3,0.6,4.6,0.9,6.9c0.2,1.5,0.5,2.9,0.6,4.4
			c0.1,1,0.1,2.1,0,3.1c0,0.2,0,0.4,0,0.6c0,0.4,0.3,0.9-0.2,1.2c0,0,0,0.1,0,0.1c0.3,0.9-0.2,1.6-0.4,2.4c-0.2,1-0.5,1.9-0.8,2.8
			c-0.2,0.9-0.7,1.7-1.4,2.3c-0.3,0.2-0.5,0.5-0.6,0.8c-0.6,1-1.7,1.1-2.6,1.6c-0.5,0.3-1.3,0-1.9-0.1c-1.3-0.3-1.3-0.9-1.3-2.4
			c0-1.1,0.1-2.2,0.2-3.3C214.3,153.1,214.2,153,214.2,152.9z M210.1,139.1h-0.2c-0.1-0.4-0.2-0.8-0.3-1.2c0-0.3,0.2-0.7,0.2-1.1
			c0-0.5-0.1-0.9-0.2-1.4h-0.2c-0.1,0.3-0.1,0.5-0.2,0.8c0,0.3-0.1,0.6-0.1,0.9c-0.4,0.9-0.5,1.8-0.4,2.8c0,0.1-0.1,0.2-0.1,0.3
			c-0.1,0.7-0.5,1.4-0.1,2.2c0.1,0.3,0.2,0.7,0.2,1.1c0,0.6,0.2,0.8,0.7,0.6c0.8-0.4,1.1,0.3,1.6,0.5c-0.2,0.2-0.5,0.3-0.7,0.4
			c-0.2,0.1-0.4,0.3-0.5,0.5c-0.1,0.4-0.3,0.8-0.4,1.3l3.6,0.6c0.3-0.4,0.3-1,0-1.4c-0.2-0.2-0.3-0.5-0.4-0.7
			c-0.1-0.5-0.2-1.1-0.7-1.1l-0.4-1.7l0.3-0.1c-0.1-0.2-0.1-0.4-0.2-0.7c0-0.5-0.3-1-0.7-1.3c-0.2-0.2-0.4-0.5-0.6-0.8L210.1,139.1z
			 M209.4,148.1c-0.3-0.3-0.7-0.3-1,0c-0.3,0.2-0.4,0.6-0.2,0.9c0.2,0.3,0.8,0.2,1.2-0.1c0.8,0.4,1.9,0.1,2.3-0.8
			c0.1-0.2,0.1-0.3,0.2-0.5l-1.6,0.2C210,147.6,209.7,147.6,209.4,148.1L209.4,148.1z M208,148.7l-0.5-0.6l-0.5,0.6
			c0.1,0.1,0.3,0.3,0.4,0.3S207.8,148.9,208,148.7L208,148.7z"/>
		<path class="st0" d="M210.1,139.1l0.3,0.4c0.2,0.3,0.3,0.5,0.6,0.8c0.4,0.3,0.7,0.8,0.7,1.3c0,0.2,0.1,0.5,0.2,0.7l-0.3,0.1
			l0.4,1.7c0.5,0.1,0.6,0.6,0.7,1.1c0.1,0.3,0.2,0.5,0.4,0.7c0.3,0.4,0.3,1,0,1.4l-3.6-0.6c0.1-0.4,0.2-0.9,0.4-1.3
			c0.1-0.2,0.3-0.4,0.5-0.5c0.3-0.1,0.5-0.3,0.7-0.4c-0.6-0.2-0.8-0.9-1.6-0.5c-0.5,0.3-0.7,0-0.7-0.6c0-0.4-0.1-0.7-0.2-1.1
			c-0.4-0.8,0-1.5,0.1-2.2c0-0.1,0.1-0.2,0.1-0.4c-0.1-0.9,0.1-1.9,0.4-2.8c0.1-0.3,0.1-0.6,0.1-0.9c0-0.3,0.1-0.5,0.2-0.8h0.3
			c0.1,0.5,0.1,0.9,0.2,1.4c0,0.4-0.2,0.7-0.2,1.1c0.1,0.4,0.1,0.8,0.3,1.2L210.1,139.1z"/>
		<path class="st0" d="M165.1,129.3c0.4-0.3,0.7-0.5,1.2-0.2c0.3,0.2,0.4-0.1,0.4-0.3c0-0.7-0.2-1.4-0.7-2c-0.2-0.2-0.2-0.4,0.1-0.6
			s0.4,0,0.5,0.2s-0.1,0.5,0.3,0.2c0.1-0.1,0.2,0,0.3,0.2c0.1,0.2,0.2,0.3,0.4,0.3c0.6,0,0.7,0.1,0.5,0.7c0,0.1,0,0.1-0.1,0.2
			s0.3-0.1,0.3,0.1s-0.3,0.5-0.5,0.7c-0.2,0-0.1-0.2-0.1-0.3c-0.1-0.1-0.2-0.2-0.4-0.2c-0.1,0-0.2,0.1-0.2,0.3
			c-0.1,0.1-0.1,0.3,0.1,0.4c0.4,0.3,0.8,0.7,0.9,1.2c0,0.2,0,0.4,0,0.6c0,0.1-0.1,0.2,0,0.3s0.3,0,0.4-0.1c0.1-0.1,0.2-0.1,0.1-0.2
			c0-0.3-0.1-0.5-0.2-0.8c-0.1-0.3,0.1-0.5,0.3-0.6s0.4-0.1,0.5,0.1c0.1,0.1,0.2,0.1,0.3,0.1c0.7-0.2,1.5,0,2.2-0.2
			c0.4-0.1,0.8,0.1,1.2-0.1s0.8-0.1,1.2,0.4c0.1,0.1,0.3,0.2,0.5,0.2c0.8,0,1.7,0,2.5,0.2c0.2,0,0.5,0.1,0.5,0.4s0.1,0.4-0.2,0.6
			c-0.3,0.1-0.5,0.3-0.8,0c-0.4-0.4-1-0.6-1.6-0.5c-0.2,0-0.4,0-0.7,0c-0.3,0-0.8-0.2-0.7,0.5c0,0.2-0.2,0.3-0.3,0.2
			c0,0-0.1,0-0.1,0c-0.2-0.1-0.5-0.1-0.7,0.1c-0.1,0.1,0,0.3,0.1,0.5s0.3,0.2,0.5,0.2c0.8,0.1,1.5,0.3,2.2,0.6
			c0.3,0.2,0.7,0.2,1,0.1c0.3-0.1,0.3-0.2,0.1-0.4s-0.2-0.4,0.2-0.5c0.2,0,0.3-0.1,0.4-0.3c0.1-0.2,0.4-0.3,0.6-0.3
			c0.2,0,0.1,0.3,0.3,0.4c0.1-0.4-0.2-0.8-0.1-1.3c0.5,0.1,0.8,0.6,0.7,1.1c0,0.1,0.1,0.3-0.2,0.2s-0.1,0.2,0,0.3
			c0.2,0.3,0.4,0.5,0.7,0.8c0.1,0.1,0.2,0.2,0.1,0.3c-0.1,0.1-0.2,0.1-0.3,0c-0.1,0-0.2-0.1-0.3-0.1c-0.6-0.1-0.7-0.1-0.7,0.6
			c0,0.6-0.1,1.2-0.2,1.8c-0.1,0.4-0.4,0.7-0.7,0.9c-1,0.5-2,0.7-3.1,0.8c-0.2,0-0.4,0-0.6,0.1c0.2,0.3,0.6,0.3,0.9,0.4
			c0.6,0.4,1.2,0.9,1.6,1.6c0.2,0.2,0.3,0.1,0.5,0.2c0.2,0.1,0.2,0.1,0.2,0.3s-0.2,0-0.3,0.1c0.3,0.4,0.4,0.8,0.4,1.2
			c0,0.2-0.1,0.3-0.2,0.5c-0.1,0.3-0.1,0.7,0.1,1c0.2,0.4,0.3,0.8,0.1,1.2c-0.1,0.2-0.1,0.4,0,0.6c0.1,0.4,0.1,0.8,0,1.1
			c0,0.5-0.2,0.9-0.4,1.4c-0.1,0.1-0.1,0.2-0.2,0.2s-0.3-0.4-0.4-0.2c-0.2,0.4-0.3,0.1-0.4,0c-0.5-0.3-0.8-0.7-1.1-1.2
			c-0.1-0.1-0.1-0.2-0.3-0.2s-0.4-0.2-0.4-0.4s-0.2-0.3-0.3-0.1c-0.5,0.4-1.1,0.7-1.7,0.7c-0.2,0-0.4,0.1-0.5,0.3l-0.1-0.4
			c0.3,0.2,0.3-0.6,0.7-0.3c0.2,0.1,0.4,0,0.4-0.3c0-0.2,0-0.3-0.1-0.5c0-0.1,0-0.2-0.2-0.2s-0.2,0.1-0.2,0.2s-0.3,0.2-0.2,0.5
			l-0.2-0.4c-0.1-0.1-0.2-0.2-0.3-0.1c-0.1,0-0.3,0.1-0.3,0.3c0,0.5,0,0.9,0.2,1.4c0,0.1,0.1,0.3,0,0.2s-0.3,0.3-0.4,0
			s-0.1-0.1-0.2,0c-0.3,0.5-0.3,0.5,0.3,1.1l0.2-0.3c0.2,0.1,0.1,0.2,0.1,0.3s0.1,0.2,0.2,0.1s0.2-0.3,0.3,0s0.3,0.3,0,0.4
			c-0.1,0.1-0.1,0.1-0.1,0.2c0.1,0.4,0.3,0.8,0.5,1.1c0.1,0.2,0,0.2-0.1,0.3s-0.7-0.2-0.6,0.4c0,0-0.1,0.1-0.1,0.1
			c-0.5,0-0.3,0.4-0.3,0.6s0.1,0.4,0.1,0.6s0.1,0.2,0.1,0.1s0.3,0.1,0.4,0.1c0.4,0.1,0.4,0.2,0,0.3c-0.1,0.1,0,0.2,0,0.3
			s0.1,0.2,0.3,0.2c0.4,0,0.7-0.1,0.9,0.4c0,0,0.1,0.1,0.1,0c0,0,0,0,0,0c0.1-0.1-0.1-0.2,0-0.5c0.3,0.2,0.5,0.5,0.7,0.8
			c0.3,0.6,0.3,0.6,0.9,0.3h0.1c-0.1,0.4-0.6,0.6-0.3,1c-0.1-0.2-0.4-0.2-0.6-0.1c0,0,0,0,0,0c-0.1,0.1-0.1,0.3,0,0.5
			c0.1-0.1,0-0.4,0.3-0.3s0.2,0,0.3-0.2c0.2,0,0.4-0.1,0.6,0c-0.2,0.2-0.4,0.4-0.4,0.7c0,0.1-0.1,0.2-0.2,0.2
			c-1.4,0.4-2.8,0.7-4.3,0.8c-0.8,0.1-1.6,0.1-2.4,0.1c-1-0.2-2-0.6-2.9-1.2c-0.9-0.6-1.7-1.3-2.4-2.2c-0.2-0.2-0.3-0.5-0.4-0.7
			c-0.6-1.2-1.3-2.4-2.1-3.5c-0.4-0.5-0.7-1-0.9-1.5c-0.1-0.2-0.1-0.4-0.4-0.2s-0.4,0-0.6-0.2c-0.5-0.5-0.8-1-1.1-1.6
			c-0.7-1.1-1.3-2.3-1.8-3.6c-0.4-0.7-0.6-1.6-0.5-2.4c0.1-0.9,0.4-1.1,1.3-1.3c0.5-0.1,0.2-0.5,0.1-0.6c-0.7-1-0.5-2.2-0.5-3.3
			c-0.1-1.6,0-3.1,0.4-4.7c0.2-0.9,0.5-1.8,0.9-2.6c0.2-0.4,0.4-0.9,0.6-1.3c0.4-0.7,0.8-1.3,1.4-1.8c0.3-0.2,0.6-0.3,0.9-0.7
			c0.1-0.1,0.2-0.1,0.3,0c0,0,0,0,0,0c0.1,0.1,0,0.2-0.1,0.3c-0.4,0.4-0.7,0.8-1,1.3c-0.1,0.2-0.2,0.3-0.2,0.5
			c0.2,0,0.4-0.2,0.5-0.4c0-0.4,0.3-0.4,0.6-0.6c0.3-0.2,0.7-0.4,0.9-0.7c0.4-0.3,0.9-0.5,1.4-0.5c0.3,0,0.7-0.2,0.9-0.4
			c0.2-0.2,0.6-0.2,0.8-0.3c0.1,0.3,0.5,0.3,0.6,0.5s0.4,0.5,0.4,1c-0.2,0.7-0.1,1.4,0.2,2c0.2,0.2,0.1,0.6,0.3,0.8c0,0,0,0.1,0,0.1
			c0.1,0.2,0.4,0.2,0.4,0.4c-0.2,0.6-0.1,1.3-0.5,1.8c-0.1,0.2-0.2,0.3,0.1,0.5c0.3,0.2,0.5,0.6,0.6,0.9c-0.4,0.2,0.1,0.4-0.1,0.6
			c0.1,0.1,0.1,0.3,0.2,0.2c0.1,0,0.2-0.2,0.1-0.3c0,0,0,0,0,0C165.2,129.5,165.2,129.4,165.1,129.3z M169,133.1
			c0.2-0.5-0.1-1,0.1-1.4C168.8,132.1,168.8,132.6,169,133.1c0.2,0.4,0.3,0.8,0.5,1.2c0.2,0.6,0.5,1,1,1.4c0.8,0.3,1.7,0.4,2.6,0.3
			c1.1,0,2.1-0.2,3.1-0.6c0.4-0.2,0.8-0.5,0.9-1c0.1-0.4-0.1-0.5-0.4-0.6c-1-0.3-1.8,0.1-2.8,0.3c-0.1,0-0.2,0-0.2,0.2
			c0,0.1,0.1,0.2,0.2,0.2c0.3,0.1,0.5,0.2,0.8,0.3c-0.3,0.6-0.8,0.6-1.3,0.8c-0.2,0-0.4,0.2-0.5,0.1c-0.4-0.4-1-0.3-1.5-0.4
			c-0.5-0.1-0.8-0.1-1-0.5c-0.1-0.1-0.1-0.3-0.3-0.3s-0.3-0.1-0.4-0.3c-0.2-0.3-0.3-0.5-0.4-0.8C169.2,133.2,169.1,133.2,169,133.1
			L169,133.1z M171.7,138.2c0-0.5-0.3-0.9-0.7-1.1c-0.2-0.1-0.3-0.2-0.4-0.4c-0.1-0.2-0.2-0.5-0.4-0.6c-0.6-0.5-1.1-1-1.6-1.7
			c-0.1-0.2-0.3-0.3-0.5-0.4c-0.1,0-0.2-0.3-0.3-0.2c-0.2,0.1-0.3,0.3-0.2,0.5c0.1,0.3,0.1,0.7,0,1c-0.2,0.6-0.1,1.3,0.2,1.9
			c0.4,0.8,0.8,1.6,1.2,2.4c0.1,0.1,0.1,0.3,0.1,0.5c-0.1,0.3,0,0.4,0.3,0.3s0.2,0,0.2,0.1c0,0.1,0.1,0.3,0.3,0.4s0.3,0.1,0.2,0.3
			c0,0.1,0.1,0.3,0.2,0.4c0.2,0.2,0.2,0.3-0.1,0.4s-0.3,0.4-0.3,0.6s0.3,0.1,0.4,0.1c0.5,0.2,1-0.1,1.5,0.1c0.2,0,0.2-0.1,0.3-0.2
			s0.2-0.5,0.5-0.1c0.1,0.1,0.1,0,0.2,0c0.3-0.1,0.4-0.4,0.7-0.6c0.1-0.1,0.5-0.6-0.1-0.6c-0.1,0-0.2-0.1-0.1-0.2
			c0.2-0.3-0.1-0.4-0.2-0.6s-0.4-0.4-0.6-0.7c-0.1-0.3-0.4-0.5-0.7-0.4c-0.1,0-0.1,0-0.1,0.1c-0.4,0.3-1,0.3-1.4,0.7
			c-0.2,0.2-0.3,0-0.5-0.2s-0.1-0.2,0-0.3c0.4-0.4,0.9-0.6,1.5-0.6C171.5,139.2,171.6,139,171.7,138.2L171.7,138.2z M173.3,133.2
			c0.3,0.3,0.5,0.1,0.7,0.1c0.5,0.1,0.9,0.1,1.4,0.1c0.6-0.1,1.2,0,1.7,0.4c0.1-0.5,0.1-0.9,0-1.4c-0.1,0.8-0.1,0.8-1,0.7
			c-0.3,0-0.6-0.2-1-0.2C174.5,132.9,173.9,133,173.3,133.2L173.3,133.2z M169.6,145c0.4,0,0.6-0.1,0.5-0.3s0.1-0.7-0.3-0.8
			s-0.5,0.3-0.5,0.5S169.3,145,169.6,145z M156.1,135.9c0.3-0.6-0.2-1.3,0.1-1.9C155.8,134.6,155.8,135.3,156.1,135.9L156.1,135.9z
			 M168.6,144.4c-0.2,0.1-0.3,0.2-0.4,0.4s0.1,0.3,0.3,0.3s0.3-0.1,0.3-0.2C168.8,144.7,168.7,144.5,168.6,144.4z M175,133.7
			c-0.3-0.1-0.6-0.5-1.1-0.1C174.3,133.8,174.7,133.8,175,133.7z"/>
		<path class="st0" d="M170.9,119.7c0.6,0.3,1.2,0.1,1.7,0.2c0.5,0.2,0.9,0.4,1.3,0.8c0.9,0.7,1.8,1.6,2.7,2.4
			c0.6,0.6,1.1,1.3,1.4,2.1c0.1,0.3,0.2,0.6,0.4,0.8c0.4,0.6,0.4,1.2,0.7,1.8c0.1,0.1,0.1,0.3-0.1,0.3c-0.1,0-0.2-0.1-0.2-0.2
			c0-0.6-0.4-1-0.7-1.5s-0.6-1-0.8-1.6c-0.1-0.2-0.3-0.3-0.5-0.5c-0.3-0.3-0.6-0.6-0.9-0.8c-0.2-0.1-0.2-0.3-0.4-0.4
			c-0.8-0.7-1.6-1.4-2.6-1.9c-0.6-0.4-1.3-0.7-2-1c-0.1,0-0.2-0.1-0.2-0.2S170.8,119.7,170.9,119.7z"/>
		<path class="st0" d="M178,143.4c0.3,0.2,0.4,0.4,0.3,0.6c-0.2,0.7-0.3,1.3-0.3,2c-0.1,0.5-0.3,0.9-0.6,1.3
			c-0.3,0.6-0.6,1.2-0.9,1.8c-0.1,0.1-0.2,0.3-0.3,0.2s-0.1-0.3-0.1-0.4c0.2-0.9,0.5-1.8,0.9-2.6c0.3-0.5,0.5-1.1,0.6-1.6
			c0-0.1,0-0.3,0.2-0.3s0.1-0.1,0.1-0.1C177.6,143.9,178.1,143.7,178,143.4z"/>
		<path class="st0" d="M181.6,138.7c-0.1-0.6-0.1-1.1-0.2-1.7c-0.2-0.6-0.4-1.2-0.9-1.6c-0.2-0.2-0.3-0.6,0-0.8c0,0,0,0,0,0
			c0.2-0.1,0.3-0.2,0.6-0.3c0.4-0.1,0.6,0,0.8,0.5c0.3,0.9,0.3,1.8,0,2.7C181.8,137.8,181.7,138.2,181.6,138.7z"/>
		<path class="st0" d="M181,138c0,0.2,0,0.3,0,0.5c0,0.3-0.2,0.6-0.5,0.6c-0.1,0-0.2,0.1-0.3,0c-0.1-0.1,0-0.2,0-0.3
			c0.1-0.6,0-1.2-0.4-1.7c-0.1-0.1-0.1-0.2-0.1-0.3c0-0.1,0-0.1,0.1-0.2c0.1-0.1,0.1,0,0.2,0.1c0.2,0.3,0.5,0.5,0.8,0.6
			C181,137.4,181,137.7,181,138z"/>
		<path class="st0" d="M169.9,119.6c-0.4,0.2-0.9,0.1-1.4-0.1c-0.2-0.1-0.4,0-0.5,0.1c-0.2,0.2-0.4,0.2-0.5,0s-0.5-0.3-0.8-0.4
			c-0.1,0-0.2,0.2-0.2,0s0.1-0.2,0.3-0.2c0.4,0,0.8,0,1.2,0C168.6,119.1,169.3,119.3,169.9,119.6z"/>
		<path class="st0" d="M163.7,120.1c0.5,0,0.5-0.3,0.3-0.6l1-0.3c0.3-0.1,0.4,0,0.5,0.3s-0.2,0.3-0.4,0.3c-0.2,0.1-0.3,0.1-0.5,0
			c-0.2-0.1-0.4,0.1-0.4,0.3S163.9,120.3,163.7,120.1z"/>
		<path class="st0" d="M179.5,131.3c-0.1,0.3,0,0.7,0.1,1c0.2,0.3,0.3,0.5,0.4,0.8c0,0.1,0.1,0.3,0,0.3s-0.4,0.1-0.5-0.1
			c-0.2-0.5-0.2-1-0.3-1.4C179.3,131.6,179.3,131.4,179.5,131.3L179.5,131.3z"/>
		<path class="st0" d="M165.6,126.9c-0.2-0.3-0.4-0.6-0.3-1c0.1-0.2,0-0.4,0.3-0.3s0.3,0.3,0.2,0.5
			C165.7,126.3,165.7,126.6,165.6,126.9z"/>
		<path class="st0" d="M179.5,131.4c-0.1-0.3-0.2-0.5-0.4-0.8c0-0.1-0.1-0.2,0-0.3s0.2,0,0.3,0.1C180,130.8,180,131.1,179.5,131.4
			L179.5,131.4z"/>
		<path class="st0" d="M179.2,128.9l0.1,0.1c0.1,0.2,0.2,0.4,0.1,0.6c0,0-0.1,0-0.1,0C179.2,129.4,179,129.2,179.2,128.9z"/>
	</g>
	<g>
		<g>
			<g>
				<g>
					<polygon class="st0" points="46.2,61.1 75.8,8.7 76.4,22.8 					"/>
				</g>
			</g>
			<g>
				<g>
					<polygon class="st0" points="94.8,52.9 107.1,59.4 77,6.5 					"/>
				</g>
			</g>
			<g>
				<g>
					<polygon class="st0" points="108.1,61.6 59.7,54 48.2,61.8 					"/>
				</g>
			</g>
		</g>
		<g>
			<path class="st0" d="M46.2,69.1l1-2.5h1.5v0.1h-0.1c-0.1,0-0.2,0-0.3,0.1c0,0-0.1,0.1-0.1,0.1c0,0,0,0.2,0,0.3v2.5
				c0,0.2,0,0.3,0,0.4c0,0,0.1,0.1,0.1,0.1c0.1,0,0.1,0.1,0.2,0.1h0.1v0.1h-1.9v-0.1h0.1c0.1,0,0.2,0,0.3-0.1c0,0,0.1-0.1,0.1-0.1
				c0,0,0-0.2,0-0.3V67l-1.4,3.4h-0.1L44.4,67v2.6c0,0.2,0,0.3,0,0.3c0,0.1,0.1,0.2,0.2,0.2c0.1,0.1,0.2,0.1,0.4,0.1v0.1h-1.3v-0.1
				h0c0.1,0,0.2,0,0.2,0c0.1,0,0.1-0.1,0.2-0.1c0,0,0.1-0.1,0.1-0.2c0,0,0-0.1,0-0.3v-2.4c0-0.2,0-0.3,0-0.4c0,0-0.1-0.1-0.1-0.1
				c-0.1,0-0.1-0.1-0.2-0.1h-0.1v-0.1h1.5L46.2,69.1z"/>
			<path class="st0" d="M51.4,69.1l1-2.5h1.5v0.1h-0.1c-0.1,0-0.2,0-0.3,0.1c0,0-0.1,0.1-0.1,0.1c0,0,0,0.2,0,0.3v2.5
				c0,0.2,0,0.3,0,0.4c0,0,0.1,0.1,0.1,0.1c0.1,0,0.1,0.1,0.2,0.1h0.1v0.1H52v-0.1h0.1c0.1,0,0.2,0,0.3-0.1c0,0,0.1-0.1,0.1-0.1
				c0,0,0-0.2,0-0.3V67l-1.4,3.4h-0.1L49.6,67v2.6c0,0.2,0,0.3,0,0.3c0,0.1,0.1,0.2,0.2,0.2c0.1,0.1,0.2,0.1,0.4,0.1v0.1h-1.3v-0.1
				h0c0.1,0,0.2,0,0.2,0c0.1,0,0.1-0.1,0.2-0.1c0,0,0.1-0.1,0.1-0.2c0,0,0-0.1,0-0.3v-2.4c0-0.2,0-0.3,0-0.4c0,0-0.1-0.1-0.1-0.1
				c-0.1,0-0.1-0.1-0.2-0.1h-0.1v-0.1h1.5L51.4,69.1z"/>
			<path class="st0" d="M56.6,66.5l0,1.2h-0.1c-0.1-0.3-0.2-0.6-0.4-0.8c-0.2-0.2-0.4-0.3-0.7-0.3c-0.2,0-0.3,0.1-0.4,0.2
				c-0.1,0.1-0.2,0.2-0.2,0.3c0,0.1,0,0.2,0.1,0.2c0.1,0.1,0.1,0.2,0.3,0.3c0.1,0.1,0.3,0.2,0.6,0.3c0.4,0.2,0.7,0.4,0.9,0.6
				c0.1,0.2,0.2,0.4,0.2,0.7c0,0.3-0.1,0.6-0.4,0.8c-0.2,0.2-0.5,0.3-0.9,0.3c-0.1,0-0.2,0-0.3,0c-0.1,0-0.2-0.1-0.4-0.1
				c-0.1,0-0.2-0.1-0.2-0.1c0,0-0.1,0-0.1,0.1c-0.1,0-0.1,0.1-0.1,0.2h-0.1V69h0.1c0.1,0.4,0.2,0.7,0.5,0.9c0.2,0.2,0.5,0.3,0.7,0.3
				c0.2,0,0.4-0.1,0.5-0.2c0.1-0.1,0.2-0.2,0.2-0.4c0-0.1,0-0.2-0.1-0.3c0-0.1-0.1-0.2-0.2-0.2c-0.1-0.1-0.3-0.2-0.5-0.3
				c-0.3-0.2-0.6-0.3-0.7-0.4c-0.1-0.1-0.3-0.2-0.3-0.4c-0.1-0.1-0.1-0.3-0.1-0.5c0-0.3,0.1-0.6,0.3-0.8c0.2-0.2,0.5-0.3,0.8-0.3
				c0.1,0,0.2,0,0.3,0c0.1,0,0.2,0.1,0.3,0.1c0.1,0.1,0.2,0.1,0.3,0.1c0,0,0.1,0,0.1,0C56.5,66.7,56.5,66.7,56.6,66.5L56.6,66.5z"/>
			<path class="st0" d="M62.3,66.5v1.3h-0.1c-0.1-0.4-0.3-0.6-0.5-0.8c-0.2-0.2-0.5-0.3-0.8-0.3c-0.3,0-0.5,0.1-0.7,0.2
				c-0.2,0.2-0.3,0.4-0.4,0.7c-0.1,0.3-0.1,0.6-0.1,0.9c0,0.4,0,0.7,0.1,0.9c0.1,0.3,0.2,0.5,0.4,0.6c0.2,0.1,0.4,0.2,0.7,0.2
				c0.1,0,0.2,0,0.3,0c0.1,0,0.2,0,0.3-0.1v-0.8c0-0.1,0-0.2,0-0.3c0,0-0.1-0.1-0.1-0.1c-0.1,0-0.1-0.1-0.2-0.1H61v-0.1h1.8v0.1
				c-0.1,0-0.2,0-0.3,0.1c-0.1,0-0.1,0.1-0.1,0.1c0,0,0,0.1,0,0.3v0.8c-0.2,0.1-0.5,0.2-0.7,0.2c-0.3,0.1-0.5,0.1-0.8,0.1
				c-0.3,0-0.6,0-0.9-0.1c-0.2-0.1-0.4-0.2-0.6-0.4c-0.2-0.2-0.3-0.3-0.4-0.5c-0.1-0.3-0.2-0.5-0.2-0.9c0-0.6,0.2-1,0.6-1.4
				c0.4-0.4,0.9-0.6,1.5-0.6c0.2,0,0.3,0,0.5,0c0.1,0,0.2,0.1,0.4,0.1c0.2,0.1,0.3,0.1,0.3,0.1c0.1,0,0.1,0,0.1-0.1
				c0,0,0.1-0.1,0.1-0.2H62.3z"/>
			<path class="st0" d="M64.3,68.7v1.1c0,0.2,0,0.3,0,0.4c0,0.1,0.1,0.1,0.1,0.1c0.1,0,0.2,0,0.3,0v0.1h-1.9v-0.1c0.2,0,0.3,0,0.3,0
				c0.1,0,0.1-0.1,0.1-0.1c0-0.1,0-0.2,0-0.4v-2.4c0-0.2,0-0.3,0-0.4c0-0.1-0.1-0.1-0.1-0.1c-0.1,0-0.2,0-0.3,0v-0.1h1.7
				c0.4,0,0.8,0,1,0.1c0.2,0.1,0.4,0.2,0.5,0.3c0.1,0.2,0.2,0.4,0.2,0.6c0,0.3-0.1,0.5-0.3,0.7c-0.1,0.1-0.3,0.2-0.5,0.3l0.9,1.3
				c0.1,0.2,0.2,0.3,0.2,0.3c0.1,0.1,0.2,0.1,0.3,0.1v0.1h-1.2l-1.2-1.7H64.3z M64.3,66.8v1.6h0.2c0.3,0,0.4,0,0.6-0.1
				c0.1,0,0.2-0.1,0.3-0.3c0.1-0.1,0.1-0.3,0.1-0.5c0-0.3-0.1-0.5-0.2-0.6c-0.1-0.1-0.3-0.2-0.6-0.2H64.3z"/>
			<path class="st0" d="M69,66.6c0.6,0,1.1,0.2,1.4,0.5c0.4,0.4,0.5,0.8,0.5,1.4c0,0.5-0.1,0.9-0.4,1.3c-0.4,0.5-0.9,0.7-1.5,0.7
				c-0.7,0-1.2-0.2-1.5-0.7c-0.3-0.4-0.4-0.8-0.4-1.3c0-0.6,0.2-1,0.6-1.4C68,66.7,68.4,66.6,69,66.6z M69,66.8
				c-0.3,0-0.6,0.2-0.8,0.5C68.1,67.6,68,68,68,68.5c0,0.6,0.1,1.1,0.3,1.4c0.2,0.2,0.4,0.3,0.6,0.3c0.2,0,0.3,0,0.5-0.1
				c0.2-0.1,0.3-0.3,0.4-0.6c0.1-0.3,0.1-0.6,0.1-1c0-0.5,0-0.9-0.1-1.1c-0.1-0.2-0.2-0.4-0.3-0.5C69.4,66.8,69.2,66.8,69,66.8z"/>
			<path class="st0" d="M71.3,66.6h1.9v0.1h-0.1c-0.1,0-0.2,0-0.3,0c-0.1,0-0.1,0.1-0.1,0.1c0,0.1,0,0.2,0,0.4v1.8
				c0,0.3,0,0.6,0.1,0.7c0,0.1,0.1,0.2,0.2,0.3c0.1,0.1,0.3,0.1,0.4,0.1c0.2,0,0.4,0,0.5-0.1c0.1-0.1,0.2-0.2,0.3-0.4
				c0.1-0.2,0.1-0.4,0.1-0.8v-1.5c0-0.2,0-0.3-0.1-0.4c0-0.1-0.1-0.1-0.1-0.1c-0.1,0-0.2-0.1-0.3-0.1v-0.1h1.3v0.1H75
				c-0.1,0-0.2,0-0.3,0.1c-0.1,0-0.1,0.1-0.1,0.2c0,0.1,0,0.2,0,0.3v1.4c0,0.4,0,0.8-0.1,1c-0.1,0.2-0.2,0.4-0.4,0.5
				c-0.2,0.2-0.5,0.2-0.9,0.2c-0.3,0-0.6,0-0.7-0.1c-0.2-0.1-0.4-0.3-0.5-0.5c-0.1-0.2-0.1-0.4-0.1-0.7v-1.8c0-0.2,0-0.3,0-0.4
				c0-0.1-0.1-0.1-0.1-0.1c-0.1,0-0.2,0-0.3,0V66.6z"/>
			<path class="st0" d="M76.7,68.7v1c0,0.2,0,0.3,0,0.4c0,0.1,0.1,0.1,0.1,0.1c0.1,0,0.2,0,0.3,0v0.1h-1.9v-0.1c0.2,0,0.3,0,0.3,0
				c0.1,0,0.1-0.1,0.1-0.1c0-0.1,0-0.2,0-0.4v-2.4c0-0.2,0-0.3,0-0.4s-0.1-0.1-0.1-0.1c-0.1,0-0.2,0-0.3,0v-0.1h1.6
				c0.5,0,0.9,0.1,1.1,0.3c0.2,0.2,0.3,0.4,0.3,0.7c0,0.2-0.1,0.5-0.2,0.6c-0.1,0.2-0.4,0.3-0.6,0.4C77.4,68.7,77.1,68.7,76.7,68.7z
				 M76.7,66.8v1.6c0.1,0,0.1,0,0.1,0c0.2,0,0.4-0.1,0.5-0.2c0.1-0.1,0.2-0.3,0.2-0.6c0-0.3-0.1-0.5-0.2-0.6
				c-0.1-0.1-0.3-0.2-0.5-0.2H76.7z"/>
			<path class="st0" d="M81.7,70.3v0.1h-1.9v-0.1h0.1c0.1,0,0.2,0,0.3-0.1c0,0,0.1-0.1,0.1-0.1c0,0,0-0.2,0-0.3v-2.5
				c0-0.2,0-0.3,0-0.4c0,0-0.1-0.1-0.1-0.1c-0.1,0-0.1-0.1-0.2-0.1h-0.1v-0.1h1.9v0.1h-0.1c-0.1,0-0.2,0-0.3,0.1
				c0,0-0.1,0.1-0.1,0.1c0,0,0,0.2,0,0.3v2.5c0,0.2,0,0.3,0,0.4s0.1,0.1,0.1,0.1c0.1,0,0.1,0.1,0.2,0.1H81.7z"/>
			<path class="st0" d="M83.2,66.6L85,69v-1.6c0-0.2,0-0.4-0.1-0.5c-0.1-0.1-0.2-0.2-0.4-0.2v-0.1h1.2v0.1c-0.2,0-0.3,0-0.3,0.1
				c-0.1,0-0.1,0.1-0.1,0.2c0,0.1,0,0.2,0,0.4v3.1h-0.1l-2.5-3.1v2.4c0,0.2,0,0.4,0.1,0.4c0.1,0.1,0.2,0.1,0.3,0.1h0.1v0.1h-1.3
				v-0.1c0.2,0,0.3,0,0.4-0.1c0.1-0.1,0.1-0.2,0.1-0.4v-2.6L82.3,67c-0.1-0.1-0.1-0.2-0.2-0.2c-0.1,0-0.1,0-0.3-0.1v-0.1H83.2z"/>
			<path class="st0" d="M85.9,70.4v-0.1H86c0.1,0,0.2,0,0.2-0.1c0.1,0,0.1-0.1,0.1-0.1c0,0,0-0.2,0-0.3v-2.5c0-0.2,0-0.3,0-0.4
				c0,0-0.1-0.1-0.1-0.1c-0.1,0-0.1-0.1-0.2-0.1h-0.1v-0.1h1.6c0.4,0,0.8,0.1,1.1,0.2c0.3,0.1,0.6,0.4,0.7,0.7
				c0.2,0.3,0.3,0.6,0.3,1c0,0.3,0,0.5-0.1,0.7s-0.2,0.4-0.3,0.5c-0.1,0.1-0.3,0.3-0.5,0.3c-0.2,0.1-0.4,0.2-0.6,0.2
				c-0.1,0-0.3,0-0.5,0H85.9z M87.3,66.8v2.9c0,0.2,0,0.2,0,0.3c0,0,0,0.1,0.1,0.1c0,0,0.1,0,0.2,0c0.3,0,0.5-0.1,0.7-0.3
				c0.2-0.3,0.3-0.7,0.3-1.3c0-0.5-0.1-0.9-0.2-1.2c-0.1-0.2-0.3-0.4-0.5-0.5C87.8,66.9,87.6,66.8,87.3,66.8z"/>
			<path class="st0" d="M92,66.6c0.6,0,1.1,0.2,1.4,0.5c0.4,0.4,0.5,0.8,0.5,1.4c0,0.5-0.1,0.9-0.4,1.3c-0.4,0.5-0.9,0.7-1.5,0.7
				c-0.7,0-1.2-0.2-1.5-0.7C90.2,69.4,90,69,90,68.5c0-0.6,0.2-1,0.6-1.4C91,66.7,91.4,66.6,92,66.6z M92,66.8
				c-0.3,0-0.6,0.2-0.8,0.5C91.1,67.6,91,68,91,68.5c0,0.6,0.1,1.1,0.3,1.4c0.2,0.2,0.4,0.3,0.6,0.3c0.2,0,0.3,0,0.5-0.1
				c0.2-0.1,0.3-0.3,0.4-0.6c0.1-0.3,0.1-0.6,0.1-1c0-0.5,0-0.9-0.1-1.1c-0.1-0.2-0.2-0.4-0.3-0.5C92.3,66.8,92.2,66.8,92,66.8z"/>
			<path class="st0" d="M95.5,66.6l1.8,2.3v-1.6c0-0.2,0-0.4-0.1-0.5c-0.1-0.1-0.2-0.2-0.4-0.2v-0.1H98v0.1c-0.2,0-0.3,0-0.3,0.1
				c-0.1,0-0.1,0.1-0.1,0.2c0,0.1,0,0.2,0,0.4v3.1h-0.1L95,67.3v2.4c0,0.2,0,0.4,0.1,0.4c0.1,0.1,0.2,0.1,0.3,0.1h0.1v0.1h-1.3v-0.1
				c0.2,0,0.3,0,0.4-0.1c0.1-0.1,0.1-0.2,0.1-0.4v-2.6L94.7,67c-0.1-0.1-0.1-0.2-0.2-0.2c-0.1,0-0.1,0-0.3-0.1v-0.1H95.5z"/>
			<path class="st0" d="M99.7,66.8v1.5h0.1c0.2,0,0.4-0.1,0.5-0.2c0.1-0.1,0.2-0.4,0.2-0.7h0.1v2h-0.1c0-0.2-0.1-0.4-0.1-0.5
				c-0.1-0.1-0.2-0.2-0.2-0.3s-0.2-0.1-0.4-0.1v1.1c0,0.2,0,0.3,0,0.4c0,0,0,0.1,0.1,0.1c0,0,0.1,0,0.2,0h0.2c0.3,0,0.6-0.1,0.8-0.2
				c0.2-0.2,0.4-0.4,0.4-0.7h0.1l-0.2,1.2h-3.2v-0.1h0.1c0.1,0,0.2,0,0.3-0.1c0,0,0.1-0.1,0.1-0.1c0,0,0-0.2,0-0.3v-2.5
				c0-0.2,0-0.3,0-0.3c0-0.1-0.1-0.1-0.1-0.1c-0.1-0.1-0.2-0.1-0.3-0.1h-0.1v-0.1h3.1v1.1h-0.1c-0.1-0.3-0.1-0.5-0.2-0.6
				c-0.1-0.1-0.2-0.2-0.4-0.3c-0.1,0-0.3,0-0.6,0H99.7z"/>
			<path class="st0" d="M104.5,66.5l0,1.2h-0.1c-0.1-0.3-0.2-0.6-0.4-0.8c-0.2-0.2-0.4-0.3-0.7-0.3c-0.2,0-0.3,0.1-0.4,0.2
				c-0.1,0.1-0.2,0.2-0.2,0.3c0,0.1,0,0.2,0.1,0.2c0.1,0.1,0.1,0.2,0.3,0.3c0.1,0.1,0.3,0.2,0.6,0.3c0.4,0.2,0.7,0.4,0.9,0.6
				c0.1,0.2,0.2,0.4,0.2,0.7c0,0.3-0.1,0.6-0.4,0.8c-0.2,0.2-0.5,0.3-0.9,0.3c-0.1,0-0.2,0-0.3,0c-0.1,0-0.2-0.1-0.4-0.1
				c-0.1,0-0.2-0.1-0.2-0.1c0,0-0.1,0-0.1,0.1c-0.1,0-0.1,0.1-0.1,0.2h-0.1V69h0.1c0.1,0.4,0.2,0.7,0.5,0.9c0.2,0.2,0.5,0.3,0.7,0.3
				c0.2,0,0.4-0.1,0.5-0.2c0.1-0.1,0.2-0.2,0.2-0.4c0-0.1,0-0.2-0.1-0.3c0-0.1-0.1-0.2-0.2-0.2c-0.1-0.1-0.3-0.2-0.5-0.3
				c-0.3-0.2-0.6-0.3-0.7-0.4c-0.1-0.1-0.3-0.2-0.3-0.4c-0.1-0.1-0.1-0.3-0.1-0.5c0-0.3,0.1-0.6,0.3-0.8c0.2-0.2,0.5-0.3,0.8-0.3
				c0.1,0,0.2,0,0.3,0c0.1,0,0.2,0.1,0.3,0.1c0.1,0.1,0.2,0.1,0.3,0.1c0,0,0.1,0,0.1,0C104.3,66.7,104.4,66.7,104.5,66.5L104.5,66.5
				z"/>
			<path class="st0" d="M107,70.3v0.1h-1.9v-0.1h0.1c0.1,0,0.2,0,0.3-0.1c0,0,0.1-0.1,0.1-0.1c0,0,0-0.2,0-0.3v-2.5
				c0-0.2,0-0.3,0-0.4c0,0-0.1-0.1-0.1-0.1c-0.1,0-0.1-0.1-0.2-0.1h-0.1v-0.1h1.9v0.1h-0.1c-0.1,0-0.2,0-0.3,0.1
				c0,0-0.1,0.1-0.1,0.1c0,0,0,0.2,0,0.3v2.5c0,0.2,0,0.3,0,0.4c0,0,0.1,0.1,0.1,0.1c0.1,0,0.1,0.1,0.2,0.1H107z"/>
			<path class="st0" d="M109.4,69.3h-1.3l-0.2,0.4c-0.1,0.1-0.1,0.2-0.1,0.3c0,0.1,0,0.2,0.1,0.2c0,0,0.2,0.1,0.4,0.1v0.1h-1.2v-0.1
				c0.1,0,0.2-0.1,0.3-0.2c0.1-0.1,0.2-0.3,0.3-0.6l1.3-3h0.1l1.3,3.1c0.1,0.3,0.2,0.5,0.3,0.5c0.1,0.1,0.1,0.1,0.3,0.1v0.1h-1.8
				v-0.1h0.1c0.1,0,0.2,0,0.3-0.1c0,0,0.1-0.1,0.1-0.1c0,0,0-0.1,0-0.1c0,0,0-0.1-0.1-0.2L109.4,69.3z M109.3,69.1l-0.5-1.3
				l-0.6,1.3H109.3z"/>
		</g>
	</g>
</g>
</svg>
