<svg id="Layer_1" data-name="Layer 1" xmlns="http://www.w3.org/2000/svg" viewBox="0 0 263 167"><defs><style>.cls-1{fill:#fff;}.cls-2{fill:#d66b6b;}</style></defs><title>Artboard 1</title><path class="cls-1" d="M18.26,28.68l8.49-.8L33.09,54.6h.11l1.23-27.44,8.48-.8L46.49,64.2l-5.63.53-2.7-28.65h-.11L36.43,65.14l-5,.47-7-28.24h-.11L27,66l-5.18.49Z"/><path class="cls-1" d="M48.48,23.3,57,23l4.82,27h.11l2.78-27.33,8.51-.32,1.43,38L69,60.57,67.93,31.81h-.11L64.56,60.74l-5,.18L54.15,32.33H54l1.08,28.75-5.21.2Z"/><path class="cls-1" d="M80.22,61.73c-1.54-1.59-2.37-3.93-2.49-7l-.08-2.17,5.64-.21.1,2.6c.09,2.47,1.17,3.65,3.24,3.58a3,3,0,0,0,2.27-1,4.41,4.41,0,0,0,.67-2.94,8,8,0,0,0-1.24-4.16,19.91,19.91,0,0,0-4.18-4.22,24,24,0,0,1-5.37-5.69,12,12,0,0,1-1.69-5.89,9.94,9.94,0,0,1,2-7.06q2.19-2.55,6.53-2.71c2.89-.11,5.09.63,6.58,2.22s2.35,3.92,2.46,7l.06,1.57-5.64.21-.08-2A4.39,4.39,0,0,0,88.14,31a2.76,2.76,0,0,0-2.26-.81q-3,.11-2.85,3.75a7.24,7.24,0,0,0,1.26,3.81A21.65,21.65,0,0,0,88.49,42a22.19,22.19,0,0,1,5.38,5.72A13.11,13.11,0,0,1,95.53,54q.16,4.65-2,7.25C92.09,63,89.81,63.84,86.88,64A8.2,8.2,0,0,1,80.22,61.73Z"/><path class="cls-1" d="M101.06,57.44c-1.58-1.59-2.43-3.93-2.54-7l-.75-20q-.18-4.61,2-7.17c1.46-1.7,3.63-2.6,6.53-2.71s5.13.63,6.71,2.21,2.43,3.93,2.54,7l.12,3.26-5.64.21-.14-3.64c-.09-2.49-1.17-3.69-3.23-3.62s-3,1.36-3,3.86l.78,20.78q.14,3.69,3.23,3.57c2.07-.07,3-1.34,3-3.81L110.41,43l-3,.12-.2-5.43,8.63-.33.46,12.43q.18,4.6-2,7.17c-1.46,1.7-3.63,2.61-6.53,2.72A8.66,8.66,0,0,1,101.06,57.44Z"/><path class="cls-1" d="M119.07,24.16l6-.22,1.43,38-6,.22Z"/><path class="cls-1" d="M136.52,58.75a5.51,5.51,0,0,1-1.3-3.89l-.08-11.55a5.55,5.55,0,0,1,1.25-3.91,5.63,5.63,0,0,1,7.4,0,5.51,5.51,0,0,1,1.3,3.89v2.27h-3.2V43.05c0-1.34-.58-2-1.71-2s-1.68.68-1.67,2l.08,12c0,1.31.58,2,1.7,2s1.69-.67,1.68-2V51.76h3.19v3a5.53,5.53,0,0,1-1.25,3.91,5.63,5.63,0,0,1-7.4,0Z"/><path class="cls-1" d="M148.4,58.66a5.72,5.72,0,0,1-1.32-4L147,38.25h3.38l.11,16.65a2.27,2.27,0,0,0,.46,1.59,1.64,1.64,0,0,0,1.27.49,1.67,1.67,0,0,0,1.27-.5,2.32,2.32,0,0,0,.44-1.61l-.11-16.65h3.25l.11,16.41a5.62,5.62,0,0,1-1.26,4,5.72,5.72,0,0,1-7.49,0Z"/><path class="cls-1" d="M160.25,58.58a5.85,5.85,0,0,1-1.29-4V53.34h3.19V54.8c0,1.39.6,2.08,1.77,2.08a1.71,1.71,0,0,0,1.3-.52,2.43,2.43,0,0,0,.43-1.65,4.39,4.39,0,0,0-.63-2.37,11.39,11.39,0,0,0-2.29-2.46,13.7,13.7,0,0,1-2.94-3.32,6.76,6.76,0,0,1-.85-3.35,5.62,5.62,0,0,1,1.26-4,4.83,4.83,0,0,1,3.8-1.38,4.63,4.63,0,0,1,3.68,1.37,5.8,5.8,0,0,1,1.27,4v.89h-3.2V43a2.49,2.49,0,0,0-.44-1.61,1.52,1.52,0,0,0-1.27-.5c-1.12,0-1.68.7-1.67,2.07a4,4,0,0,0,.64,2.18,12.72,12.72,0,0,0,2.31,2.44,12.81,12.81,0,0,1,2.94,3.33,7.45,7.45,0,0,1,.82,3.53,5.74,5.74,0,0,1-1.28,4.06A4.88,4.88,0,0,1,164,60,4.77,4.77,0,0,1,160.25,58.58Z"/><path class="cls-1" d="M173.53,41.14H170V38.07L180.42,38v3.07h-3.53L177,59.55h-3.37Z"/><path class="cls-1" d="M183.14,58.4a5.62,5.62,0,0,1-1.35-4l-.07-11.31a5.65,5.65,0,0,1,1.29-4,5.83,5.83,0,0,1,7.62,0A5.65,5.65,0,0,1,192,43l.07,11.31a5.6,5.6,0,0,1-1.29,4,5.83,5.83,0,0,1-7.62,0Zm5.54-3.81-.08-11.74c0-1.41-.6-2.12-1.77-2.11s-1.75.72-1.74,2.13l.08,11.74c0,1.42.6,2.12,1.77,2.11S188.69,56,188.68,54.59Z"/><path class="cls-1" d="M194.22,37.93H199l2.25,15.38h.07l2-15.41h4.82l.15,21.51h-3.19L205,43.13h0l-2.34,16.3h-2.83l-2.57-16.27h-.06l.11,16.28h-2.95Z"/><path class="cls-1" d="M210.74,37.81l9.22-.06v3.07h-5.84v5.69h4.64v3.07h-4.64l0,6.61H220v3.07l-9.22.06Z"/><path class="cls-1" d="M221.9,37.74h5a5.17,5.17,0,0,1,3.81,1.19A5.15,5.15,0,0,1,232,42.62v1.32q0,3.35-2.19,4.25v.07a2.64,2.64,0,0,1,1.75,1.49,7.49,7.49,0,0,1,.53,3v3.78a9.08,9.08,0,0,0,.07,1.49,3.92,3.92,0,0,0,.32,1.11H229a4.9,4.9,0,0,1-.26-1c0-.31-.06-.87-.07-1.66V52.53a3.28,3.28,0,0,0-.48-2,2,2,0,0,0-1.65-.57h-1.17l.06,9.21h-3.38Zm4.67,9.19a2,2,0,0,0,1.51-.54,2.4,2.4,0,0,0,.5-1.75V43a2.8,2.8,0,0,0-.43-1.69,1.55,1.55,0,0,0-1.31-.51H225.3v6.14Z"/><path class="cls-2" d="M41.75,135q-4.28-3.63-5.29-11.34L36,120.07l9.42-1.25.58,4.35q.82,6.18,6,5.48a4.89,4.89,0,0,0,3.65-2,7.08,7.08,0,0,0,.67-5,13.56,13.56,0,0,0-2.75-6.78,34.19,34.19,0,0,0-7.67-6.41A40.75,40.75,0,0,1,36,99.77a20.19,20.19,0,0,1-3.77-9.59q-1-7.5,2.26-12.16c2.17-3.1,5.65-5,10.52-5.61s8.57.25,11.38,2.67,4.55,6.21,5.24,11.35L62,89.05,52.5,90.3,52.07,87c-.29-2.16-.92-3.7-1.9-4.58a4.6,4.6,0,0,0-3.92-1q-5,.66-4.17,6.74a12,12,0,0,0,2.7,6.19,36.5,36.5,0,0,0,7.72,6.35q7,4.6,9.92,8.73a22.13,22.13,0,0,1,3.75,10.12q1,7.78-2.27,12.47t-10.64,5.66Q46,138.69,41.75,135Z"/><path class="cls-1" d="M71,68h6.67l5.11,31.33h-5l-.89-6.22v.09h-5.6l-.89,6.13H65.88Zm5.38,21-2.2-15.49h-.09L71.92,88.9Z"/><path class="cls-1" d="M88.68,75.94H83.53V71.46H98.75v4.48H93.6v26.85H88.68Z"/><path class="cls-1" d="M101.12,69.7H106V101h-4.92Z"/><path class="cls-1" d="M110.7,99.45a8.45,8.45,0,0,1-1.84-5.84V91.82h4.66V94c0,2,.85,3,2.55,3a2.38,2.38,0,0,0,1.9-.74,3.51,3.51,0,0,0,.65-2.39,6.68,6.68,0,0,0-.89-3.47,17,17,0,0,0-3.32-3.61A20,20,0,0,1,110.16,82,10,10,0,0,1,109,77.1a8.2,8.2,0,0,1,1.88-5.76,7.13,7.13,0,0,1,5.46-2,6.8,6.8,0,0,1,5.35,2,8.5,8.5,0,0,1,1.82,5.84v1.3H118.8V76.82a3.58,3.58,0,0,0-.63-2.35,2.27,2.27,0,0,0-1.83-.74q-2.46,0-2.46,3a5.85,5.85,0,0,0,.91,3.18,17.73,17.73,0,0,0,3.34,3.58,18.55,18.55,0,0,1,4.25,4.88,10.81,10.81,0,0,1,1.17,5.15,8.4,8.4,0,0,1-1.91,5.91,7.14,7.14,0,0,1-5.52,2.06A6.9,6.9,0,0,1,110.7,99.45Z"/><path class="cls-1" d="M126.54,69.13l13,.14v4.47l-8.11-.08-.09,8.73,6.35.07v4.47l-6.36-.07-.15,13.65-4.92-.05Z"/><path class="cls-1" d="M144.31,67.56l6.67.07L155.74,99h-4.92L150,92.74v.09l-5.59-.06-1,6.12h-4.56Zm5.14,21-2-15.51h-.09L145,88.52Z"/><path class="cls-1" d="M161.31,99.82a8.09,8.09,0,0,1-2.47-5.45L157,77.64a8.08,8.08,0,0,1,1.22-5.86A8.23,8.23,0,0,1,169,70.6a8.11,8.11,0,0,1,2.47,5.45l.36,3.3-4.62.5-.4-3.6c-.21-1.93-1.13-2.8-2.77-2.62s-2.34,1.23-2.13,3.16l1.92,17.4c.2,1.9,1.13,2.75,2.76,2.58s2.34-1.22,2.13-3.12l-.52-4.76,4.63-.51.48,4.41A8,8,0,0,1,172,98.64a8.22,8.22,0,0,1-10.72,1.18Z"/><path class="cls-1" d="M179.31,72.42l-5.15-.06.05-4.48,15.22.17-.05,4.48-5.15-.06-.29,26.86L179,99.27Z"/><path class="cls-1" d="M191.8,69.83h4.92l-.34,31.34-4.92-.06Z"/><path class="cls-1" d="M201.64,99.66a8.15,8.15,0,0,1-1.86-5.84L200,77.35a8.2,8.2,0,0,1,2-5.8,8.51,8.51,0,0,1,11.1.12A8.25,8.25,0,0,1,215,77.51L214.73,94a8.2,8.2,0,0,1-2,5.8,8.51,8.51,0,0,1-11.1-.12Zm8.16-5.42.18-17.1c0-2-.81-3.09-2.51-3.11s-2.57,1-2.59,3.06l-.18,17.1c0,2.06.82,3.1,2.52,3.11S209.78,96.31,209.8,94.24Z"/><path class="cls-1" d="M218.3,68.36l6.18.07,4.58,18.8h.09l.2-18.76h4.39L233.4,99.8h-5.06l-5.66-22.94h-.09l-.24,22.87H218Z"/><path class="cls-1" d="M72.31,135.23a7,7,0,0,1-1.59-4.95V110h4.17v20.57a2.88,2.88,0,0,0,.56,2,2.35,2.35,0,0,0,3.14,0,2.88,2.88,0,0,0,.56-2V110h4v20.27a7,7,0,0,1-1.6,4.95,6.9,6.9,0,0,1-9.24,0Z"/><path class="cls-1" d="M87.94,106.5h6.2c2.16,0,3.74.5,4.72,1.51a6.3,6.3,0,0,1,1.49,4.63v1.63c0,2.77-.91,4.53-2.74,5.26v.08a3.25,3.25,0,0,1,2.15,1.86,9.33,9.33,0,0,1,.63,3.77v4.69a16.18,16.18,0,0,0,.08,1.84,4.49,4.49,0,0,0,.38,1.39H96.58a6.3,6.3,0,0,1-.3-1.21,15.7,15.7,0,0,1-.08-2.06V125a4.15,4.15,0,0,0-.59-2.55,2.49,2.49,0,0,0-2-.72H92.12v11.42H87.94Zm5.71,11.43a2.46,2.46,0,0,0,1.88-.65,3,3,0,0,0,.63-2.17v-2.06a3.42,3.42,0,0,0-.51-2.09,2,2,0,0,0-1.62-.65H92.12v7.62Z"/><path class="cls-1" d="M102.92,111.77h3.68l2.38,18h0l2.38-18h3.35l-3.51,23.15h-4.83Z"/><path class="cls-1" d="M117.68,108.26h11.43v3.81h-7.24v7h5.75v3.81h-5.75v8.19h7.24v3.81H117.68Z"/><path class="cls-1" d="M137.51,124.43l-5.46-16.52h4.8l3.08,10.56H140l3.09-10.56h4.39L142,124.43v12.24h-4.52Z"/><path class="cls-1" d="M215.55,139.73l-.8.5,0-.06c.66-.56,1.31-1.13,2-1.68a8.72,8.72,0,0,0,2.25-3.28,13.67,13.67,0,0,0,.72-4.34c.09-.94.2-1.87.21-2.81a19,19,0,0,0-.16-2.38c-.14-1.24-.32-2.48-.45-3.73a22.22,22.22,0,0,0-1.18-5,21,21,0,0,0-1-2.1c0-.12-.25-.27-.32-.25-.43.18-.52-.14-.68-.44-.55.17-1.11.31-1.66.51-.39.13-.66.87-.71,1.37a1.68,1.68,0,0,1-.42,1,4.15,4.15,0,0,0-.93,2.47c-.08.37.37.79.76.84.13,0,.24.15.37.2a6.88,6.88,0,0,0,1.28.43,7.86,7.86,0,0,1,2.65.64c.5.27.46.67.52,1l-2.11-.34a1.22,1.22,0,0,0-.31,1.12.9.9,0,0,0,.49.63c.85.5,1.66,1.07,2.48,1.62a.36.36,0,0,1,.06.27c-.18.09-.46.26-.53.2-.44-.38-.9-.16-1.34-.09a2.29,2.29,0,0,0-.55.33c.12.14.22.28.34.41s.19.15.34.28l-.94.94.07.36a2.61,2.61,0,0,0-.84,0,.52.52,0,0,0-.29.72c.15.41.24.84.37,1.25,0,.08.12.12.16.2.15.3.31.6.44.91s.1.66.29.81c.69.53.42,1.22.29,1.8a18.65,18.65,0,0,1-.86,2.55,1.36,1.36,0,0,1-1.27,1,3.35,3.35,0,0,0,.24-1.07,3.59,3.59,0,0,0-.51-1l-.56.43c-.24-.43-.57-.19-.88-.09l-1.91.6,0,.19,1.18.69c-.3.16-.55.28-.79.42s-.89.22-.44.81c-.28.3.26.92-.42,1.06-.05,0-.09.15-.1.23,0,.68-.06,1.36-.11,2,0,.12-.08.3-.16.32a4.89,4.89,0,0,1-3.85-.38,9.6,9.6,0,0,1-3-2.78,2.59,2.59,0,0,0-.32-.27c-.27,2.11-.53,4.15-.78,6.19,0,.3-.12.47-.43.51a15.25,15.25,0,0,1-2.39.33,3.69,3.69,0,0,1-1.45-.63c-.68-.38-1.35-.78-2-1.19-.41-.26-.79-.56-1.19-.83-.67-.44-1.36-.84-2-1.31a5.83,5.83,0,0,1-2.12-2.77,19.56,19.56,0,0,0-.85-2.07,5.42,5.42,0,0,1,0-4.7,37.14,37.14,0,0,1,1.85-3.31,18.93,18.93,0,0,1,1-1.83c.84-1.18.85-2.64,1.37-3.91s.3-2.44.56-3.63a11.6,11.6,0,0,1,1.69-4.06,22,22,0,0,1,4.72-5.18,20.61,20.61,0,0,1,6.86-3.64,8.27,8.27,0,0,1,4.19-.36,7.78,7.78,0,0,1,3.71,2.12,1.71,1.71,0,0,0,.63.32,14.09,14.09,0,0,1,2.62,1,5.68,5.68,0,0,1,2.28,2.8c.54,1.37,1.06,2.75,1.53,4.14a15.43,15.43,0,0,1,.66,2.68c.35,2.31.62,4.63.94,6.94.2,1.48.5,2.94.65,4.42a30.07,30.07,0,0,1,0,3.15c0,.21,0,.42,0,.62,0,.41.27.85-.22,1.16,0,0,0,.06,0,.09.27.86-.21,1.6-.38,2.38a23,23,0,0,1-.79,2.81,4.73,4.73,0,0,1-1.4,2.32,2.67,2.67,0,0,0-.61.83c-.57,1-1.72,1.08-2.59,1.58-.48.27-1.31,0-1.95-.13-1.31-.29-1.28-.89-1.3-2.36,0-1.08.11-2.17.17-3.25A1.11,1.11,0,0,0,215.55,139.73Zm-4.13-13.79-.18,0a6.92,6.92,0,0,1-.26-1.18c0-.35.19-.72.18-1.07a11.14,11.14,0,0,0-.17-1.4h-.24a6.66,6.66,0,0,0-.19.77,8.47,8.47,0,0,1-.12.88,5.92,5.92,0,0,0-.43,2.76c0,.11-.06.24-.08.35-.13.73-.48,1.44-.13,2.21a2.42,2.42,0,0,1,.21,1.06c0,.56.16.81.68.56.77-.38,1.06.34,1.61.52a6,6,0,0,1-.73.41,1.3,1.3,0,0,0-.49.47,12.94,12.94,0,0,0-.37,1.27l3.64.59a1.13,1.13,0,0,0,0-1.42,1.8,1.8,0,0,1-.38-.74c-.1-.54-.17-1.08-.71-1.13l-.35-1.73.33-.09a5.32,5.32,0,0,1-.18-.68,1.7,1.7,0,0,0-.72-1.27,3.65,3.65,0,0,1-.56-.76Zm-.69,9a.73.73,0,0,0-1,0,.67.67,0,0,0-.17.89c.16.29.79.23,1.21-.08a1.71,1.71,0,0,0,2.46-1.26l-1.55.2C211.39,134.43,211.08,134.47,210.73,135Zm-1.35.58-.48-.58-.47.55c.14.11.26.29.42.32S209.13,135.68,209.38,135.53Z"/><path class="cls-1" d="M211.42,125.94l.31.42a3.65,3.65,0,0,0,.56.76,1.7,1.7,0,0,1,.72,1.27,5.32,5.32,0,0,0,.18.68l-.33.09.35,1.73c.54.05.61.59.71,1.13a1.8,1.8,0,0,0,.38.74,1.13,1.13,0,0,1,0,1.42l-3.64-.59a12.94,12.94,0,0,1,.37-1.27,1.3,1.3,0,0,1,.49-.47,6,6,0,0,0,.73-.41c-.55-.18-.84-.9-1.61-.52-.52.25-.7,0-.68-.56a2.42,2.42,0,0,0-.21-1.06c-.35-.77,0-1.48.13-2.21,0-.11.1-.24.08-.35a5.92,5.92,0,0,1,.43-2.76,8.47,8.47,0,0,0,.12-.88,6.66,6.66,0,0,1,.19-.77H211a11.14,11.14,0,0,1,.17,1.4c0,.35-.19.72-.18,1.07a6.92,6.92,0,0,0,.26,1.18Z"/><path class="cls-1" d="M210.73,135c.35-.48.66-.52.9-.29l1.55-.2a1.71,1.71,0,0,1-2.46,1.26c-.42.31-1.05.37-1.21.08a.67.67,0,0,1,.17-.89A.73.73,0,0,1,210.73,135Z"/><path class="cls-1" d="M209.38,135.53c-.25.15-.41.31-.53.29s-.28-.21-.42-.32l.47-.55Z"/><path class="cls-1" d="M166.51,116.16c.37-.31.72-.49,1.2-.16.26.18.42-.09.38-.35a3.29,3.29,0,0,0-.68-2c-.21-.23-.23-.36.05-.6s.37,0,.49.16-.08.49.26.15c.12-.12.23,0,.28.19a.45.45,0,0,0,.43.33c.62,0,.66.13.47.71,0,.06,0,.11-.07.16s.32-.1.3.07-.29.47-.49.66c-.18,0-.07-.21-.13-.3a.44.44,0,0,0-.36-.24c-.15,0-.19.14-.23.25a.29.29,0,0,0,.08.4,1.78,1.78,0,0,1,.85,1.21,1.22,1.22,0,0,1,0,.57c0,.09-.15.2,0,.28s.29,0,.42-.07.16-.08.12-.24a6.74,6.74,0,0,0-.16-.78c-.14-.33.05-.46.26-.62s.36-.07.5.12a.24.24,0,0,0,.27.11c.73-.17,1.5,0,2.21-.16.41-.08.8.12,1.23-.12s.81-.1,1.16.36a.55.55,0,0,0,.49.18,13,13,0,0,1,2.49.17c.24,0,.51.08.52.39s.09.44-.22.57-.49.25-.75,0a2,2,0,0,0-1.62-.52,3,3,0,0,0-.67,0c-.3,0-.77-.15-.74.47a.28.28,0,0,1-.4.2.56.56,0,0,0-.67.09c-.14.15,0,.32.06.46s.29.2.52.23a8,8,0,0,1,2.2.56,1.12,1.12,0,0,0,1,.09c.27-.12.25-.19.11-.36s-.18-.43.18-.47a.49.49,0,0,0,.4-.3c.12-.24.39-.25.63-.26s.1.27.29.39c.07-.45-.22-.83-.12-1.27a1,1,0,0,1,.7,1.08c0,.12.11.31-.21.22s-.07.18,0,.26c.21.26.44.5.66.75.08.08.21.16.12.29s-.21.07-.32,0a1.86,1.86,0,0,0-.25-.1c-.63-.14-.73-.05-.73.59a9.68,9.68,0,0,1-.19,1.77,1.2,1.2,0,0,1-.73.89,7.45,7.45,0,0,1-3.11.75,1.31,1.31,0,0,0-.59.14c.24.27.59.28.86.43a5.32,5.32,0,0,1,1.59,1.58c.16.21.34.13.5.22s.24.11.22.25-.19,0-.3.11a2,2,0,0,1,.43,1.24,1.84,1.84,0,0,1-.17.49,1.11,1.11,0,0,0,.1,1,1.32,1.32,0,0,1,.09,1.19.65.65,0,0,0,0,.56,1.75,1.75,0,0,1,0,1.13,3.62,3.62,0,0,1-.36,1.37c-.06.09-.07.2-.19.24s-.31-.37-.37-.24c-.19.36-.25.06-.36,0a3.46,3.46,0,0,1-1.07-1.24c-.06-.12-.11-.24-.34-.18s-.36-.18-.37-.38-.17-.28-.3-.15a2.6,2.6,0,0,1-1.72.66.93.93,0,0,0-.49.27l-.12-.44c.32.17.3-.56.71-.25.18.14.37,0,.4-.26a1.33,1.33,0,0,0-.07-.48c0-.1,0-.23-.16-.24s-.18.08-.22.18-.25.21-.24.48l-.21-.45a.3.3,0,0,0-.32-.12c-.14,0-.27.12-.26.27a2.88,2.88,0,0,0,.2,1.36c0,.07.11.28,0,.23s-.26.33-.36,0-.08-.14-.16,0c-.31.53-.32.52.34,1.14l.2-.34c.18.05.07.18.1.26s.07.21.16.15.19-.25.25,0,.29.32,0,.43c-.13.05-.1.12-.06.21a5.37,5.37,0,0,0,.49,1.13c.14.21,0,.22-.13.29s-.66-.16-.61.37c0,0-.07.06-.1.06-.48,0-.26.38-.3.56s.13.35.15.55.09.16.15.11.25.06.38.1c.35.13.42.17,0,.33-.11.05,0,.22,0,.33s.12.24.29.22c.36,0,.7-.06.86.37a.09.09,0,0,0,.15,0c.14-.13-.06-.24,0-.46a1.85,1.85,0,0,1,.69.79c.28.59.27.59.88.34l.15,0c-.08.37-.62.59-.34,1a.4.4,0,0,0-.59-.07c-.12.09-.09.31,0,.48.08-.12,0-.35.28-.26s.22,0,.25-.17c.19,0,.37-.13.59,0-.24.18-.43.35-.41.66,0,.12-.11.2-.24.23a20.23,20.23,0,0,1-4.29.77,12.32,12.32,0,0,1-2.43.05,6.28,6.28,0,0,1-2.88-1.22,11.31,11.31,0,0,1-2.37-2.16,2.86,2.86,0,0,1-.43-.73,18.39,18.39,0,0,0-2.13-3.5,5.79,5.79,0,0,1-.86-1.51c-.06-.22-.14-.38-.43-.16s-.4,0-.55-.18a6.42,6.42,0,0,1-1.14-1.59,24.42,24.42,0,0,1-1.76-3.55,4.62,4.62,0,0,1-.5-2.42c.14-.91.38-1.14,1.27-1.3.48-.09.19-.52.13-.62-.66-1-.47-2.18-.49-3.27a18.77,18.77,0,0,1,.36-4.67,7.87,7.87,0,0,1,.93-2.6,14.37,14.37,0,0,0,.63-1.31,6,6,0,0,1,1.41-1.76c.27-.24.65-.32.85-.66a.19.19,0,0,1,.31,0c.12.14,0,.24-.07.35a5.29,5.29,0,0,0-1,1.26,1.39,1.39,0,0,0-.21.54.6.6,0,0,0,.51-.43c0-.38.31-.45.58-.56a5.49,5.49,0,0,0,.94-.66,3,3,0,0,1,1.36-.53,1.51,1.51,0,0,0,.91-.44c.19-.2.56-.17.82-.35.09.28.47.25.57.46s.45.5.41,1a2.55,2.55,0,0,0,.23,2c.16.21.09.55.25.8a.61.61,0,0,1,0,.13c.05.2.43.15.35.4-.17.6-.08,1.27-.48,1.8-.15.19-.21.27.07.46a1.42,1.42,0,0,1,.58.93c-.43.15.12.39-.05.56.08.07.05.29.22.21a.23.23,0,0,0,.11-.34A3.35,3.35,0,0,0,166.51,116.16Zm3.84,3.77c.16-.47-.15-1,.09-1.43a1.7,1.7,0,0,0-.09,1.43c.17.39.33.79.52,1.18a2.49,2.49,0,0,0,1,1.35,6,6,0,0,0,2.61.35,9.35,9.35,0,0,0,3.09-.58,1.37,1.37,0,0,0,.85-1c.13-.43-.08-.5-.44-.6-1-.3-1.84.14-2.75.27-.09,0-.19,0-.19.16a.22.22,0,0,0,.21.2,2.2,2.2,0,0,1,.75.33c-.26.56-.79.63-1.26.78-.16,0-.38.2-.52.06-.43-.4-1-.25-1.5-.37s-.77-.13-1-.54c-.06-.13-.15-.3-.32-.28s-.32-.15-.42-.32a3.34,3.34,0,0,1-.43-.84C170.56,120,170.47,120,170.35,119.93Zm2.72,5.14a1.25,1.25,0,0,0-.72-1.07.69.69,0,0,1-.39-.41,1.23,1.23,0,0,0-.45-.6,8.21,8.21,0,0,1-1.6-1.68,1.09,1.09,0,0,0-.46-.42c-.11,0-.16-.27-.32-.16a.44.44,0,0,0-.22.46,1.86,1.86,0,0,1,0,1,2.37,2.37,0,0,0,.19,1.88c.37.81.77,1.61,1.17,2.41a.56.56,0,0,1,.07.47c-.1.29,0,.37.28.29s.21,0,.19.13.14.32.31.4.28.13.24.35a.46.46,0,0,0,.16.36c.22.18.22.3-.07.43s-.27.41-.28.63.25.05.38.09c.48.16,1-.05,1.46.09.16,0,.21-.08.3-.2s.22-.51.5-.15c.11.14.14,0,.21,0,.3-.11.45-.41.68-.61.07-.06.51-.55-.15-.6-.08,0-.19-.13-.15-.19.21-.34-.13-.43-.24-.65s-.45-.45-.58-.74a.55.55,0,0,0-.83-.3c-.44.32-1,.3-1.43.71-.2.2-.34,0-.48-.16s-.15-.22,0-.3a2.18,2.18,0,0,1,1.49-.62C172.85,126,173,125.81,173.07,125.07Zm1.6-5c.25.29.49.08.71.08a11.81,11.81,0,0,0,1.42.15,2.12,2.12,0,0,1,1.73.35,5.53,5.53,0,0,0,0-1.4c-.1.8-.15.8-1,.7-.34,0-.65-.19-1-.22A4.14,4.14,0,0,0,174.67,120.06ZM171,131.82c.36,0,.59-.12.53-.31s.09-.72-.32-.79-.46.25-.5.51S170.66,131.82,171,131.82Zm-13.58-9.12c.26-.61-.16-1.25.1-1.86A2,2,0,0,0,157.39,122.7ZM170,131.18c-.19.11-.34.21-.37.37s.12.29.3.32.29-.06.27-.21A2.13,2.13,0,0,0,170,131.18Zm6.39-10.64c-.33-.07-.65-.47-1.09-.07A2.16,2.16,0,0,0,176.39,120.54Z"/><path class="cls-1" d="M172.25,106.53c.55.32,1.17.07,1.7.23a4.2,4.2,0,0,1,1.29.78c.95.74,1.8,1.61,2.69,2.41a4.87,4.87,0,0,1,1.37,2.11,3.3,3.3,0,0,0,.39.8c.36.55.38,1.23.7,1.79.05.1.05.27-.09.3s-.2-.11-.2-.25c0-.61-.45-1-.66-1.54s-.61-1-.8-1.61c-.07-.2-.31-.33-.46-.47a3.35,3.35,0,0,0-.94-.78c-.23-.09-.23-.32-.38-.45a17,17,0,0,0-2.55-1.92,17.74,17.74,0,0,0-2-1c-.1,0-.24-.08-.21-.24S172.2,106.57,172.25,106.53Z"/><path class="cls-1" d="M179.33,130.21c.3.19.35.36.28.57a8.88,8.88,0,0,0-.31,2,3.36,3.36,0,0,1-.57,1.3,15.52,15.52,0,0,1-.92,1.76c-.09.13-.19.3-.33.24s-.1-.27-.06-.4a11.13,11.13,0,0,1,.9-2.6,4.92,4.92,0,0,0,.57-1.64c0-.12,0-.3.2-.28s.15-.06.12-.1C179,130.72,179.43,130.56,179.33,130.21Z"/><path class="cls-1" d="M183,125.53c-.09-.56-.05-1.12-.17-1.67a4,4,0,0,0-.86-1.65.59.59,0,0,1,0-.88,1.27,1.27,0,0,1,.55-.29c.45-.1.62,0,.76.46a4.75,4.75,0,0,1,0,2.67A5.77,5.77,0,0,0,183,125.53Z"/><path class="cls-1" d="M182.4,124.78a2.94,2.94,0,0,0,0,.52.64.64,0,0,1-.52.64c-.11,0-.23.12-.33,0s0-.19,0-.29a2.64,2.64,0,0,0-.35-1.71,1.38,1.38,0,0,1-.14-.27.2.2,0,0,1,.06-.19c.07-.06.14,0,.18.06a1.65,1.65,0,0,0,.8.62C182.36,124.27,182.4,124.51,182.4,124.78Z"/><path class="cls-1" d="M171.24,106.39a1.7,1.7,0,0,1-1.35-.09.41.41,0,0,0-.49.13c-.18.24-.37.19-.5,0s-.5-.28-.77-.39c-.08,0-.19.22-.21,0s.12-.19.25-.19a5.58,5.58,0,0,1,1.16,0A6,6,0,0,1,171.24,106.39Z"/><path class="cls-1" d="M165.08,106.94c.52,0,.5-.29.29-.61l1-.32c.29-.09.45,0,.52.33s-.19.29-.35.33a.68.68,0,0,1-.51,0c-.21-.09-.35.12-.44.28S165.27,107.16,165.08,106.94Z"/><path class="cls-1" d="M180.88,118.17a1.48,1.48,0,0,0,.12,1,3,3,0,0,1,.35.82c0,.11.13.28,0,.28s-.42.1-.46-.14a5.45,5.45,0,0,1-.26-1.45c0-.21,0-.43.31-.45Z"/><path class="cls-1" d="M167,113.75c-.22-.31-.42-.62-.26-1,.06-.16,0-.44.33-.35s.26.3.17.5A2.45,2.45,0,0,0,167,113.75Z"/><path class="cls-1" d="M180.89,118.18c-.12-.26-.24-.51-.35-.77,0-.1-.1-.23,0-.32s.23,0,.31.11c.47.41.47.74,0,1Z"/><path class="cls-1" d="M180.59,115.68l.09.15c.09.18.24.35.1.57,0,0-.1,0-.11,0C180.57,116.2,180.37,116,180.59,115.68Z"/></svg>