<svg id="Layer_1" data-name="Layer 1" xmlns="http://www.w3.org/2000/svg" xmlns:xlink="http://www.w3.org/1999/xlink" viewBox="0 0 263 167"><defs><style>.cls-1{fill:none;}.cls-2{clip-path:url(#clip-path);}.cls-3{fill:#333;}.cls-4{fill:#d66b6b;}</style><clipPath id="clip-path"><path class="cls-1" d="M19.4-60s10.86,8.63,13.7,5.19A24.6,24.6,0,0,0,37-60.85S47.61-47.76,52.61-47.46s27-3.17,35-14.13c0,0,0,19.11,2.59,20.67s18,3.13,18,3.13L125-76.43l3-94.95L83-196.62-.48-184.74,14.2-97.94Z"/></clipPath></defs><title>Artboard 5 copy 3export</title><g class="cls-2"><path class="cls-3" d="M141.91,208.26c1.27-9.95,2.38-19.9,3.06-29.9.33-4.9.84-9.88.36-14.74a157.64,157.64,0,0,1-.25-21.62c.26-6.42,1-12.83,1.86-19.22,1.24-9.78,2.64-19.54,4.09-29.3.83-5.61,1.9-11.18,2.83-16.78.14-.83.57-1.7,0-2.55h0c.78-3,.35-6.09,1.15-9,.88-3.2.42-6.45.81-9.66.59-4.91,0-9.85-.12-14.77-.07-4.52-.33-9-.5-13.57a31.4,31.4,0,0,0-2.67-16.84A20.75,20.75,0,0,0,138.3-1.6h0C135-3.08,131.41-3.11,128-3.89c-.84.1-2.1-1.55-2.47.58h0a4.47,4.47,0,0,1,.06,2.38h0c-.51,1,0,2.42-1.11,3.27,0-.31.09-.62.13-.92.62-2.19.16-4.45.41-6.63a3.23,3.23,0,0,0-2-3.56c-1.67-.83-3.65-2.51-5.17-1.86a14.55,14.55,0,0,0-5.43,4.7A36.37,36.37,0,0,0,106.7,5.55c-.88,2.9-3.29,5.13-4.28,8.06a.81.81,0,0,1-1.13.57c-.44-.19-.5-.56-.21-1,1.59-2.24,1-5.18,2.44-7.49,1.74-2.89,2-6.36,3.75-9.3,1.44-2.36,3-4.65,4.27-7.13,1.42-2.9,1-3.59-2-4.5-.34-.1-.59-.52-.87-.8h0a10.84,10.84,0,0,0-3.42-3.14c-2.65-1.6-5.86-2.23-8.08-4.61a1.17,1.17,0,0,0-2.1.67c-.12,1.25-.88,1.65-1.61,2.38-1.38,1.4-3,2.93-3.52,4.7-1,3.37-3.87,5-6,7.05A13.24,13.24,0,0,1,77-5.88c-.51.07-1,1.17-1.48.14S76.1-7,76.75-7.07c1.84-.3,3.68-1.27,4.3-2.68C82.91-14,86.61-16.85,88.57-21c1.18-2.51-.14-4-.82-5.76-.46-1.2-1.37-3-3.56-2,.55-2.92-.34-4.1-3-4.71-1.44-.32-3.06-.05-4.3-1.16l1.86.25,7.6,1.31h0l1.79.4,4.52,3.92c-.25-2.91-2.65-3.85-3.73-5.72h0l.66-.5a1.68,1.68,0,0,0-.74-1.86A6.46,6.46,0,0,1,86.86-42c0-2.78.1-5.56-.08-8.33s1.12-5.15.82-7.8l.25-1.44-.09.13a.51.51,0,0,1,.09-.13c.94-1.21,1.73-2.58,3.35-3.2a2.45,2.45,0,0,1,0,.27,2.83,2.83,0,0,1,.65-.54A2.8,2.8,0,0,1,93-64.22a3.15,3.15,0,0,1,.9-1.44,7.64,7.64,0,0,1,1.17-2.24.44.44,0,0,0,0-.4l.19-.1A25,25,0,0,0,99-75.22a7.32,7.32,0,0,1,.47-1.46L101-78.51a13.45,13.45,0,0,0,.1,4.21l-.08.08c-.47,1.6-.16,3.31-.66,4.91l-.17.12a20.87,20.87,0,0,1-2.89,8,1.75,1.75,0,0,0,.22,2,2.06,2.06,0,0,0,.63.84c-.39,2.67-2.56,4.28-4.15,6.21a1.58,1.58,0,0,1-.29.29c0,.1,0,.2,0,.3a2.84,2.84,0,0,1-.85,1.6,36.9,36.9,0,0,1-1.16,5.18c-.06.19-.13.38-.2.58-.08.78-.14,1.55-.15,2.33a2.15,2.15,0,0,0,.58.38c.47.13.38-.2.39-.51,0-1.6.83-.75,1.45-.48a.49.49,0,0,0,0,.46c3.19,1.07,6.48.53,9.74.57.85,0,1.84-.21,2-1.35.45-3.82,1.82-7.64-.53-11.38a7.49,7.49,0,0,1-1-5h0c-.16-2.77-2.08-5.22-1.52-8.13.47,0,.84-.29.77-.71-.33-2.29.68-4.26,1.32-6.34.78-2.56,1.3-5.2,1.93-7.8h0c4-4.73,5.21-10.77,7.78-16.16a18.44,18.44,0,0,0,3.54-8c.25-1.22.22-2.41-1-3.16-1.65-.23-2.19-.8-.61-2h0c.7-.18.92-.68,1.18-1.32,1.42-3.42,1.22-7,1.27-10.58a107.36,107.36,0,0,0-1.23-20.18,1.16,1.16,0,0,0-.2-1.57h0c-.4-1.5-.81-3-1.21-4.5h0a4.89,4.89,0,0,0-1-2.7h0c-.14-.31-.29-.61-.43-.92a57.9,57.9,0,0,0-4.28-9.38,36.71,36.71,0,0,0-8-6.64c-4-2.55-8.11-5.06-13.16-5a3.56,3.56,0,0,1-3.46-2,2.62,2.62,0,0,0-3.68-1.13c-.6.26-1.23.35-1.82.58-1.79.29-3.47-.88-5.28-.39-4.77-1.29-9.83-1.79-14.3,0-4.2,1.69-8.6,3.25-12.38,6.05a48.42,48.42,0,0,0-13,14.68,1.35,1.35,0,0,0-.15.26,67.57,67.57,0,0,0-6.83,16.87c-1.35,5.44-1.07,11.07-1.91,16.57a44.72,44.72,0,0,1-.61,5.35c-.15.52-.34,1.2.22,1.56,1.5,1,1.6,2.59,2,4.06a30.89,30.89,0,0,1,.1,5.93,65.6,65.6,0,0,0-.17,16.21c.55,4.41,1.09,9-1.12,13.22h0C26-75,24.66-73.73,24.58-72a11.55,11.55,0,0,1-1.9,5.5c-1.62,2.71-3.16,5.51-2.3,8.89h0a3.11,3.11,0,0,0,2.35,2.71c2.6.84,5.18,1.45,8,.53,3.07-1,4.36.22,3.58,3.29a13.86,13.86,0,0,0-.43,5h0l-2.47,1h0c-1.49-.3-2.56.53-3.66,1.31h0a39.42,39.42,0,0,1-6.38,3.32h0c-.39.06-.78.08-1.16.17-3.18.82-5.9,2.76-9.15,3.55-1.77.43-3.58.34-5.29.89-1.56.5-3.11,2.48-4.58-.25-.21-.39-1.34-.33-2-.38-.95-.07-1.92,0-2.86-.09-3.25-.47-6.32-.22-9,2a2.26,2.26,0,0,1-2,.49c-7.25-1.1-14.25.47-21.13,2.36A19.74,19.74,0,0,0-48-22.8h0a19.68,19.68,0,0,0-2.66,4.51C-54.19-9.63-57-.71-59.61,8.22-64.21,23.81-66.14,40-68.67,56c-2.1,13.33-4.16,26.66-8.13,39.61-.51,1.66-1.4,3.21-1.38,5h0l0,.48a82.37,82.37,0,0,0-5.4,13.54h0a4,4,0,0,0-.55.76,222.19,222.19,0,0,0-8.63,26.9h0a9.67,9.67,0,0,0-.55,1.28,217.6,217.6,0,0,0-4.92,25.14c-2.06,16.31-4,32.64-6.63,48.88-.74,4.62-1,9.37-2.83,13.78l4.26.74,13.71,2.38,3.78.66.48.08.47.08,2.36.41,200.94,34.93.48.08,3.31.57,6.14,1.07A203.19,203.19,0,0,0,133,252.17c1.3-6.21,2.81-12.39,4-18.63C138.62,225.11,140.82,216.83,141.91,208.26Z"/></g><path class="cls-3" d="M18.26,28.68l8.49-.8L33.09,54.6h.11l1.23-27.44,8.48-.8L46.49,64.2l-5.63.53-2.7-28.65h-.11L36.43,65.14l-5,.47-7-28.24h-.11L27,66l-5.18.49Z"/><path class="cls-3" d="M48.48,23.3,57,23l4.82,27h.11l2.78-27.33,8.51-.32,1.43,38L69,60.57,67.93,31.81h-.11L64.56,60.74l-5,.18L54.15,32.33H54l1.08,28.75-5.21.2Z"/><path class="cls-3" d="M80.22,61.73c-1.54-1.59-2.37-3.93-2.49-7l-.08-2.17,5.64-.21.1,2.6c.09,2.47,1.17,3.65,3.24,3.58a3,3,0,0,0,2.27-1,4.4,4.4,0,0,0,.67-2.94,8,8,0,0,0-1.24-4.16,20,20,0,0,0-4.18-4.22,24.16,24.16,0,0,1-5.37-5.69,12,12,0,0,1-1.69-5.89,9.93,9.93,0,0,1,2-7.06q2.19-2.55,6.53-2.71t6.58,2.22c1.52,1.59,2.35,3.92,2.46,7l.06,1.57-5.64.21-.08-2a4.38,4.38,0,0,0-.86-2.82,2.74,2.74,0,0,0-2.26-.81q-3,.11-2.85,3.75a7.24,7.24,0,0,0,1.26,3.81,21.49,21.49,0,0,0,4.2,4.19,22.23,22.23,0,0,1,5.38,5.72A13.12,13.12,0,0,1,95.53,54c.11,3.1-.56,5.52-2,7.25S89.81,63.84,86.88,64,81.77,63.32,80.22,61.73Z"/><path class="cls-3" d="M101.06,57.44c-1.58-1.59-2.43-3.93-2.54-7l-.75-20q-.18-4.61,2-7.17c1.46-1.7,3.63-2.6,6.53-2.71s5.13.63,6.71,2.21,2.43,3.93,2.54,7l.12,3.26-5.64.21-.14-3.64q-.14-3.73-3.23-3.62c-2.06.07-3,1.36-3,3.86l.78,20.78q.14,3.69,3.23,3.57c2.07-.07,3-1.34,3-3.81L110.41,43l-3,.12-.2-5.43,8.63-.33.46,12.43q.18,4.6-2,7.17c-1.46,1.7-3.63,2.61-6.53,2.72S102.64,59,101.06,57.44Z"/><path class="cls-3" d="M119.07,24.16l6-.22,1.43,38-6,.22Z"/><path class="cls-3" d="M136.52,58.75a5.5,5.5,0,0,1-1.3-3.89l-.08-11.55a5.55,5.55,0,0,1,1.25-3.91,5.63,5.63,0,0,1,7.4,0,5.5,5.5,0,0,1,1.3,3.89l0,2.27-3.2,0V43.05c0-1.34-.58-2-1.71-2s-1.68.68-1.67,2l.08,12c0,1.31.58,2,1.7,2s1.69-.67,1.68-2l0-3.29,3.19,0,0,3a5.51,5.51,0,0,1-1.25,3.91,5.63,5.63,0,0,1-7.4,0Z"/><path class="cls-3" d="M148.4,58.66a5.71,5.71,0,0,1-1.32-4L147,38.25l3.38,0,.11,16.65a2.29,2.29,0,0,0,.46,1.59,1.61,1.61,0,0,0,1.27.49,1.67,1.67,0,0,0,1.27-.5,2.33,2.33,0,0,0,.44-1.61l-.11-16.65,3.25,0,.11,16.41a5.64,5.64,0,0,1-1.26,4,5.72,5.72,0,0,1-7.49,0Z"/><path class="cls-3" d="M160.25,58.58a5.9,5.9,0,0,1-1.29-4V53.34l3.19,0V54.8c0,1.39.6,2.08,1.77,2.08a1.68,1.68,0,0,0,1.3-.52,2.42,2.42,0,0,0,.43-1.65,4.42,4.42,0,0,0-.63-2.37,11.27,11.27,0,0,0-2.29-2.46,13.64,13.64,0,0,1-2.94-3.32,6.75,6.75,0,0,1-.85-3.35,5.64,5.64,0,0,1,1.26-4A4.84,4.84,0,0,1,164,37.83a4.64,4.64,0,0,1,3.68,1.37,5.81,5.81,0,0,1,1.27,4v.89l-3.2,0V43a2.48,2.48,0,0,0-.44-1.61,1.54,1.54,0,0,0-1.27-.5c-1.12,0-1.68.7-1.67,2.07a4.07,4.07,0,0,0,.64,2.18,12.55,12.55,0,0,0,2.31,2.44,12.69,12.69,0,0,1,2.94,3.33,7.42,7.42,0,0,1,.82,3.53,5.74,5.74,0,0,1-1.28,4.06A4.88,4.88,0,0,1,164,60,4.78,4.78,0,0,1,160.25,58.58Z"/><path class="cls-3" d="M173.53,41.14l-3.54,0,0-3.07L180.42,38l0,3.07-3.53,0L177,59.55l-3.37,0Z"/><path class="cls-3" d="M183.14,58.4a5.63,5.63,0,0,1-1.35-4l-.07-11.31a5.65,5.65,0,0,1,1.29-4,5.84,5.84,0,0,1,7.62,0A5.65,5.65,0,0,1,192,43l.07,11.31a5.6,5.6,0,0,1-1.29,4,5.84,5.84,0,0,1-7.62,0Zm5.54-3.81-.08-11.74c0-1.41-.6-2.12-1.77-2.11s-1.75.72-1.74,2.13l.08,11.74c0,1.42.6,2.12,1.77,2.11S188.69,56,188.68,54.59Z"/><path class="cls-3" d="M194.22,37.93l4.82,0,2.25,15.38h.07l2-15.41,4.82,0,.15,21.51-3.19,0-.12-16.28H205l-2.34,16.3-2.83,0-2.57-16.27h-.06l.11,16.28-2.95,0Z"/><path class="cls-3" d="M210.74,37.81l9.22-.06,0,3.07-5.84,0,0,5.69,4.64,0,0,3.07-4.64,0,.05,6.61,5.84,0,0,3.07-9.22.06Z"/><path class="cls-3" d="M221.9,37.74l5,0a5.17,5.17,0,0,1,3.81,1.19A5.12,5.12,0,0,1,232,42.62v1.32q0,3.35-2.19,4.25v.07a2.64,2.64,0,0,1,1.75,1.49,7.68,7.68,0,0,1,.53,3l0,3.78c0,.61,0,1.11.07,1.49a3.79,3.79,0,0,0,.32,1.11l-3.44,0a5.31,5.31,0,0,1-.26-1c0-.31-.06-.87-.07-1.66l0-3.94a3.3,3.3,0,0,0-.48-2,2,2,0,0,0-1.65-.57h-1.17l.06,9.21-3.38,0Zm4.67,9.19a2,2,0,0,0,1.51-.54,2.41,2.41,0,0,0,.5-1.75V43a2.77,2.77,0,0,0-.43-1.69,1.56,1.56,0,0,0-1.31-.51H225.3l0,6.14Z"/><path class="cls-4" d="M41.75,135q-4.28-3.63-5.29-11.34L36,120.07l9.42-1.25.58,4.35q.83,6.18,6,5.48a4.88,4.88,0,0,0,3.65-2c.75-1.12,1-2.79.67-5a13.52,13.52,0,0,0-2.75-6.78,34.25,34.25,0,0,0-7.67-6.41c-4.59-3.07-7.89-6-9.91-8.69a20.18,20.18,0,0,1-3.77-9.59c-.66-5,.09-9.06,2.26-12.16S40.13,73.05,45,72.41s8.57.25,11.38,2.67,4.55,6.21,5.24,11.35l.35,2.62L52.5,90.3,52.07,87c-.29-2.16-.92-3.7-1.9-4.58a4.62,4.62,0,0,0-3.92-1q-5,.66-4.17,6.74a12.08,12.08,0,0,0,2.7,6.19,36.7,36.7,0,0,0,7.72,6.35q7,4.6,9.92,8.73a22.13,22.13,0,0,1,3.75,10.12q1,7.78-2.27,12.47t-10.64,5.66C48.43,138.35,44.59,137.45,41.75,135Z"/><path class="cls-3" d="M71,68h6.67l5.11,31.33H77.83l-.89-6.22v.09h-5.6l-.89,6.13H65.88Zm5.38,21-2.2-15.49h-.09L71.92,88.9Z"/><path class="cls-3" d="M88.68,75.94H83.53V71.46H98.75v4.48H93.6v26.85H88.68Z"/><path class="cls-3" d="M101.12,69.7H106V101h-4.92Z"/><path class="cls-3" d="M110.7,99.45a8.42,8.42,0,0,1-1.84-5.84V91.82h4.66V94c0,2,.85,3.05,2.55,3.05a2.39,2.39,0,0,0,1.9-.74,3.54,3.54,0,0,0,.65-2.39,6.71,6.71,0,0,0-.89-3.47,16.91,16.91,0,0,0-3.32-3.61A20,20,0,0,1,110.16,82a10,10,0,0,1-1.21-4.9,8.2,8.2,0,0,1,1.88-5.76,7.11,7.11,0,0,1,5.46-2,6.8,6.8,0,0,1,5.35,2,8.51,8.51,0,0,1,1.82,5.84v1.3H118.8V76.82a3.59,3.59,0,0,0-.63-2.35,2.27,2.27,0,0,0-1.83-.74q-2.46,0-2.46,3a5.9,5.9,0,0,0,.91,3.18,17.64,17.64,0,0,0,3.34,3.58,18.5,18.5,0,0,1,4.25,4.88,10.78,10.78,0,0,1,1.17,5.15,8.4,8.4,0,0,1-1.91,5.91,7.16,7.16,0,0,1-5.52,2.06A6.91,6.91,0,0,1,110.7,99.45Z"/><path class="cls-3" d="M126.54,69.13l13,.14,0,4.47-8.11-.08-.09,8.73,6.35.07,0,4.47-6.36-.07-.15,13.65-4.92-.05Z"/><path class="cls-3" d="M144.31,67.56l6.67.07L155.74,99l-4.92,0L150,92.74v.09l-5.59-.06-1,6.12-4.56,0Zm5.14,21-2-15.51h-.09L145,88.52Z"/><path class="cls-3" d="M161.31,99.82a8.09,8.09,0,0,1-2.47-5.45L157,77.64a8.1,8.1,0,0,1,1.22-5.86A8.23,8.23,0,0,1,169,70.6a8.11,8.11,0,0,1,2.47,5.45l.36,3.3-4.62.5-.4-3.6c-.21-1.93-1.13-2.8-2.77-2.62s-2.34,1.23-2.13,3.16l1.92,17.4c.2,1.9,1.13,2.75,2.76,2.58s2.34-1.22,2.13-3.12l-.52-4.76,4.63-.51.48,4.41A8,8,0,0,1,172,98.64a8.23,8.23,0,0,1-10.72,1.18Z"/><path class="cls-3" d="M179.31,72.42l-5.15-.06.05-4.48,15.22.17-.05,4.48-5.15-.06-.29,26.86L179,99.27Z"/><path class="cls-3" d="M191.8,69.83l4.92,0-.34,31.34-4.92-.06Z"/><path class="cls-3" d="M201.64,99.66a8.16,8.16,0,0,1-1.86-5.84L200,77.35a8.2,8.2,0,0,1,2-5.8,8.51,8.51,0,0,1,11.1.12,8.23,8.23,0,0,1,1.87,5.84L214.73,94a8.21,8.21,0,0,1-2,5.8,8.51,8.51,0,0,1-11.1-.12Zm8.16-5.42.18-17.1c0-2-.81-3.09-2.51-3.11s-2.57,1-2.59,3.06l-.18,17.1c0,2.06.82,3.1,2.52,3.11S209.78,96.31,209.8,94.24Z"/><path class="cls-3" d="M218.3,68.36l6.18.07,4.58,18.8h.09l.2-18.76,4.39,0-.34,31.33-5.06,0-5.66-22.94h-.09l-.24,22.87-4.39,0Z"/><path class="cls-3" d="M72.31,135.23a7,7,0,0,1-1.59-4.95V110h4.17v20.57a2.91,2.91,0,0,0,.56,2,2.35,2.35,0,0,0,3.14,0,2.91,2.91,0,0,0,.56-2V110h4v20.27a7,7,0,0,1-1.6,4.95A6,6,0,0,1,76.94,137,6,6,0,0,1,72.31,135.23Z"/><path class="cls-3" d="M87.94,106.5h6.2c2.16,0,3.74.5,4.72,1.51a6.3,6.3,0,0,1,1.49,4.63v1.63q0,4.16-2.74,5.26v.08a3.24,3.24,0,0,1,2.15,1.86,9.39,9.39,0,0,1,.63,3.77v4.69a15.39,15.39,0,0,0,.08,1.84,4.44,4.44,0,0,0,.38,1.39H96.58a6.1,6.1,0,0,1-.3-1.21,16.23,16.23,0,0,1-.08-2.06V125a4.15,4.15,0,0,0-.59-2.55,2.5,2.5,0,0,0-2-.72H92.12v11.42H87.94Zm5.71,11.43a2.47,2.47,0,0,0,1.88-.65,3,3,0,0,0,.63-2.17v-2.06a3.4,3.4,0,0,0-.51-2.09,2,2,0,0,0-1.62-.65H92.12v7.62Z"/><path class="cls-3" d="M102.92,111.77h3.68l2.38,18H109l2.38-18h3.35l-3.51,23.15h-4.83Z"/><path class="cls-3" d="M117.68,108.26h11.43v3.81h-7.24v7h5.75v3.81h-5.75v8.19h7.24v3.81H117.68Z"/><path class="cls-3" d="M137.51,124.43l-5.46-16.52h4.8l3.08,10.56H140l3.09-10.56h4.39L142,124.43v12.24h-4.52Z"/><image width="500" height="500" transform="translate(191.5 99.14) rotate(10.62) scale(0.09)" xlink:href="../../Documents/TreasureHuntMMSGI/treasurehunt/public/face-classification/Sales/Tissa.png"/><image width="500" height="500" transform="translate(146.36 106.61) rotate(-7.8) scale(0.08)" xlink:href="../../Documents/TreasureHuntMMSGI/treasurehunt/public/face-classification/Head/Richard.png"/></svg>