<?xml version="1.0" encoding="utf-8"?>
<!-- Generator: Adobe Illustrator 23.0.0, SVG Export Plug-In . SVG Version: 6.00 Build 0)  -->
<svg version="1.1" id="Layer_1" xmlns="http://www.w3.org/2000/svg" xmlns:xlink="http://www.w3.org/1999/xlink" x="0px" y="0px"
	 viewBox="0 0 263 167" style="enable-background:new 0 0 263 167;" xml:space="preserve">
<style type="text/css">
	.st0{fill:#FFFFFF;}
	.st1{fill:#D66B6B;}
</style>
<title>Artboard 5 copy 3export</title>
<path class="st0" d="M18.3,28.7l8.5-0.8l6.3,26.7h0.1l1.2-27.4l8.5-0.8l3.6,37.8l-5.6,0.5l-2.7-28.7H38l-1.6,29.1l-5,0.5l-7-28.2
	h-0.1L27,66l-5.2,0.5L18.3,28.7z"/>
<path class="st0" d="M48.5,23.3L57,23l4.8,27h0.1l2.8-27.3l8.5-0.3l1.4,38L69,60.6l-1.1-28.8h-0.1l-3.3,28.9l-5,0.2l-5.4-28.6H54
	l1.1,28.8l-5.2,0.2L48.5,23.3z"/>
<path class="st0" d="M80.2,61.7c-1.5-1.6-2.4-3.9-2.5-7l-0.1-2.2l5.6-0.2l0.1,2.6c0.1,2.5,1.2,3.7,3.2,3.6c0.9,0,1.7-0.4,2.3-1
	c0.6-0.9,0.8-1.9,0.7-2.9c0-1.5-0.5-2.9-1.2-4.2c-1.2-1.6-2.6-3-4.2-4.2c-2.1-1.6-3.9-3.5-5.4-5.7c-1.1-1.8-1.6-3.8-1.7-5.9
	c-0.3-2.5,0.5-5,2-7.1c1.5-1.7,3.6-2.6,6.5-2.7c2.9-0.1,5.1,0.6,6.6,2.2c1.5,1.6,2.3,3.9,2.5,7l0.1,1.6l-5.6,0.2l-0.1-2
	c0-1-0.3-2-0.9-2.8c-0.6-0.6-1.4-0.9-2.3-0.8c-2,0.1-2.9,1.3-2.8,3.8c0.1,1.4,0.5,2.7,1.3,3.8c1.2,1.6,2.6,3,4.2,4.2
	c2.1,1.6,3.9,3.5,5.4,5.7c1.1,1.9,1.6,4.1,1.7,6.3c0.1,3.1-0.6,5.5-2,7.3s-3.7,2.6-6.7,2.8C83.9,64.2,81.8,63.3,80.2,61.7z"/>
<path class="st0" d="M101.1,57.4c-1.6-1.6-2.4-3.9-2.5-7l-0.8-20c-0.1-3.1,0.5-5.5,2-7.2c1.5-1.7,3.6-2.6,6.5-2.7s5.1,0.6,6.7,2.2
	s2.4,3.9,2.5,7l0.1,3.3l-5.6,0.2l-0.1-3.6c-0.1-2.5-1.2-3.7-3.2-3.6c-2.1,0.1-3,1.4-3,3.9l0.8,20.8c0.1,2.5,1.2,3.6,3.2,3.6
	c2.1-0.1,3-1.3,3-3.8l-0.3-7.4l-3,0.1l-0.2-5.4l8.6-0.3l0.5,12.4c0.1,3.1-0.5,5.5-2,7.2c-1.5,1.7-3.6,2.6-6.5,2.7
	S102.6,59,101.1,57.4z"/>
<path class="st0" d="M119.1,24.2l6-0.2l1.4,38l-6,0.2L119.1,24.2z"/>
<path class="st0" d="M136.5,58.8c-0.9-1.1-1.4-2.5-1.3-3.9l-0.1-11.5c-0.1-1.4,0.3-2.8,1.3-3.9c2.1-1.8,5.3-1.8,7.4,0
	c0.9,1.1,1.4,2.5,1.3,3.9v2.3h-3.2V43c0-1.3-0.6-2-1.7-2s-1.7,0.7-1.7,2l0.1,12c0,1.3,0.6,2,1.7,2s1.7-0.7,1.7-2v-3.3h3.2v3
	c0.1,1.4-0.3,2.8-1.3,3.9C141.8,60.5,138.6,60.5,136.5,58.8L136.5,58.8z"/>
<path class="st0" d="M148.4,58.7c-0.9-1.1-1.4-2.5-1.3-4L147,38.3h3.4l0.1,16.7c-0.1,0.6,0.1,1.1,0.5,1.6c0.3,0.3,0.8,0.5,1.3,0.5
	c0.5,0,0.9-0.2,1.3-0.5c0.3-0.5,0.5-1,0.4-1.6l-0.1-16.7h3.3l0.1,16.4c0.1,1.4-0.3,2.9-1.3,4C153.8,60.5,150.6,60.5,148.4,58.7
	L148.4,58.7z"/>
<path class="st0" d="M160.3,58.6c-0.9-1.1-1.4-2.6-1.3-4v-1.2h3.2v1.5c0,1.4,0.6,2.1,1.8,2.1c0.5,0,1-0.2,1.3-0.5
	c0.3-0.5,0.5-1.1,0.4-1.7c0-0.8-0.2-1.7-0.6-2.4c-0.6-0.9-1.4-1.8-2.3-2.5c-1.2-0.9-2.1-2.1-2.9-3.3c-0.6-1-0.9-2.2-0.9-3.3
	c-0.1-1.4,0.3-2.9,1.3-4c1-1,2.4-1.5,3.8-1.4c1.4-0.1,2.7,0.4,3.7,1.4c0.9,1.1,1.4,2.6,1.3,4v0.9h-3.2V43c0-0.6-0.1-1.1-0.4-1.6
	c-0.3-0.4-0.8-0.5-1.3-0.5c-1.1,0-1.7,0.7-1.7,2.1c0,0.8,0.2,1.5,0.6,2.2c0.7,0.9,1.4,1.7,2.3,2.4c1.2,0.9,2.2,2.1,2.9,3.3
	c0.6,1.1,0.8,2.3,0.8,3.5c0.1,1.5-0.3,2.9-1.3,4.1c-1,1-2.4,1.6-3.8,1.5C162.6,60.1,161.2,59.6,160.3,58.6z"/>
<path class="st0" d="M173.5,41.1H170v-3.1l10.4-0.1v3.1h-3.5l0.1,18.5h-3.4L173.5,41.1z"/>
<path class="st0" d="M183.1,58.4c-1-1.1-1.4-2.5-1.4-4l-0.1-11.3c-0.1-1.4,0.4-2.9,1.3-4c2.2-1.9,5.4-1.9,7.6,0
	c0.9,1.1,1.4,2.5,1.4,3.9l0.1,11.3c0.1,1.5-0.4,2.9-1.3,4C188.6,60.2,185.4,60.2,183.1,58.4L183.1,58.4z M188.7,54.6l-0.1-11.7
	c0-1.4-0.6-2.1-1.8-2.1s-1.8,0.7-1.7,2.1l0.1,11.7c0,1.4,0.6,2.1,1.8,2.1S188.7,56,188.7,54.6z"/>
<path class="st0" d="M194.2,37.9h4.8l2.3,15.4h0.1l2-15.4h4.8l0.1,21.5h-3.2L205,43.1h0l-2.3,16.3h-2.8l-2.6-16.3h-0.1l0.1,16.3
	h-2.9L194.2,37.9z"/>
<path class="st0" d="M210.7,37.8l9.2-0.1v3.1h-5.8v5.7h4.6v3.1h-4.6l0.1,6.6h5.8v3.1l-9.2,0.1L210.7,37.8z"/>
<path class="st0" d="M221.9,37.7h5c1.4-0.1,2.8,0.3,3.8,1.2c0.9,1,1.4,2.3,1.3,3.7v1.3c0,2.2-0.7,3.6-2.2,4.3v0.1
	c0.8,0.2,1.4,0.8,1.8,1.5c0.4,1,0.6,2,0.5,3v3.8c0,0.6,0,1.1,0.1,1.5c0,0.4,0.2,0.8,0.3,1.1H229c-0.1-0.3-0.2-0.7-0.3-1
	c0-0.3-0.1-0.9-0.1-1.7v-3.9c0.1-0.7-0.1-1.4-0.5-2c-0.4-0.4-1-0.6-1.6-0.6h-1.2l0.1,9.2h-3.4L221.9,37.7z M226.6,46.9
	c0.6,0,1.1-0.2,1.5-0.5c0.4-0.5,0.6-1.1,0.5-1.8V43c0-0.6-0.1-1.2-0.4-1.7c-0.3-0.4-0.8-0.6-1.3-0.5h-1.5v6.1L226.6,46.9z"/>
<path class="st1" d="M41.8,135c-2.9-2.4-4.6-6.2-5.3-11.3l-0.5-3.6l9.4-1.3l0.6,4.3c0.6,4.1,2.6,5.9,6,5.5c1.5-0.1,2.8-0.8,3.7-2
	c0.8-1.1,1-2.8,0.7-5c-0.3-2.5-1.2-4.8-2.8-6.8c-2.2-2.5-4.8-4.7-7.7-6.4c-4.6-3.1-7.9-6-9.9-8.7c-2.1-2.8-3.4-6.1-3.8-9.6
	c-0.7-5,0.1-9.1,2.3-12.2s5.7-5,10.5-5.6s8.6,0.3,11.4,2.7s4.5,6.2,5.2,11.3l0.3,2.6l-9.5,1.3L52.1,87c-0.3-2.2-0.9-3.7-1.9-4.6
	c-1.1-0.9-2.5-1.3-3.9-1c-3.3,0.4-4.7,2.7-4.2,6.7c0.3,2.3,1.2,4.4,2.7,6.2c2.3,2.5,4.9,4.6,7.7,6.3c4.7,3.1,8,6,9.9,8.7
	c2.1,3,3.4,6.5,3.8,10.1c0.7,5.2-0.1,9.3-2.3,12.5c-2.2,3.1-5.7,5-10.6,5.7C48.4,138.4,44.6,137.4,41.8,135z"/>
<path class="st0" d="M71,68h6.7l5.1,31.3h-4.9l-0.9-6.2v0.1h-5.6l-0.9,6.1h-4.6L71,68z M76.4,89l-2.2-15.5h-0.1l-2.2,15.4L76.4,89z"
	/>
<path class="st0" d="M88.7,75.9h-5.2v-4.5h15.2v4.5h-5.2v26.8h-4.9V75.9z"/>
<path class="st0" d="M101.1,69.7h4.9V101h-4.9L101.1,69.7z"/>
<path class="st0" d="M110.7,99.4c-1.3-1.6-2-3.7-1.8-5.8v-1.8h4.7V94c0,2,0.8,3.1,2.6,3.1c0.7,0,1.4-0.2,1.9-0.7
	c0.5-0.7,0.7-1.5,0.7-2.4c0-1.2-0.3-2.4-0.9-3.5c-0.9-1.4-2-2.6-3.3-3.6c-1.7-1.4-3.1-3-4.3-4.8c-0.8-1.5-1.2-3.2-1.2-4.9
	c-0.1-2.1,0.5-4.2,1.9-5.8c1.5-1.4,3.4-2.1,5.5-2c2-0.2,3.9,0.6,5.3,2c1.3,1.7,2,3.7,1.8,5.8v1.3h-4.7v-1.7c0.1-0.8-0.2-1.7-0.6-2.3
	c-0.5-0.5-1.1-0.8-1.8-0.7c-1.6,0-2.5,1-2.5,3c0,1.1,0.3,2.2,0.9,3.2c0.9,1.3,2.1,2.5,3.3,3.6c1.7,1.4,3.1,3,4.3,4.9
	c0.8,1.6,1.2,3.4,1.2,5.2c0.1,2.1-0.5,4.3-1.9,5.9c-1.5,1.4-3.5,2.2-5.5,2.1C114.1,101.6,112.1,100.9,110.7,99.4z"/>
<path class="st0" d="M126.5,69.1l13,0.1v4.5l-8.1-0.1l-0.1,8.7l6.4,0.1v4.5l-6.4-0.1l-0.1,13.7l-4.9-0.1L126.5,69.1z"/>
<path class="st0" d="M144.3,67.6l6.7,0.1l4.8,31.4h-4.9l-0.8-6.3v0.1l-5.6-0.1l-1,6.1h-4.6L144.3,67.6z M149.4,88.6l-2-15.5h-0.1
	L145,88.5L149.4,88.6z"/>
<path class="st0" d="M161.3,99.8c-1.5-1.4-2.4-3.4-2.5-5.4L157,77.6c-0.4-2,0.1-4.1,1.2-5.9c2.8-3,7.4-3.5,10.8-1.2
	c1.5,1.4,2.4,3.4,2.5,5.4l0.4,3.3l-4.6,0.5l-0.4-3.6c-0.2-1.9-1.1-2.8-2.8-2.6s-2.3,1.2-2.1,3.2l1.9,17.4c0.2,1.9,1.1,2.8,2.8,2.6
	s2.3-1.2,2.1-3.1l-0.5-4.8l4.6-0.5l0.5,4.4c0.3,2-0.1,4.1-1.3,5.9C169.2,101.6,164.6,102.1,161.3,99.8L161.3,99.8z"/>
<path class="st0" d="M179.3,72.4l-5.1-0.1l0.1-4.5l15.2,0.2l-0.1,4.5l-5.1-0.1l-0.3,26.9l-4.9-0.1L179.3,72.4z"/>
<path class="st0" d="M191.8,69.8h4.9l-0.3,31.3l-4.9-0.1L191.8,69.8z"/>
<path class="st0" d="M201.6,99.7c-1.4-1.6-2-3.7-1.9-5.8l0.2-16.5c-0.1-2.1,0.6-4.2,2-5.8c3.2-2.7,7.9-2.7,11.1,0.1
	c1.4,1.6,2,3.7,1.9,5.8L214.7,94c0.1,2.1-0.6,4.2-2,5.8C209.5,102.5,204.8,102.5,201.6,99.7L201.6,99.7z M209.8,94.2l0.2-17.1
	c0-2-0.8-3.1-2.5-3.1s-2.6,1-2.6,3.1l-0.2,17.1c0,2.1,0.8,3.1,2.5,3.1S209.8,96.3,209.8,94.2z"/>
<path class="st0" d="M218.3,68.4l6.2,0.1l4.6,18.8h0.1l0.2-18.8h4.4l-0.3,31.3h-5.1l-5.7-22.9h-0.1l-0.2,22.9H218L218.3,68.4z"/>
<path class="st0" d="M72.3,135.2c-1.1-1.4-1.7-3.2-1.6-4.9V110h4.2v20.6c-0.1,0.7,0.1,1.4,0.6,2c0.9,0.8,2.2,0.8,3.1,0
	c0.4-0.6,0.6-1.3,0.6-2V110h4v20.3c0.1,1.8-0.5,3.6-1.6,4.9c-1.2,1.2-2.9,1.9-4.6,1.8C75.2,137.1,73.5,136.5,72.3,135.2z"/>
<path class="st0" d="M87.9,106.5h6.2c2.2,0,3.7,0.5,4.7,1.5c1.1,1.3,1.6,2.9,1.5,4.6v1.6c0,2.8-0.9,4.5-2.7,5.3v0.1
	c1,0.3,1.8,0.9,2.2,1.9c0.5,1.2,0.7,2.5,0.6,3.8v4.7c0,0.6,0,1.2,0.1,1.8c0.1,0.5,0.2,1,0.4,1.4h-4.3c-0.1-0.4-0.2-0.8-0.3-1.2
	c-0.1-0.7-0.1-1.4-0.1-2.1V125c0.1-0.9-0.1-1.8-0.6-2.6c-0.5-0.5-1.3-0.8-2-0.7h-1.5v11.4h-4.2V106.5z M93.7,117.9
	c0.7,0.1,1.4-0.2,1.9-0.7c0.5-0.6,0.7-1.4,0.6-2.2v-2.1c0.1-0.7-0.1-1.5-0.5-2.1c-0.4-0.5-1-0.7-1.6-0.7h-1.9v7.6L93.7,117.9z"/>
<path class="st0" d="M102.9,111.8h3.7l2.4,18h0l2.4-18h3.3l-3.5,23.1h-4.8L102.9,111.8z"/>
<path class="st0" d="M117.7,108.3h11.4v3.8h-7.2v7h5.8v3.8h-5.8v8.2h7.2v3.8h-11.4V108.3z"/>
<path class="st0" d="M137.5,124.4l-5.5-16.5h4.8l3.1,10.6h0.1l3.1-10.6h4.4l-5.5,16.5v12.2h-4.5L137.5,124.4z"/>
<g>
	<path class="st0" d="M215.5,139.7c-0.3,0.2-0.5,0.3-0.8,0.5c0,0,0,0,0-0.1c0.7-0.6,1.3-1.1,2-1.7c1.1-0.9,1.7-2.1,2.2-3.3
		c0.6-1.4,0.6-2.9,0.7-4.3c0.1-0.9,0.2-1.9,0.2-2.8c0-0.8-0.1-1.6-0.2-2.4c-0.1-1.2-0.3-2.5-0.4-3.7c-0.2-1.7-0.6-3.4-1.2-5
		c-0.3-0.7-0.6-1.4-1-2.1c-0.1-0.1-0.3-0.3-0.3-0.2c-0.4,0.2-0.5-0.1-0.7-0.4c-0.5,0.2-1.1,0.3-1.7,0.5c-0.4,0.1-0.7,0.9-0.7,1.4
		c0,0.3-0.2,0.8-0.4,1c-0.7,0.7-0.7,1.6-0.9,2.5c-0.1,0.4,0.4,0.8,0.8,0.8c0.1,0,0.2,0.1,0.4,0.2c0.4,0.2,0.8,0.4,1.3,0.4
		c0.9,0.1,1.8,0.2,2.6,0.6c0.5,0.3,0.5,0.7,0.5,1c-0.7-0.1-1.4-0.2-2.1-0.3c-0.2,0.4-0.5,0.6-0.3,1.1c0.1,0.3,0.2,0.5,0.5,0.6
		c0.8,0.5,1.7,1.1,2.5,1.6c0.1,0,0.1,0.3,0.1,0.3c-0.2,0.1-0.5,0.3-0.5,0.2c-0.4-0.4-0.9-0.2-1.3-0.1c-0.2,0-0.4,0.2-0.6,0.3
		c0.1,0.1,0.2,0.3,0.3,0.4c0.1,0.1,0.2,0.2,0.3,0.3c-0.3,0.3-0.6,0.6-0.9,0.9c0,0.1,0,0.2,0.1,0.4c-0.3,0-0.6-0.1-0.8,0
		c-0.3,0.1-0.4,0.4-0.3,0.7c0.1,0.4,0.2,0.8,0.4,1.3c0,0.1,0.1,0.1,0.2,0.2c0.2,0.3,0.3,0.6,0.4,0.9c0.1,0.3,0.1,0.7,0.3,0.8
		c0.7,0.5,0.4,1.2,0.3,1.8c-0.2,0.9-0.6,1.7-0.9,2.5c-0.2,0.6-0.7,1-1.3,1c0.1-0.4,0.3-0.7,0.2-1.1c0-0.3-0.3-0.6-0.5-1
		c-0.2,0.1-0.3,0.3-0.6,0.4c-0.2-0.4-0.6-0.2-0.9-0.1c-0.6,0.2-1.3,0.4-1.9,0.6c0,0.1,0,0.1,0,0.2c0.4,0.2,0.7,0.4,1.2,0.7
		c-0.3,0.2-0.6,0.3-0.8,0.4c-0.3,0.2-0.9,0.2-0.4,0.8c-0.3,0.3,0.3,0.9-0.4,1.1c0,0-0.1,0.1-0.1,0.2c0,0.7-0.1,1.4-0.1,2
		c0,0.1-0.1,0.3-0.2,0.3c-1.3,0.3-2.6,0.3-3.9-0.4c-1.2-0.7-2.2-1.7-3-2.8c-0.1-0.1-0.2-0.1-0.3-0.3c-0.3,2.1-0.5,4.1-0.8,6.2
		c0,0.3-0.1,0.5-0.4,0.5c-0.8,0.1-1.6,0.3-2.4,0.3c-0.5,0-1-0.4-1.4-0.6c-0.7-0.4-1.3-0.8-2-1.2c-0.4-0.3-0.8-0.6-1.2-0.8
		c-0.7-0.4-1.4-0.8-2-1.3c-1-0.7-1.7-1.6-2.1-2.8c-0.3-0.7-0.5-1.4-0.8-2.1c-0.8-1.6-0.6-3.2,0-4.7c0.5-1.2,1.2-2.2,1.9-3.3
		c0.3-0.6,0.6-1.3,1-1.8c0.8-1.2,0.9-2.6,1.4-3.9c0.5-1.2,0.3-2.4,0.6-3.6c0.3-1.5,0.8-2.8,1.7-4.1c1.3-2,2.9-3.7,4.7-5.2
		c2.1-1.6,4.3-2.9,6.9-3.6c1.4-0.4,2.7-0.7,4.2-0.4c1.5,0.3,2.6,1.1,3.7,2.1c0.2,0.2,0.4,0.2,0.6,0.3c0.9,0.3,1.8,0.5,2.6,1
		c1.1,0.6,1.8,1.6,2.3,2.8c0.5,1.4,1.1,2.7,1.5,4.1c0.3,0.9,0.5,1.8,0.7,2.7c0.3,2.3,0.6,4.6,0.9,6.9c0.2,1.5,0.5,2.9,0.7,4.4
		c0.1,1,0,2.1,0,3.2c0,0.2,0,0.4,0,0.6c0,0.4,0.3,0.8-0.2,1.2c0,0,0,0.1,0,0.1c0.3,0.9-0.2,1.6-0.4,2.4c-0.2,0.9-0.5,1.9-0.8,2.8
		c-0.3,0.9-0.6,1.7-1.4,2.3c-0.3,0.2-0.4,0.5-0.6,0.8c-0.6,1-1.7,1.1-2.6,1.6c-0.5,0.3-1.3,0-1.9-0.1c-1.3-0.3-1.3-0.9-1.3-2.4
		c0-1.1,0.1-2.2,0.2-3.2C215.6,139.9,215.6,139.9,215.5,139.7z M211.4,125.9c-0.1,0-0.1,0-0.2,0c-0.1-0.4-0.2-0.8-0.3-1.2
		c0-0.4,0.2-0.7,0.2-1.1c0-0.5-0.1-0.9-0.2-1.4c-0.1,0-0.2,0-0.2,0c-0.1,0.3-0.1,0.5-0.2,0.8c-0.1,0.3,0,0.6-0.1,0.9
		c-0.3,0.9-0.6,1.8-0.4,2.8c0,0.1-0.1,0.2-0.1,0.4c-0.1,0.7-0.5,1.4-0.1,2.2c0.1,0.3,0.2,0.7,0.2,1.1c0,0.6,0.2,0.8,0.7,0.6
		c0.8-0.4,1.1,0.3,1.6,0.5c-0.2,0.2-0.5,0.3-0.7,0.4c-0.2,0.1-0.4,0.3-0.5,0.5c-0.2,0.4-0.2,0.8-0.4,1.3c1.2,0.2,2.5,0.4,3.6,0.6
		c0.4-0.6,0.3-1-0.1-1.4c-0.2-0.2-0.3-0.5-0.4-0.7c-0.1-0.5-0.2-1.1-0.7-1.1c-0.1-0.6-0.2-1.2-0.4-1.7c0.1,0,0.2-0.1,0.3-0.1
		c-0.1-0.3-0.1-0.5-0.2-0.7c-0.1-0.5-0.3-0.9-0.7-1.3c-0.2-0.2-0.4-0.5-0.6-0.8C211.6,126.2,211.5,126.1,211.4,125.9z M210.7,135
		c-0.3-0.3-0.7-0.3-1.1,0c-0.3,0.3-0.3,0.6-0.2,0.9c0.2,0.3,0.8,0.2,1.2-0.1c1,0.5,2.2-0.1,2.5-1.3c-0.5,0.1-1,0.1-1.5,0.2
		C211.4,134.4,211.1,134.5,210.7,135z M209.4,135.5c-0.2-0.3-0.4-0.4-0.5-0.6c-0.2,0.2-0.3,0.4-0.5,0.5c0.1,0.1,0.3,0.3,0.4,0.3
		C209,135.8,209.1,135.7,209.4,135.5z"/>
	<path class="st0" d="M211.4,125.9c0.1,0.1,0.2,0.3,0.3,0.4c0.2,0.3,0.3,0.6,0.6,0.8c0.5,0.3,0.6,0.7,0.7,1.3c0,0.2,0.1,0.4,0.2,0.7
		c-0.1,0-0.3,0.1-0.3,0.1c0.1,0.6,0.2,1.1,0.4,1.7c0.5,0,0.6,0.6,0.7,1.1c0,0.3,0.2,0.5,0.4,0.7c0.3,0.4,0.4,0.8,0.1,1.4
		c-1.2-0.2-2.4-0.4-3.6-0.6c0.1-0.5,0.2-0.9,0.4-1.3c0.1-0.2,0.3-0.3,0.5-0.5c0.2-0.1,0.5-0.2,0.7-0.4c-0.5-0.2-0.8-0.9-1.6-0.5
		c-0.5,0.3-0.7,0-0.7-0.6c0-0.4-0.1-0.7-0.2-1.1c-0.4-0.8,0-1.5,0.1-2.2c0-0.1,0.1-0.2,0.1-0.4c-0.1-1,0.1-1.9,0.4-2.8
		c0.1-0.3,0.1-0.6,0.1-0.9c0-0.3,0.1-0.5,0.2-0.8c0.1,0,0.2,0,0.2,0c0.1,0.5,0.2,0.9,0.2,1.4c0,0.4-0.2,0.7-0.2,1.1
		c0,0.4,0.2,0.8,0.3,1.2C211.3,126,211.4,126,211.4,125.9z"/>
	<path class="st0" d="M210.7,135c0.3-0.5,0.7-0.5,0.9-0.3c0.6-0.1,1-0.1,1.5-0.2c-0.3,1.2-1.5,1.8-2.5,1.3c-0.4,0.3-1,0.4-1.2,0.1
		c-0.2-0.3-0.1-0.6,0.2-0.9C210,134.6,210.4,134.6,210.7,135z"/>
	<path class="st0" d="M209.4,135.5c-0.3,0.1-0.4,0.3-0.5,0.3c-0.2,0-0.3-0.2-0.4-0.3c0.2-0.2,0.3-0.4,0.5-0.5
		C209,135.1,209.2,135.3,209.4,135.5z"/>
</g>
<g>
	<path class="st0" d="M166.5,116.2c0.4-0.3,0.7-0.5,1.2-0.2c0.3,0.2,0.4-0.1,0.4-0.4c-0.1-0.7-0.2-1.4-0.7-2
		c-0.2-0.2-0.2-0.4,0.1-0.6c0.3-0.3,0.4,0,0.5,0.2c0.1,0.1-0.1,0.5,0.3,0.1c0.1-0.1,0.2,0,0.3,0.2c0.1,0.2,0.2,0.3,0.4,0.3
		c0.6,0.1,0.7,0.1,0.5,0.7c0,0.1,0,0.1-0.1,0.2c0.1,0.1,0.3-0.1,0.3,0.1c0,0.3-0.3,0.5-0.5,0.7c-0.2-0.1-0.1-0.2-0.1-0.3
		c-0.1-0.1-0.2-0.2-0.4-0.2c-0.1,0-0.2,0.1-0.2,0.2c-0.1,0.2-0.1,0.3,0.1,0.4c0.4,0.3,0.8,0.7,0.9,1.2c0,0.2,0.1,0.4,0,0.6
		c0,0.1-0.2,0.2,0,0.3c0.1,0.1,0.3,0,0.4-0.1c0.1,0,0.2-0.1,0.1-0.2c-0.1-0.3-0.1-0.5-0.2-0.8c-0.1-0.3,0-0.5,0.3-0.6
		c0.2-0.2,0.4-0.1,0.5,0.1c0.1,0.1,0.2,0.1,0.3,0.1c0.7-0.2,1.5,0,2.2-0.2c0.4-0.1,0.8,0.1,1.2-0.1c0.5-0.3,0.8-0.1,1.2,0.4
		c0.1,0.2,0.3,0.2,0.5,0.2c0.8,0,1.7,0.1,2.5,0.2c0.2,0,0.5,0.1,0.5,0.4c0,0.2,0.1,0.4-0.2,0.6c-0.3,0.1-0.5,0.2-0.8,0
		c-0.4-0.5-1-0.5-1.6-0.5c-0.2,0-0.5,0-0.7,0c-0.3,0.1-0.8-0.1-0.7,0.5c0,0.1-0.2,0.3-0.4,0.2c-0.2-0.1-0.5-0.1-0.7,0.1
		c-0.1,0.2,0,0.3,0.1,0.5c0.1,0.2,0.3,0.2,0.5,0.2c0.7,0.1,1.5,0.2,2.2,0.6c0.3,0.2,0.6,0.3,1,0.1c0.3-0.1,0.3-0.2,0.1-0.4
		c-0.2-0.3-0.2-0.4,0.2-0.5c0.2,0,0.3-0.1,0.4-0.3c0.1-0.2,0.4-0.2,0.6-0.3c0.3,0,0.1,0.3,0.3,0.4c0.1-0.5-0.2-0.8-0.1-1.3
		c0.5,0.2,0.7,0.6,0.7,1.1c0,0.1,0.1,0.3-0.2,0.2c-0.2,0-0.1,0.2,0,0.3c0.2,0.3,0.4,0.5,0.7,0.7c0.1,0.1,0.2,0.2,0.1,0.3
		c-0.1,0.1-0.2,0.1-0.3,0c-0.1,0-0.2-0.1-0.2-0.1c-0.6-0.1-0.7-0.1-0.7,0.6c0,0.6-0.1,1.2-0.2,1.8c-0.1,0.4-0.3,0.7-0.7,0.9
		c-1,0.5-2,0.7-3.1,0.7c-0.2,0-0.4,0-0.6,0.1c0.2,0.3,0.6,0.3,0.9,0.4c0.7,0.4,1.1,1,1.6,1.6c0.2,0.2,0.3,0.1,0.5,0.2
		c0.1,0.1,0.2,0.1,0.2,0.2c0,0.2-0.2,0-0.3,0.1c0.2,0.4,0.5,0.7,0.4,1.2c0,0.2-0.1,0.4-0.2,0.5c-0.2,0.4,0,0.7,0.1,1.1
		c0.2,0.4,0.3,0.8,0.1,1.2c-0.1,0.2-0.1,0.4,0,0.6c0.2,0.4,0.1,0.8,0,1.1c-0.1,0.5-0.1,1-0.4,1.4c-0.1,0.1-0.1,0.2-0.2,0.2
		c-0.2,0.1-0.3-0.4-0.4-0.2c-0.2,0.4-0.2,0.1-0.4,0c-0.4-0.3-0.8-0.7-1.1-1.2c-0.1-0.1-0.1-0.2-0.3-0.2c-0.2,0-0.4-0.2-0.4-0.4
		c0-0.3-0.2-0.3-0.3-0.1c-0.5,0.5-1.1,0.6-1.7,0.7c-0.2,0-0.3,0.1-0.5,0.3c0-0.2-0.1-0.3-0.1-0.4c0.3,0.2,0.3-0.6,0.7-0.3
		c0.2,0.1,0.4,0,0.4-0.3c0-0.2,0-0.3-0.1-0.5c0-0.1,0-0.2-0.2-0.2c-0.1,0-0.2,0.1-0.2,0.2c-0.1,0.1-0.2,0.2-0.2,0.5
		c-0.1-0.2-0.2-0.3-0.2-0.4c-0.1-0.1-0.2-0.1-0.3-0.1c-0.1,0-0.3,0.1-0.3,0.3c0,0.5,0,0.9,0.2,1.4c0,0.1,0.1,0.3,0,0.2
		c-0.2-0.1-0.3,0.3-0.4,0c-0.1-0.2-0.1-0.1-0.2,0c-0.3,0.5-0.3,0.5,0.3,1.1c0.1-0.1,0.1-0.2,0.2-0.3c0.2,0,0.1,0.2,0.1,0.3
		c0,0.1,0.1,0.2,0.2,0.1c0.1-0.1,0.2-0.3,0.2,0c0,0.1,0.3,0.3,0,0.4c-0.1,0-0.1,0.1-0.1,0.2c0.1,0.4,0.3,0.8,0.5,1.1
		c0.1,0.2,0.1,0.2-0.1,0.3c-0.2,0.1-0.7-0.2-0.6,0.4c0,0-0.1,0.1-0.1,0.1c-0.5,0-0.3,0.4-0.3,0.6c0,0.1,0.1,0.3,0.2,0.5
		c0,0.1,0.1,0.2,0.2,0.1c0.2-0.1,0.2,0.1,0.4,0.1c0.4,0.1,0.4,0.2,0,0.3c-0.1,0,0,0.2,0,0.3c0,0.1,0.1,0.2,0.3,0.2
		c0.4,0,0.7-0.1,0.9,0.4c0,0.1,0.1,0.1,0.2,0c0.1-0.1-0.1-0.2,0-0.5c0.3,0.2,0.5,0.5,0.7,0.8c0.3,0.6,0.3,0.6,0.9,0.3
		c0,0,0.1,0,0.2,0c-0.1,0.4-0.6,0.6-0.3,1c-0.2-0.2-0.4-0.2-0.6-0.1c-0.1,0.1-0.1,0.3,0,0.5c0.1-0.1,0-0.4,0.3-0.3
		c0.1,0.1,0.2,0,0.3-0.2c0.2,0,0.4-0.1,0.6,0c-0.2,0.2-0.4,0.3-0.4,0.7c0,0.1-0.1,0.2-0.2,0.2c-1.4,0.4-2.8,0.7-4.3,0.8
		c-0.8,0.1-1.6,0.2-2.4,0.1c-1.1-0.1-2-0.6-2.9-1.2c-0.9-0.6-1.7-1.3-2.4-2.2c-0.2-0.2-0.3-0.5-0.4-0.7c-0.5-1.3-1.4-2.4-2.1-3.5
		c-0.3-0.5-0.7-0.9-0.9-1.5c-0.1-0.2-0.1-0.4-0.4-0.2c-0.2,0.1-0.4,0-0.6-0.2c-0.5-0.4-0.8-1-1.1-1.6c-0.7-1.1-1.3-2.3-1.8-3.6
		c-0.3-0.8-0.6-1.6-0.5-2.4c0.1-0.9,0.4-1.1,1.3-1.3c0.5-0.1,0.2-0.5,0.1-0.6c-0.7-1-0.5-2.2-0.5-3.3c0-1.6,0-3.1,0.4-4.7
		c0.2-0.9,0.4-1.8,0.9-2.6c0.3-0.4,0.4-0.9,0.6-1.3c0.4-0.7,0.8-1.2,1.4-1.8c0.3-0.2,0.6-0.3,0.8-0.7c0.1-0.1,0.2-0.1,0.3,0
		c0.1,0.1,0,0.2-0.1,0.3c-0.4,0.4-0.7,0.8-1,1.3c-0.1,0.2-0.2,0.3-0.2,0.5c0.3-0.1,0.5-0.2,0.5-0.4c0-0.4,0.3-0.4,0.6-0.6
		c0.4-0.2,0.6-0.4,0.9-0.7c0.4-0.3,0.9-0.5,1.4-0.5c0.4,0,0.6-0.2,0.9-0.4c0.2-0.2,0.6-0.2,0.8-0.3c0.1,0.3,0.5,0.2,0.6,0.5
		c0.1,0.3,0.5,0.5,0.4,1c-0.1,0.6-0.3,1.4,0.2,2c0.2,0.2,0.1,0.6,0.2,0.8c0,0,0,0.1,0,0.1c0.1,0.2,0.4,0.1,0.4,0.4
		c-0.2,0.6-0.1,1.3-0.5,1.8c-0.1,0.2-0.2,0.3,0.1,0.5C166.2,115.4,166.4,115.8,166.5,116.2c-0.4,0.2,0.1,0.4,0,0.6
		c0.1,0.1,0,0.3,0.2,0.2c0.1-0.1,0.2-0.2,0.1-0.3C166.7,116.4,166.6,116.3,166.5,116.2z M170.3,119.9c0.2-0.5-0.1-1,0.1-1.4
		C170.2,119,170.2,119.4,170.3,119.9c0.2,0.4,0.3,0.8,0.5,1.2c0.3,0.5,0.5,1.1,1,1.4c0.8,0.4,1.7,0.4,2.6,0.3c1,0,2.1-0.2,3.1-0.6
		c0.5-0.2,0.7-0.5,0.8-0.9c0.1-0.4-0.1-0.5-0.4-0.6c-1-0.3-1.8,0.1-2.8,0.3c-0.1,0-0.2,0-0.2,0.2c0,0.1,0.1,0.2,0.2,0.2
		c0.3,0,0.5,0.2,0.8,0.3c-0.3,0.6-0.8,0.6-1.3,0.8c-0.2,0.1-0.4,0.2-0.5,0.1c-0.4-0.4-1-0.3-1.5-0.4c-0.4-0.1-0.8-0.1-1-0.5
		c-0.1-0.1-0.2-0.3-0.3-0.3c-0.3,0-0.3-0.1-0.4-0.3c-0.2-0.3-0.3-0.5-0.4-0.8C170.6,120,170.5,119.9,170.3,119.9z M173.1,125.1
		c0-0.4-0.2-0.8-0.7-1.1c-0.2-0.1-0.3-0.2-0.4-0.4c-0.1-0.3-0.2-0.5-0.4-0.6c-0.6-0.5-1.1-1-1.6-1.7c-0.1-0.2-0.3-0.3-0.5-0.4
		c-0.1,0-0.2-0.3-0.3-0.2c-0.1,0.1-0.3,0.3-0.2,0.5c0.1,0.3,0.1,0.7,0,1c-0.2,0.7-0.1,1.3,0.2,1.9c0.4,0.8,0.8,1.6,1.2,2.4
		c0.1,0.2,0.1,0.3,0.1,0.5c-0.1,0.3,0,0.4,0.3,0.3c0.1,0,0.2,0,0.2,0.1c0,0.2,0.1,0.3,0.3,0.4c0.2,0.1,0.3,0.1,0.2,0.4
		c0,0.1,0.1,0.3,0.2,0.4c0.2,0.2,0.2,0.3-0.1,0.4c-0.2,0.1-0.3,0.4-0.3,0.6c0,0.2,0.2,0,0.4,0.1c0.5,0.2,1-0.1,1.5,0.1
		c0.2,0,0.2-0.1,0.3-0.2c0.1-0.2,0.2-0.5,0.5-0.2c0.1,0.1,0.1,0,0.2,0c0.3-0.1,0.4-0.4,0.7-0.6c0.1-0.1,0.5-0.5-0.1-0.6
		c-0.1,0-0.2-0.1-0.2-0.2c0.2-0.3-0.1-0.4-0.2-0.6c-0.2-0.3-0.4-0.5-0.6-0.7c-0.2-0.4-0.5-0.5-0.8-0.3c-0.4,0.3-1,0.3-1.4,0.7
		c-0.2,0.2-0.3,0-0.5-0.2c-0.1-0.1-0.2-0.2,0-0.3c0.5-0.3,0.9-0.7,1.5-0.6C172.8,126,173,125.8,173.1,125.1z M174.7,120.1
		c0.2,0.3,0.5,0.1,0.7,0.1c0.5,0,0.9,0.2,1.4,0.1c0.6-0.1,1.2-0.1,1.7,0.4c0.1-0.5,0.1-1,0-1.4c-0.1,0.8-0.2,0.8-1,0.7
		c-0.3,0-0.7-0.2-1-0.2C176,119.7,175.3,119.8,174.7,120.1z M171,131.8c0.4,0,0.6-0.1,0.5-0.3c-0.1-0.3,0.1-0.7-0.3-0.8
		c-0.3-0.1-0.5,0.2-0.5,0.5C170.6,131.5,170.7,131.8,171,131.8z M157.4,122.7c0.3-0.6-0.2-1.3,0.1-1.9
		C157,121.4,157.2,122.1,157.4,122.7z M170,131.2c-0.2,0.1-0.3,0.2-0.4,0.4c0,0.2,0.1,0.3,0.3,0.3c0.2,0,0.3-0.1,0.3-0.2
		C170.2,131.5,170.1,131.4,170,131.2z M176.4,120.5c-0.3-0.1-0.7-0.5-1.1-0.1C175.7,120.6,176,120.6,176.4,120.5z"/>
	<path class="st0" d="M172.2,106.5c0.6,0.3,1.2,0.1,1.7,0.2c0.5,0.1,0.9,0.5,1.3,0.8c1,0.7,1.8,1.6,2.7,2.4c0.6,0.6,1.1,1.3,1.4,2.1
		c0.1,0.3,0.2,0.6,0.4,0.8c0.4,0.5,0.4,1.2,0.7,1.8c0.1,0.1,0,0.3-0.1,0.3c-0.1,0-0.2-0.1-0.2-0.2c0-0.6-0.5-1-0.7-1.5
		c-0.2-0.6-0.6-1-0.8-1.6c-0.1-0.2-0.3-0.3-0.5-0.5c-0.3-0.3-0.5-0.6-0.9-0.8c-0.2-0.1-0.2-0.3-0.4-0.4c-0.8-0.7-1.6-1.4-2.6-1.9
		c-0.7-0.3-1.3-0.8-2-1c-0.1,0-0.2-0.1-0.2-0.2C172.1,106.6,172.2,106.6,172.2,106.5z"/>
	<path class="st0" d="M179.3,130.2c0.3,0.2,0.3,0.4,0.3,0.6c-0.2,0.6-0.3,1.3-0.3,2c0,0.5-0.4,0.9-0.6,1.3c-0.3,0.6-0.5,1.2-0.9,1.8
		c-0.1,0.1-0.2,0.3-0.3,0.2c-0.1-0.1-0.1-0.3-0.1-0.4c0.2-0.9,0.4-1.8,0.9-2.6c0.3-0.5,0.5-1.1,0.6-1.6c0-0.1,0-0.3,0.2-0.3
		c0.1,0,0.1-0.1,0.1-0.1C179,130.7,179.4,130.6,179.3,130.2z"/>
	<path class="st0" d="M183,125.5c-0.1-0.6-0.1-1.1-0.2-1.7c-0.1-0.6-0.5-1.2-0.9-1.6c-0.2-0.3-0.2-0.6,0-0.9
		c0.2-0.1,0.3-0.2,0.6-0.3c0.5-0.1,0.6,0,0.8,0.5c0.3,0.9,0.2,1.8,0,2.7C183.2,124.6,183,125.1,183,125.5z"/>
	<path class="st0" d="M182.4,124.8c0,0.2,0,0.3,0,0.5c0,0.3-0.2,0.6-0.5,0.6c-0.1,0-0.2,0.1-0.3,0c-0.1-0.1,0-0.2,0-0.3
		c0.2-0.6-0.1-1.2-0.3-1.7c0-0.1-0.1-0.2-0.1-0.3c0-0.1,0-0.2,0.1-0.2c0.1-0.1,0.1,0,0.2,0.1c0.2,0.3,0.5,0.5,0.8,0.6
		C182.4,124.3,182.4,124.5,182.4,124.8z"/>
	<path class="st0" d="M171.2,106.4c-0.5,0.1-0.9,0.2-1.3-0.1c-0.1-0.1-0.4,0-0.5,0.1c-0.2,0.2-0.4,0.2-0.5,0
		c-0.2-0.3-0.5-0.3-0.8-0.4c-0.1,0-0.2,0.2-0.2,0c0-0.1,0.1-0.2,0.3-0.2c0.4,0,0.8,0,1.2,0C170,106,170.6,106,171.2,106.4z"/>
	<path class="st0" d="M165.1,106.9c0.5,0,0.5-0.3,0.3-0.6c0.3-0.1,0.6-0.2,1-0.3c0.3-0.1,0.5,0,0.5,0.3c0.1,0.3-0.2,0.3-0.4,0.3
		c-0.2,0-0.3,0.1-0.5,0c-0.2-0.1-0.3,0.1-0.4,0.3C165.4,107.3,165.3,107.2,165.1,106.9z"/>
	<path class="st0" d="M180.9,118.2c-0.1,0.3,0,0.7,0.1,1c0.1,0.3,0.3,0.5,0.4,0.8c0,0.1,0.1,0.3-0.1,0.3c-0.1,0-0.4,0.1-0.5-0.1
		c-0.1-0.5-0.3-0.9-0.3-1.4C180.6,118.4,180.6,118.2,180.9,118.2L180.9,118.2z"/>
	<path class="st0" d="M167,113.8c-0.2-0.3-0.4-0.6-0.3-1c0.1-0.2,0-0.4,0.3-0.4c0.3,0.1,0.3,0.3,0.2,0.5
		C167.1,113.2,167,113.4,167,113.8z"/>
	<path class="st0" d="M180.9,118.2c-0.1-0.3-0.2-0.5-0.3-0.8c0-0.1-0.1-0.2,0-0.3c0.1-0.1,0.2,0,0.3,0.1
		C181.3,117.6,181.3,117.9,180.9,118.2C180.9,118.2,180.9,118.2,180.9,118.2z"/>
	<path class="st0" d="M180.6,115.7c0,0.1,0.1,0.1,0.1,0.2c0.1,0.2,0.2,0.3,0.1,0.6c0,0-0.1,0-0.1,0
		C180.6,116.2,180.4,116,180.6,115.7z"/>
</g>
</svg>
