<svg id="Layer_1" data-name="Layer 1" xmlns="http://www.w3.org/2000/svg" viewBox="0 0 400 106"><defs><style>.cls-1{fill:#3a3939;}.cls-2{fill:#d66b6b;}</style></defs><title>Artboard 4</title><path class="cls-1" d="M48.47,38.69q-6,1.06-12.07,2.22l9,47.05q5.7-1.08,11.42-2.09c3.71-.66,6.33-2.11,7.87-4.4s2-5.35,1.39-9.18L62.18,48.38q-.93-5.73-4.36-8.23C55.53,38.5,52.41,38,48.47,38.69ZM58.52,73.9a5.21,5.21,0,0,1-.4,3.68,3.73,3.73,0,0,1-2.66,1.57l-3.84.69q-3-16.83-6.1-33.67l4-.71a4,4,0,0,1,3.15.56,5,5,0,0,1,1.63,3.33Q56.42,61.62,58.52,73.9Z"/><path class="cls-1" d="M73,83.18q10.23-1.59,20.48-2.93c-.29-2.26-.59-4.52-.88-6.78-4.37.56-8.73,1.17-13.09,1.8L77.37,60.72q5.3-.78,10.59-1.48c-.31-2.26-.61-4.53-.91-6.79q-5.34.72-10.67,1.5L74.55,41.42q6.81-1,13.62-1.88c-.29-2.27-.59-4.53-.88-6.79q-10.85,1.41-21.67,3.1Q69.31,59.52,73,83.18Z"/><path class="cls-1" d="M167.69,26q-6.1.23-12.22.54,1.23,23.93,2.45,47.84,5.78-.3,11.55-.51c3.75-.14,6.54-1.22,8.37-3.28s2.72-5,2.63-8.89l-.57-24.22c-.09-3.88-1.14-6.8-3.18-8.75S171.67,25.9,167.69,26Zm5.12,36.25a5.23,5.23,0,0,1-.89,3.59,3.74,3.74,0,0,1-2.85,1.2l-3.88.15q-.72-17.08-1.43-34.18l4-.16a4,4,0,0,1,3,1A5.1,5.1,0,0,1,172,37.4Z"/><path class="cls-1" d="M185.83,73.47q10.32-.18,20.64-.1l.06-6.84c-4.4,0-8.79,0-13.18,0l-.12-14.71q5.33,0,10.66,0l0-6.84q-5.37,0-10.75,0,0-6.33-.1-12.66,6.87-.06,13.72,0l.06-6.84q-10.92-.09-21.84.1Q185.43,49.53,185.83,73.47Z"/><path class="cls-1" d="M237.6,60.57h-.14q-1.68-17.24-3.56-34.47c-3.81-.14-7.62-.27-11.43-.37l-1.23,47.89c2.2.06,4.4.12,6.6.2l1.23-36.25h.14Q231.46,55.8,233.48,74c2.11.08,4.22.18,6.32.28q3.63-18,7.49-35.93h.15q-1,18.11-2,36.21l7.14.42,3.06-47.8q-5.71-.36-11.42-.65Q240.82,43.55,237.6,60.57Z"/><path class="cls-1" d="M275.15,63.1H275q-.9-17.3-2-34.59-5.7-.48-11.4-.88-1.69,23.9-3.38,47.78c2.19.16,4.39.32,6.59.5q1.43-18.09,2.84-36.16h.15q1.44,18.3,2.63,36.61l6.31.56q4.44-17.79,9.1-35.55H286q-1.8,18-3.62,36.09c2.38.24,4.76.48,7.13.74l5.19-47.62Q289,30,283.3,29.43,279.13,46.25,275.15,63.1Z"/><path class="cls-1" d="M311.47,53.84a28.15,28.15,0,0,1-4.57-6.1,8.7,8.7,0,0,1-.86-5c.37-3,1.88-4.39,4.51-4a3.8,3.8,0,0,1,2.8,1.5,5.34,5.34,0,0,1,.53,3.7l-.33,2.44q3.7.49,7.4,1c.1-.66.19-1.31.28-2q.82-5.76-1.66-9.26c-1.66-2.32-4.41-3.75-8.22-4.24s-6.93.19-9.2,2-3.61,4.62-4,8.38a14.68,14.68,0,0,0,1.06,7.67A31.69,31.69,0,0,0,305,58.12a24.81,24.81,0,0,1,4.47,6.12,10,10,0,0,1,.7,5.45,5.44,5.44,0,0,1-1.48,3.49,3.76,3.76,0,0,1-3.08.74q-3.93-.49-3.36-5.11c.14-1.09.27-2.17.4-3.26-2.41-.3-4.82-.58-7.23-.86-.11.91-.21,1.81-.32,2.72q-.64,5.78,1.8,9.2c1.64,2.28,4.27,3.64,7.91,4.11s6.63-.18,8.87-2,3.62-4.64,4.18-8.53a16.15,16.15,0,0,0-.71-8A27.62,27.62,0,0,0,311.47,53.84Z"/><path class="cls-1" d="M338.89,35.87c-3.85-.62-6.95,0-9.27,1.71s-3.76,4.55-4.32,8.38q-1.83,12.47-3.67,24.92-.84,5.75,1.58,9.26t7.85,4.37c3.63.59,6.56,0,8.82-1.69s3.74-4.48,4.41-8.3L347,59.09q-5.58-1-11.18-1.88-.54,3.38-1.09,6.75l3.84.63q-.76,4.64-1.54,9.25c-.51,3.06-2.06,4.37-4.67,4s-3.67-2.15-3.19-5.22q2-12.94,4-25.89c.49-3.11,2.09-4.46,4.82-4s3.82,2.22,3.3,5.33l-.75,4.52c2.45.41,4.9.82,7.35,1.25.24-1.34.48-2.69.71-4,.67-3.82.19-6.93-1.47-9.32S342.74,36.49,338.89,35.87Z"/><path class="cls-1" d="M355.7,39.44Q351.43,63,347.16,86.57L354.63,88l9-47Q359.66,40.16,355.7,39.44Z"/><path class="cls-2" d="M146.15,27.09q-11.76.73-23.48,1.77a4.89,4.89,0,0,0-3.54,2q-7.39.69-14.78,1.51c-7.67.85-13.19,7.18-12.31,14q1.26,9.9,2.51,19.79c.88,6.8,7.48,11.57,14.72,10.77q4.61-.51,9.21-1c-.23-2.29-.45-4.58-.68-6.87-3.1.3-6.19.63-9.29,1-3.47.38-6.58-1.74-6.94-4.77L99.23,45.45c-.37-3,2.27-5.83,5.88-6.23,4.54-.5,9.07-1,13.62-1.39q1.63,17.46,3.29,34.93a4.53,4.53,0,0,0,4.91,4q11.08-1,22.18-1.67a4.52,4.52,0,0,0,4.25-4.73q-1.11-19.56-2.21-39.12A4.61,4.61,0,0,0,146.15,27.09Zm.08,41.31q-8.73.55-17.46,1.31l-2.94-34.2q9.09-.78,18.19-1.37Q145.13,51.27,146.23,68.4Z"/><path class="cls-2" d="M135,54.86a3.09,3.09,0,0,0,2.22-1.18l2.92-.21a.66.66,0,0,0,.62-.68c-.06-.75-.11-1.51-.16-2.27a.67.67,0,0,0-.71-.59l-2.79.21a3.09,3.09,0,0,0-2.54-1,2.87,2.87,0,1,0,.44,5.71Z"/></svg>