<svg id="Layer_1" data-name="Layer 1" xmlns="http://www.w3.org/2000/svg" xmlns:xlink="http://www.w3.org/1999/xlink" viewBox="0 0 263 167"><defs><style>.cls-1{fill:none;}.cls-2{clip-path:url(#clip-path);}.cls-3{fill:#fff;}.cls-4{fill:#d66b6b;}</style><clipPath id="clip-path"><path class="cls-1" d="M19.4,137s10.86,8.63,13.7,5.19A24.6,24.6,0,0,0,37,136.15s10.65,13.09,15.65,13.39,27-3.17,35-14.13c0,0,0,19.11,2.59,20.67s18,3.13,18,3.13L125,120.57l3-94.95L83,.38-.48,12.26,14.2,99.06Z"/></clipPath></defs><title>Artboard 5 copy 2</title><g class="cls-2"><path class="cls-3" d="M141.91,405.26c1.27-9.95,2.38-19.9,3.06-29.9.33-4.9.84-9.88.36-14.74a157.64,157.64,0,0,1-.25-21.62c.26-6.42,1-12.83,1.86-19.22,1.24-9.78,2.64-19.54,4.09-29.3.83-5.61,1.9-11.18,2.83-16.78.14-.83.57-1.7,0-2.55h0c.78-3,.35-6.09,1.15-9,.88-3.2.42-6.45.81-9.66.59-4.91,0-9.85-.12-14.77-.07-4.52-.33-9.05-.5-13.57a31.4,31.4,0,0,0-2.67-16.84A20.75,20.75,0,0,0,138.3,195.4h0c-3.28-1.48-6.89-1.51-10.33-2.29-.84.1-2.1-1.55-2.47.58h0a4.47,4.47,0,0,1,.06,2.38h0c-.51,1,0,2.42-1.11,3.27,0-.31.09-.62.13-.92.62-2.19.16-4.45.41-6.63a3.23,3.23,0,0,0-2-3.56c-1.67-.83-3.65-2.51-5.17-1.86a14.55,14.55,0,0,0-5.43,4.7,36.37,36.37,0,0,0-5.64,11.48c-.88,2.9-3.29,5.13-4.28,8.06a.81.81,0,0,1-1.13.57c-.44-.19-.5-.56-.21-1,1.59-2.24,1-5.18,2.44-7.49,1.74-2.89,2-6.36,3.75-9.3,1.44-2.36,3-4.65,4.27-7.13,1.42-2.9,1-3.59-2-4.5-.34-.1-.59-.52-.87-.8h0a10.84,10.84,0,0,0-3.42-3.14c-2.65-1.6-5.86-2.23-8.08-4.61a1.17,1.17,0,0,0-2.1.67c-.12,1.25-.88,1.65-1.61,2.38-1.38,1.4-3,2.93-3.52,4.7-1,3.37-3.87,5-6,7A13.24,13.24,0,0,1,77,191.12c-.51.07-1,1.17-1.48.14s.54-1.22,1.19-1.33c1.84-.3,3.68-1.27,4.3-2.68,1.86-4.22,5.56-7.1,7.52-11.28,1.18-2.51-.14-4-.82-5.76-.46-1.2-1.37-3-3.56-2,.55-2.92-.34-4.1-3-4.71-1.44-.32-3.06-.05-4.3-1.16l1.86.25,7.6,1.31h0l1.79.4,4.52,3.92c-.25-2.91-2.65-3.85-3.73-5.72h0l.66-.5a1.68,1.68,0,0,0-.74-1.86A6.46,6.46,0,0,1,86.86,155c0-2.78.1-5.56-.08-8.33s1.12-5.15.82-7.8l.25-1.44-.09.13a.51.51,0,0,1,.09-.13c.94-1.21,1.73-2.58,3.35-3.2a2.45,2.45,0,0,1,0,.27,2.83,2.83,0,0,1,.65-.54A2.8,2.8,0,0,1,93,132.78a3.15,3.15,0,0,1,.9-1.44,7.64,7.64,0,0,1,1.17-2.24.44.44,0,0,0,0-.4l.19-.1A25,25,0,0,0,99,121.78a7.32,7.32,0,0,1,.47-1.46l1.57-1.83a13.45,13.45,0,0,0,.1,4.21l-.08.08c-.47,1.6-.16,3.31-.66,4.91l-.17.12a20.87,20.87,0,0,1-2.89,8,1.75,1.75,0,0,0,.22,2,2.06,2.06,0,0,0,.63.84c-.39,2.67-2.56,4.28-4.15,6.21a1.58,1.58,0,0,1-.29.29c0,.1,0,.2,0,.3a2.84,2.84,0,0,1-.85,1.6,36.9,36.9,0,0,1-1.16,5.18c-.06.19-.13.38-.2.58-.08.78-.14,1.55-.15,2.33a2.15,2.15,0,0,0,.58.38c.47.13.38-.2.39-.51,0-1.6.83-.75,1.45-.48a.49.49,0,0,0,0,.46c3.19,1.07,6.48.53,9.74.57.85,0,1.84-.21,2-1.35.45-3.82,1.82-7.64-.53-11.38a7.49,7.49,0,0,1-1-5h0c-.16-2.77-2.08-5.22-1.52-8.13.47,0,.84-.29.77-.71-.33-2.29.68-4.26,1.32-6.34.78-2.56,1.3-5.2,1.93-7.8h0c4-4.73,5.21-10.77,7.78-16.16a18.44,18.44,0,0,0,3.54-8c.25-1.22.22-2.41-1-3.16-1.65-.23-2.19-.8-.61-2h0c.7-.18.92-.68,1.18-1.32,1.42-3.42,1.22-7,1.27-10.58a107.36,107.36,0,0,0-1.23-20.18,1.16,1.16,0,0,0-.2-1.57h0c-.4-1.5-.81-3-1.21-4.5h0a4.89,4.89,0,0,0-1-2.7h0c-.14-.31-.29-.61-.43-.92a57.9,57.9,0,0,0-4.28-9.38,36.71,36.71,0,0,0-8-6.64c-4-2.55-8.11-5.06-13.16-5a3.56,3.56,0,0,1-3.46-2,2.62,2.62,0,0,0-3.68-1.13c-.6.26-1.23.35-1.82.58-1.79.29-3.47-.88-5.28-.39C70,18.45,65,18,60.51,19.75c-4.2,1.69-8.6,3.25-12.38,6.05a48.42,48.42,0,0,0-13,14.68,1.35,1.35,0,0,0-.15.26,67.57,67.57,0,0,0-6.83,16.87c-1.35,5.44-1.07,11.07-1.91,16.57a44.72,44.72,0,0,1-.61,5.35c-.15.52-.34,1.2.22,1.56,1.5,1,1.6,2.59,2,4.06a30.89,30.89,0,0,1,.1,5.93,65.6,65.6,0,0,0-.17,16.21c.55,4.41,1.09,9-1.12,13.22h0c-.71,1.49-2,2.76-2.09,4.48a11.55,11.55,0,0,1-1.9,5.5c-1.62,2.71-3.16,5.51-2.3,8.89h0a3.11,3.11,0,0,0,2.35,2.71c2.6.84,5.18,1.45,8,.53,3.07-1,4.36.22,3.58,3.29a13.86,13.86,0,0,0-.43,5h0l-2.47,1h0c-1.49-.3-2.56.53-3.66,1.31h0a39.42,39.42,0,0,1-6.38,3.32h0c-.39.06-.78.08-1.16.17-3.18.82-5.9,2.76-9.15,3.55-1.77.43-3.58.34-5.29.89-1.56.5-3.11,2.48-4.58-.25-.21-.39-1.34-.33-2-.38-.95-.07-1.92,0-2.86-.09-3.25-.47-6.32-.22-9,2a2.26,2.26,0,0,1-2,.49c-7.25-1.1-14.25.47-21.13,2.36A19.74,19.74,0,0,0-48,174.2h0a19.68,19.68,0,0,0-2.66,4.51c-3.48,8.66-6.26,17.58-8.9,26.51-4.6,15.59-6.53,31.73-9.06,47.73-2.1,13.33-4.16,26.66-8.13,39.61-.51,1.66-1.4,3.21-1.38,5h0l0,.48a82.37,82.37,0,0,0-5.4,13.54h0a4,4,0,0,0-.55.76,222.19,222.19,0,0,0-8.63,26.9h0a9.67,9.67,0,0,0-.55,1.28,217.6,217.6,0,0,0-4.92,25.14c-2.06,16.31-4,32.64-6.63,48.88-.74,4.62-1,9.37-2.83,13.78l4.26.74,13.71,2.38,3.78.66.48.08.47.08,2.36.41,200.94,34.93.48.08,3.31.57,6.14,1.07A203.19,203.19,0,0,0,133,449.17c1.3-6.21,2.81-12.39,4-18.63C138.62,422.11,140.82,413.83,141.91,405.26Z"/></g><path class="cls-3" d="M132.57,18.5h20.11v6.91H140.17V38.89H150V45.8h-9.82V66.88h-7.6Z"/><path class="cls-3" d="M158.68,26.12h8.68L174,66.88h-6.4l-1.17-8.09v.12h-7.28l-1.16,8h-5.94Zm7,27.25-2.85-20.14h-.12l-2.79,20.14Z"/><path class="cls-3" d="M179.63,64.56c-1.81-2-2.71-4.72-2.71-8.29V31.73q0-5.35,2.71-8.29c1.8-2,4.43-2.94,7.87-2.94s6.05,1,7.86,2.94,2.71,4.72,2.71,8.29v4.83h-6.79V31.27q0-4.24-3.59-4.24t-3.59,4.24V56.79q0,4.18,3.59,4.18t3.59-4.18v-7h6.79v6.46c0,3.57-.91,6.34-2.71,8.29s-4.43,2.94-7.86,2.94S181.43,66.52,179.63,64.56Z"/><path class="cls-3" d="M202.15,25.22H220v6H208.69v11h9v6h-9v12.8H220v5.95H202.15Z"/><path class="cls-4" d="M139.37,99.07a5.51,5.51,0,0,1-2.21-4.23L136,82.38a5.51,5.51,0,0,1,1.4-4.57,9.53,9.53,0,0,1,10.41-1A5.49,5.49,0,0,1,150,81.09l1.15,12.46a5.57,5.57,0,0,1-1.4,4.57,9.55,9.55,0,0,1-10.42.95Zm7.22-4.86L145.4,81.28a2.41,2.41,0,0,0-4.79.44l1.19,12.93a2.41,2.41,0,0,0,4.79-.44Z"/><path class="cls-4" d="M153.23,76.83l12.26-.49.14,3.4L158,80l.26,6.62,6-.23.14,3.4-6,.23.41,10.36-4.63.18Z"/><path class="cls-3" d="M129.73,107l11-.56,6.7,35h.14L150.76,106l11-.55,2.48,49.23L157,155l-1.87-37.28H155l-3.76,37.56-6.46.33-7.51-37h-.14L139,155.94l-6.75.34Z"/><path class="cls-3" d="M176.21,104.72l-8.88.61-.55-8.16L193,95.37l.56,8.17-8.87.6,3.35,49-8.49.58Z"/><path class="cls-3" d="M200.45,92.2h9.31V143H225.1v8.47H200.45Z"/><path class="cls-3" d="M226.65,63.61Q224,60.7,224,55.27V52.71h6.64v3.07c0,2.9,1.22,4.34,3.65,4.34a3.42,3.42,0,0,0,2.71-1,5.11,5.11,0,0,0,.93-3.42,9.48,9.48,0,0,0-1.28-4.95A23.48,23.48,0,0,0,232,45.55a28,28,0,0,1-6.07-6.93,14.16,14.16,0,0,1-1.73-7q0-5.3,2.69-8.21t7.8-2.91c3.36,0,5.91,1,7.63,2.91s2.59,4.72,2.59,8.34V33.6h-6.65V31.3a5.11,5.11,0,0,0-.89-3.35,3.23,3.23,0,0,0-2.62-1.06q-3.51,0-3.51,4.28a8.38,8.38,0,0,0,1.31,4.54,24.79,24.79,0,0,0,4.76,5.11,26.36,26.36,0,0,1,6.07,7A15.57,15.57,0,0,1,245,55.14q0,5.49-2.72,8.43c-1.81,2-4.44,2.94-7.89,2.94S228.4,65.55,226.65,63.61Z"/></svg>