<svg id="Layer_1" data-name="Layer 1" xmlns="http://www.w3.org/2000/svg" viewBox="0 0 410 226"><defs><style>.cls-1{fill:#fff;}.cls-2{fill:#d66b6b;}</style></defs><title>Artboard 5 copy</title><path class="cls-1" d="M39,114.16q-4.18-4.62-4.18-13.25V63.54q0-8.62,4.18-13.25t12.16-4.62q8,0,12.15,4.63t4.18,13.25v6.09H57.13v-6.8q0-7-5.68-7t-5.67,7v38.89q0,6.9,5.67,6.9t5.68-6.9V87.82H51.65V77.66H67.49v23.25q0,8.63-4.19,13.25t-12.16,4.62Q43.18,118.79,39,114.16Z"/><path class="cls-1" d="M77.35,38.14h26.49v9H87.06V63.8h13.33v9H87.06V92.15h16.78v9H77.34Z"/><path class="cls-1" d="M122.23,56.9l-9.85,2.5-2.14-8.74,29.14-7.39L141.51,52l-9.85,2.5,12.78,52.41L135,109.31Z"/><path class="cls-1" d="M40.31,132.47l8.49.75-1.95,23.22,12.77-22.28,8.49.75L56.29,154.25,63.62,190l-8.88-.78-5.11-25.19-4,6.71-1.48,17.55-8.49-.74Z"/><path class="cls-1" d="M73,132.4l10.65.93L89.13,167l.15,0,2.78-33,7.57.66L95,189.83l-8.73-.77L79.46,148h-.15l-3.39,40.22-7.57-.67Z"/><path class="cls-1" d="M102.82,193.53q-3-3.9-2.46-10.52l2.45-29q.56-6.62,4.18-9.94t9.88-2.78q6.25.54,9.27,4.45t2.46,10.53l-2.44,29q-.57,6.61-4.19,9.94T112.09,198Q105.84,197.45,102.82,193.53Zm14.79-8.45L120.15,155c.3-3.62-1-5.56-4-5.82s-4.55,1.43-4.85,5.05l-2.54,30.07c-.3,3.62,1,5.55,3.94,5.81S117.31,188.7,117.61,185.08Z"/><path class="cls-1" d="M134.55,135.59l8.94.78.23,46.63h.17l8.29-45.88,10.13.89.48,46.65H163l8-45.9,8,.7-11.07,59.68-11.55-1-.8-41h-.17l-7.64,40.22-12.31-1.08Z"/><path class="cls-2" d="M162.86,108a32.44,32.44,0,0,1,2.27-13.08q2.34-5.46,8.46-12.12t8.33-11.36a21.69,21.69,0,0,0,2.25-9.78q0-4.58-1.51-6.34a5.17,5.17,0,0,0-4.25-1.74q-5.68.06-5.61,7.07l.07,7.62-10.37.1-.07-6.91q-.08-8.64,4.07-13.3t12.12-4.74q8-.07,12.2,4.51t4.31,13.22a28.55,28.55,0,0,1-2.93,12.73q-3,6.23-10.38,14.32a43.55,43.55,0,0,0-6.5,8.65,15.33,15.33,0,0,0-1.63,7.08v1.53l20.84-.2.09,10.16-31.7.3Z"/><polygon class="cls-1" points="205.99 169.34 283.16 32.61 284.77 69.27 205.99 169.34"/><polygon class="cls-1" points="332.85 147.93 364.77 164.81 286.39 26.84 332.85 147.93"/><polygon class="cls-1" points="367.6 170.58 241.14 150.81 211.24 170.99 367.6 170.58"/><path class="cls-1" d="M205.94,190.14l2.6-6.45h3.91V184h-.31a1.32,1.32,0,0,0-.68.15.71.71,0,0,0-.29.34,3.06,3.06,0,0,0-.08.9v6.45a3.37,3.37,0,0,0,.08.94.77.77,0,0,0,.32.33,1.33,1.33,0,0,0,.65.14h.31v.26h-5v-.26h.31a1.34,1.34,0,0,0,.68-.15.72.72,0,0,0,.28-.35,3.1,3.1,0,0,0,.08-.91v-7.25l-3.68,8.92h-.17l-3.74-8.85v6.88a5.07,5.07,0,0,0,0,.89,1,1,0,0,0,.4.59,1.61,1.61,0,0,0,1,.23v.26h-3.28v-.26h.1a1.44,1.44,0,0,0,.59-.11.85.85,0,0,0,.42-.3,1.25,1.25,0,0,0,.22-.52c0-.06,0-.3,0-.74v-6.19a3.19,3.19,0,0,0-.08-.92.68.68,0,0,0-.32-.33,1.33,1.33,0,0,0-.65-.14h-.3v-.27h3.92Z"/><path class="cls-1" d="M219.61,190.14l2.61-6.45h3.9V184h-.31a1.34,1.34,0,0,0-.68.15.75.75,0,0,0-.28.34,3.06,3.06,0,0,0-.08.9v6.45a3.37,3.37,0,0,0,.08.94.77.77,0,0,0,.32.33,1.29,1.29,0,0,0,.64.14h.31v.26h-5v-.26h.32a1.34,1.34,0,0,0,.68-.15.78.78,0,0,0,.28-.35,3.1,3.1,0,0,0,.08-.91v-7.25l-3.68,8.92h-.17l-3.74-8.85v6.88a5.07,5.07,0,0,0,0,.89,1,1,0,0,0,.4.59,1.61,1.61,0,0,0,1,.23v.26H213v-.26h.1a1.44,1.44,0,0,0,.59-.11.89.89,0,0,0,.42-.3,1.4,1.4,0,0,0,.22-.52c0-.06,0-.3,0-.74v-6.19a2.85,2.85,0,0,0-.08-.92.65.65,0,0,0-.31-.33,1.33,1.33,0,0,0-.65-.14H213v-.27h3.92Z"/><path class="cls-1" d="M233.19,183.47l.08,3.26H233a3.32,3.32,0,0,0-1-2,2.48,2.48,0,0,0-1.73-.75,1.62,1.62,0,0,0-1.15.39,1.23,1.23,0,0,0-.42.91,1.14,1.14,0,0,0,.15.58,2.59,2.59,0,0,0,.66.67,13.72,13.72,0,0,0,1.53.84,6.69,6.69,0,0,1,2.27,1.59,2.74,2.74,0,0,1,.59,1.72,2.82,2.82,0,0,1-.94,2.11,3.34,3.34,0,0,1-2.38.88,3.91,3.91,0,0,1-.86-.09,6.14,6.14,0,0,1-1-.35,1.46,1.46,0,0,0-.56-.15.69.69,0,0,0-.39.15.9.9,0,0,0-.33.44h-.26V190h.26a4.28,4.28,0,0,0,1.2,2.38,2.76,2.76,0,0,0,1.91.82,1.77,1.77,0,0,0,1.26-.44,1.34,1.34,0,0,0,.47-1,1.38,1.38,0,0,0-.18-.68,2.16,2.16,0,0,0-.54-.61,7.73,7.73,0,0,0-1.31-.76,11.18,11.18,0,0,1-1.88-1.12,3.53,3.53,0,0,1-.88-1,2.75,2.75,0,0,1,.53-3.25,2.93,2.93,0,0,1,2.13-.82,3.82,3.82,0,0,1,.9.11,4.06,4.06,0,0,1,.81.33,2.05,2.05,0,0,0,.67.23.37.37,0,0,0,.29-.12,1.28,1.28,0,0,0,.2-.55Z"/><path class="cls-1" d="M248.07,183.47v3.45h-.27a4.33,4.33,0,0,0-1.42-2.15,3.3,3.3,0,0,0-2.07-.74,2.65,2.65,0,0,0-1.79.62,3.31,3.31,0,0,0-1,1.72,8.55,8.55,0,0,0-.3,2.26,8.35,8.35,0,0,0,.33,2.47,2.73,2.73,0,0,0,1.05,1.56,3,3,0,0,0,1.72.5,3.51,3.51,0,0,0,.71-.08,4.81,4.81,0,0,0,.75-.22v-2a2.23,2.23,0,0,0-.08-.75.74.74,0,0,0-.32-.31,1.22,1.22,0,0,0-.59-.13h-.25v-.27h4.66v.27a2.08,2.08,0,0,0-.74.14.76.76,0,0,0-.32.38,2.17,2.17,0,0,0-.06.67v2a9.38,9.38,0,0,1-1.92.63,9.93,9.93,0,0,1-2.06.21,6,6,0,0,1-2.27-.37,5.87,5.87,0,0,1-1.59-1,4.62,4.62,0,0,1-1.08-1.39,4.91,4.91,0,0,1-.49-2.23,5.06,5.06,0,0,1,1.52-3.73,5.19,5.19,0,0,1,3.82-1.52,6.29,6.29,0,0,1,1.29.12,6.53,6.53,0,0,1,1,.33,4.14,4.14,0,0,0,.83.27.53.53,0,0,0,.36-.15,1.25,1.25,0,0,0,.31-.56Z"/><path class="cls-1" d="M253.19,189v2.74a2.88,2.88,0,0,0,.1,1,.69.69,0,0,0,.33.32,2.06,2.06,0,0,0,.9.13v.26h-4.91v-.26a2.23,2.23,0,0,0,.9-.13.66.66,0,0,0,.33-.33,2.77,2.77,0,0,0,.1-1v-6.35a2.88,2.88,0,0,0-.1-1,.66.66,0,0,0-.33-.33,2.27,2.27,0,0,0-.9-.12v-.27h4.46a9.15,9.15,0,0,1,2.54.25,2.54,2.54,0,0,1,1.32.9,2.47,2.47,0,0,1,.51,1.55,2.36,2.36,0,0,1-.76,1.79,3.2,3.2,0,0,1-1.37.67l2.31,3.31a4.44,4.44,0,0,0,.64.8,1.22,1.22,0,0,0,.67.25v.26h-3L253.82,189Zm0-4.8v4.28h.4a4.47,4.47,0,0,0,1.47-.18,1.42,1.42,0,0,0,.77-.66,2.45,2.45,0,0,0,.28-1.26,2.33,2.33,0,0,0-.51-1.65,2.22,2.22,0,0,0-1.65-.53Z"/><path class="cls-1" d="M265.4,183.56a4.73,4.73,0,0,1,3.73,1.36,5,5,0,0,1,1.43,3.63,5.28,5.28,0,0,1-1.07,3.27,4.71,4.71,0,0,1-4,1.88,4.81,4.81,0,0,1-4-1.79,5.22,5.22,0,0,1-1.12-3.36,4.93,4.93,0,0,1,1.46-3.63A4.54,4.54,0,0,1,265.4,183.56Zm.09.46a2.16,2.16,0,0,0-2,1.37,7.51,7.51,0,0,0-.55,3.23,6.34,6.34,0,0,0,.86,3.7,2,2,0,0,0,1.68.84,2,2,0,0,0,1.22-.36,3,3,0,0,0,1-1.48,8.39,8.39,0,0,0,.35-2.64,8.85,8.85,0,0,0-.36-2.91,2.79,2.79,0,0,0-.9-1.36A2.14,2.14,0,0,0,265.49,184Z"/><path class="cls-1" d="M271.42,183.69h4.95V184h-.25a1.72,1.72,0,0,0-.77.12.66.66,0,0,0-.29.33,3.52,3.52,0,0,0-.09,1v4.79a5,5,0,0,0,.19,1.74,1.73,1.73,0,0,0,.64.71,2.08,2.08,0,0,0,1.13.28,2.38,2.38,0,0,0,1.33-.36,2.26,2.26,0,0,0,.82-1,6.17,6.17,0,0,0,.27-2.19v-4a2.28,2.28,0,0,0-.14-.93.78.78,0,0,0-.34-.39A1.83,1.83,0,0,0,278,184v-.27h3.31V184h-.19a1.21,1.21,0,0,0-.68.17,1,1,0,0,0-.39.49,2.62,2.62,0,0,0-.09.83v3.72a9.81,9.81,0,0,1-.22,2.49,2.76,2.76,0,0,1-1.09,1.4,3.83,3.83,0,0,1-2.35.64,4.56,4.56,0,0,1-1.93-.33,2.9,2.9,0,0,1-1.31-1.19,4.23,4.23,0,0,1-.38-1.94v-4.79a3.56,3.56,0,0,0-.09-1,.71.71,0,0,0-.32-.32,1.69,1.69,0,0,0-.83-.12Z"/><path class="cls-1" d="M285.45,189v2.72a3.16,3.16,0,0,0,.1,1,.71.71,0,0,0,.34.32,2.06,2.06,0,0,0,.9.13v.26h-4.88v-.26a2.23,2.23,0,0,0,.9-.13.66.66,0,0,0,.33-.33,2.77,2.77,0,0,0,.1-1v-6.35a2.88,2.88,0,0,0-.1-1,.66.66,0,0,0-.33-.33,2.27,2.27,0,0,0-.9-.12v-.27h4.18a4.65,4.65,0,0,1,3,.75,2.38,2.38,0,0,1,.9,1.88,2.42,2.42,0,0,1-.59,1.63,2.87,2.87,0,0,1-1.59.92A10.59,10.59,0,0,1,285.45,189Zm0-4.78v4.22l.36,0a1.7,1.7,0,0,0,1.33-.53,2.37,2.37,0,0,0,.47-1.62,2.31,2.31,0,0,0-.47-1.59,1.79,1.79,0,0,0-1.39-.5Z"/><path class="cls-1" d="M298.52,193.21v.26h-5v-.26h.32a1.33,1.33,0,0,0,.67-.15.67.67,0,0,0,.28-.35,3.1,3.1,0,0,0,.08-.91v-6.43a3.31,3.31,0,0,0-.08-.94.7.7,0,0,0-.31-.33,1.32,1.32,0,0,0-.64-.14h-.32v-.27h5V184h-.31a1.34,1.34,0,0,0-.68.15.69.69,0,0,0-.29.35,3.2,3.2,0,0,0-.07.91v6.43a3,3,0,0,0,.08.94.8.8,0,0,0,.31.33,1.33,1.33,0,0,0,.65.14Z"/><path class="cls-1" d="M302.47,183.69l4.73,6.07v-4.21a2,2,0,0,0-.25-1.19,1.36,1.36,0,0,0-1.14-.4v-.27H309V184a2.23,2.23,0,0,0-.82.21.8.8,0,0,0-.32.41,2.74,2.74,0,0,0-.12,1v8.15h-.24L301,185.55v6.22a1.4,1.4,0,0,0,.38,1.14,1.35,1.35,0,0,0,.87.3h.23v.26h-3.41v-.26a1.59,1.59,0,0,0,1.11-.33,1.64,1.64,0,0,0,.31-1.11v-6.9l-.21-.26a1.76,1.76,0,0,0-.54-.51,1.46,1.46,0,0,0-.67-.14v-.27Z"/><path class="cls-1" d="M309.51,193.47v-.26h.32a1.24,1.24,0,0,0,.64-.14.82.82,0,0,0,.33-.36,3.76,3.76,0,0,0,.06-.91v-6.43a3.47,3.47,0,0,0-.07-.94.72.72,0,0,0-.32-.33,1.29,1.29,0,0,0-.64-.14h-.32v-.27h4.3a6.67,6.67,0,0,1,2.76.48,4.1,4.1,0,0,1,1.95,1.77,5.37,5.37,0,0,1,.66,2.67,5.3,5.3,0,0,1-.33,1.9A4.21,4.21,0,0,1,318,192a4.06,4.06,0,0,1-1.19.91,6.4,6.4,0,0,1-1.65.53,8.65,8.65,0,0,1-1.36.08Zm3.66-9.22v7.63a2.57,2.57,0,0,0,.06.74.43.43,0,0,0,.19.21,1.16,1.16,0,0,0,.55.11,2.1,2.1,0,0,0,1.8-.82,5.65,5.65,0,0,0,.85-3.45,6.58,6.58,0,0,0-.58-3,2.54,2.54,0,0,0-1.18-1.2A4.6,4.6,0,0,0,313.17,184.25Z"/><path class="cls-1" d="M325.38,183.56a4.73,4.73,0,0,1,3.73,1.36,5,5,0,0,1,1.43,3.63,5.22,5.22,0,0,1-1.07,3.27,4.7,4.7,0,0,1-4,1.88,4.82,4.82,0,0,1-4-1.79,5.28,5.28,0,0,1-1.12-3.36,4.93,4.93,0,0,1,1.46-3.63A4.56,4.56,0,0,1,325.38,183.56Zm.09.46a2.14,2.14,0,0,0-2,1.37,7.35,7.35,0,0,0-.56,3.23,6.41,6.41,0,0,0,.86,3.7,2,2,0,0,0,1.68.84,2,2,0,0,0,1.22-.36,2.93,2.93,0,0,0,1-1.48,8.39,8.39,0,0,0,.35-2.64,8.85,8.85,0,0,0-.36-2.91,2.79,2.79,0,0,0-.9-1.36A2.12,2.12,0,0,0,325.47,184Z"/><path class="cls-1" d="M334.67,183.69l4.73,6.07v-4.21a2,2,0,0,0-.25-1.19A1.33,1.33,0,0,0,338,184v-.27h3.17V184a2.16,2.16,0,0,0-.81.21.82.82,0,0,0-.33.41,2.74,2.74,0,0,0-.12,1v8.15h-.24l-6.48-8.15v6.22a1.4,1.4,0,0,0,.37,1.14,1.37,1.37,0,0,0,.87.3h.23v.26h-3.41v-.26a1.19,1.19,0,0,0,1.42-1.44v-6.9l-.21-.26a1.87,1.87,0,0,0-.53-.51,1.5,1.5,0,0,0-.68-.14v-.27Z"/><path class="cls-1" d="M345.47,184.26v4h.19a1.52,1.52,0,0,0,1.33-.59,3.72,3.72,0,0,0,.52-1.72h.27v5.12h-.27a4,4,0,0,0-.36-1.37,1.52,1.52,0,0,0-.63-.72,2.42,2.42,0,0,0-1-.18v2.75a3.74,3.74,0,0,0,.07,1,.6.6,0,0,0,.25.3,1.23,1.23,0,0,0,.59.11H347a3.41,3.41,0,0,0,2.15-.63,3.61,3.61,0,0,0,1.17-1.94h.26l-.43,3.11h-8.3v-.26h.32a1.28,1.28,0,0,0,.67-.15.68.68,0,0,0,.29-.35,3.25,3.25,0,0,0,.07-.91v-6.43a6.16,6.16,0,0,0,0-.82.68.68,0,0,0-.26-.39,1.25,1.25,0,0,0-.74-.2h-.32v-.27h8v2.9h-.27a3.61,3.61,0,0,0-.58-1.53,2.26,2.26,0,0,0-1.05-.68,6.08,6.08,0,0,0-1.49-.12Z"/><path class="cls-1" d="M358,183.47l.07,3.26h-.29a3.31,3.31,0,0,0-1-2A2.52,2.52,0,0,0,355,184a1.61,1.61,0,0,0-1.14.39,1.21,1.21,0,0,0-.43.91,1.14,1.14,0,0,0,.15.58,2.59,2.59,0,0,0,.66.67,13.25,13.25,0,0,0,1.54.84,6.8,6.8,0,0,1,2.27,1.59,2.84,2.84,0,0,1-.36,3.83,3.32,3.32,0,0,1-2.38.88,4,4,0,0,1-.86-.09,6.48,6.48,0,0,1-1-.35,1.46,1.46,0,0,0-.56-.15.69.69,0,0,0-.39.15,1,1,0,0,0-.33.44h-.26V190h.26a4.28,4.28,0,0,0,1.2,2.38,2.76,2.76,0,0,0,1.91.82,1.82,1.82,0,0,0,1.27-.44,1.35,1.35,0,0,0,.29-1.7,2.21,2.21,0,0,0-.55-.61,8,8,0,0,0-1.3-.76,10.78,10.78,0,0,1-1.88-1.12,3.42,3.42,0,0,1-.89-1,2.78,2.78,0,0,1,.54-3.25,2.9,2.9,0,0,1,2.12-.82,4,4,0,0,1,.91.11,4.6,4.6,0,0,1,.81.33,2,2,0,0,0,.67.23.37.37,0,0,0,.29-.12,1.31,1.31,0,0,0,.19-.55Z"/><path class="cls-1" d="M364.56,193.21v.26h-5v-.26h.32a1.3,1.3,0,0,0,.67-.15.67.67,0,0,0,.28-.35,3.1,3.1,0,0,0,.08-.91v-6.43a3.31,3.31,0,0,0-.08-.94.65.65,0,0,0-.31-.33,1.29,1.29,0,0,0-.64-.14h-.32v-.27h5V184h-.32a1.3,1.3,0,0,0-.67.15.7.7,0,0,0-.3.35,3.2,3.2,0,0,0-.07.91v6.43a3,3,0,0,0,.08.94.77.77,0,0,0,.32.33,1.29,1.29,0,0,0,.64.14Z"/><path class="cls-1" d="M370.92,190.69h-3.39l-.41.95a2.17,2.17,0,0,0-.19.79.64.64,0,0,0,.32.6,2.61,2.61,0,0,0,.94.18v.26H365v-.26a1.43,1.43,0,0,0,.85-.44,5.72,5.72,0,0,0,.82-1.48l3.43-7.8h.14l3.46,8a5.06,5.06,0,0,0,.81,1.44,1.14,1.14,0,0,0,.68.26v.26h-4.64v-.26h.19a1.53,1.53,0,0,0,.79-.16.4.4,0,0,0,.15-.33.84.84,0,0,0,0-.27s-.08-.22-.21-.54Zm-.24-.53-1.43-3.37-1.47,3.37Z"/></svg>