<svg id="Layer_1" data-name="Layer 1" xmlns="http://www.w3.org/2000/svg" xmlns:xlink="http://www.w3.org/1999/xlink" viewBox="0 0 328 439"><defs><style>.cls-1,.cls-3{fill:none;}.cls-2,.cls-5,.cls-6{fill:#d66b6b;}.cls-3,.cls-4{stroke:#d66b6b;stroke-miterlimit:10;}.cls-3{stroke-width:4.55px;}.cls-4{fill:#212121;stroke-width:4px;}.cls-5{font-size:24px;}.cls-5,.cls-6{font-family:BebasNeue-Regular, Bebas Neue;}.cls-6{font-size:29.4px;}.cls-7{font-size:19px;}.cls-7,.cls-8{fill:#fff;}.cls-7,.cls-9{font-family:OpenSans-Bold, Open Sans;font-weight:700;}.cls-8{font-size:18px;font-family:OpenSans-Regular, Open Sans;}.cls-9{font-size:13px;fill:#b7b7b7;}.cls-10{clip-path:url(#clip-path);}.cls-11{clip-path:url(#clip-path-2);}</style><clipPath id="clip-path"><path id="SVGID" class="cls-1" d="M934.17,619.12c-9-.11-17.35-1.73-29.49-20s-19.95-22.54-19.95-22.54-3.46,6.07,0,8.67,13.88,9.54,14.75,14.74-6.07,7.81-13,8.67S870,610.45,870,600.91s-29.48-54.64-29.48-54.64l21.68-185.59,186.45,7.81-5.2,198.6-8.67,45.09-32.09-3.47s0-19.08,4.33-22.54,1.74-12.15,2.61-15.62,1.73-11.27.86-15.61-.86-8.67-2.6-8.67-5.2,19.08-10.4,26S976.66,594.84,968,604.38A43.21,43.21,0,0,1,934.17,619.12Z"/></clipPath><clipPath id="clip-path-2"><path id="SVGID-2" data-name="SVGID" class="cls-1" d="M1192.17,619.12c-9-.11-17.35-1.73-29.49-20s-20-22.54-20-22.54-3.46,6.07,0,8.67,13.88,9.54,14.75,14.74-6.07,7.81-13,8.67-16.48,1.74-16.48-7.8-29.48-54.64-29.48-54.64l21.68-185.59,186.45,7.81-5.2,198.6-8.67,45.09-32.09-3.47s0-19.08,4.33-22.54,1.74-12.15,2.61-15.62,1.73-11.27.86-15.61-.86-8.67-2.6-8.67-5.2,19.08-10.4,26-20.82,22.55-29.49,32.09A43.21,43.21,0,0,1,1192.17,619.12Z"/></clipPath><image id="image" width="1662" height="1187" xlink:href="../../../../Desktop/foto%20MTL/newlyexported/lisye.png"/></defs><title>Artboard 9</title><circle class="cls-2" cx="43.75" cy="33.25" r="26"/><line class="cls-3" x1="43.25" y1="58.75" x2="43.75" y2="425.25"/><circle class="cls-4" cx="43.75" cy="126.25" r="20"/><text class="cls-5" transform="translate(38.95 134.55)">1</text><circle class="cls-4" cx="43.75" cy="219.25" r="20"/><text class="cls-5" transform="translate(38.95 227.55)">2</text><circle class="cls-4" cx="43.75" cy="312.25" r="20"/><text class="cls-5" transform="translate(38.95 320.55)">3</text><circle class="cls-4" cx="43.75" cy="405.25" r="24.5"/><text class="cls-6" transform="translate(38.12 415.42)">C</text><text class="cls-7" transform="translate(86.25 38.19)">You are here</text><text class="cls-8" transform="translate(86.25 122.8)">What is MMSGI?</text><text class="cls-9" transform="translate(86.25 140)">QUIZ</text><text class="cls-9" transform="translate(86.25 232.5)">PUZZLE</text><text class="cls-8" transform="translate(86.25 216.3)">Who are we?</text><text class="cls-9" transform="translate(86.25 325.5)">FORM</text><text class="cls-8" transform="translate(86.25 309.3)">Feedback</text><text class="cls-8" transform="translate(86.25 408.43)">Retrieve the Code</text><g class="cls-10"><use transform="translate(-136 130) scale(0.87)" xlink:href="#image"/></g><g class="cls-11"><use transform="translate(122 130) scale(0.87)" xlink:href="#image"/></g></svg>