<svg id="Layer_1" data-name="Layer 1" xmlns="http://www.w3.org/2000/svg" viewBox="0 0 150 150"><defs><style>.cls-1{fill:#d66b6b;}</style></defs><title>Artboard 10</title><path class="cls-1" d="M19,82.86c-10.53,8.18-11.63,22.71-5.7,34C20,129.82,35,133.15,48.52,133.31c2.59,0,2.59-4,0-4-11.33-.13-24.7-2.46-31-13-6-10-5.35-23.15,4.26-30.62,2-1.59-.83-4.42-2.85-2.84Z"/><path class="cls-1" d="M51.19,123.16l13.12,9.43v-3.47l-16.9,10.06c-2.22,1.33-.2,4.81,2,3.48l16.9-10.07a2,2,0,0,0,0-3.47l-13.11-9.44c-2.11-1.51-4.12,2-2,3.48Z"/><path class="cls-1" d="M38.74,31.48c-2-2.93-4.15-7.13-8.19-7.41-4.75-.32-7.63,5.23-8.36,9.22-1,5.74,4.72,7.44,9,9.32A35.84,35.84,0,0,1,36.13,45c3,1.9,2.92,4.46-1.4,4.46-5,0-9.75-2.26-14.21-4.33-2.33-1.08-4.38,2.39-2,3.48C24.23,51.3,30.28,54,36.77,53.4c3.46-.34,8.72-2,6.78-6.45-2.06-4.78-8.12-6.78-12.42-8.73-1.07-.48-3.38-1.11-4.14-2.11-1.37-1.76-.5-4.1.58-5.71,3.05-4.55,5.9.48,7.69,3.12,1.45,2.13,4.94.11,3.48-2Z"/><path class="cls-1" d="M46.27,29.45A114.75,114.75,0,0,0,50,43.59c.74,2.23,1.41,7,3.86,8.17,5.36,2.5,8.55-13.69,9.44-16.55H59.38a53.78,53.78,0,0,0,5.49,11.63c1.17,1.83,2.82,5.08,5.53,4,2.38-1,2.34-4.18,2.55-6.32a119.67,119.67,0,0,0,.34-16.83c-.13-2.57-4.15-2.59-4,0,.09,1.79.92,19.11-.71,19.42l2,.52c-3.59-3.21-5.72-9-7.24-13.46a2,2,0,0,0-3.88,0C58.63,36.57,57.86,39,57,41.39c-.4,1.12-1.76,6.38-2.71,6.69l2,.52c-1.93-1.51-3-7.78-3.63-10-1-3.39-1.79-6.81-2.47-10.27-.51-2.54-4.39-1.46-3.88,1.07Z"/><path class="cls-1" d="M76.27,26.14c-1.16,1.79-.66,3.48-.26,5.45.74,3.69,1.59,7.36,2.38,11,.4,1.86,2.07,8.72,5.1,4.46C85,45,81.51,43,80,45.05l-.13.19,1.73-1-.26,0,1.74,1c-1.24-2.48-1.35-6.1-1.94-8.81-.34-1.59-2.36-6.77-1.41-8.24,1.41-2.17-2.07-4.19-3.48-2Z"/><path class="cls-1" d="M87.54,27.69a207.92,207.92,0,0,0,5.67,20.24c.82,2.44,4.71,1.39,3.88-1.07a207.92,207.92,0,0,1-5.67-20.24c-.57-2.53-4.45-1.46-3.88,1.07Z"/><path class="cls-1" d="M119.63,20.62c-4.35.89-11.29.45-11.62,6.06-.44,7.32,1.72,15.73,3.5,22.75a2,2,0,0,0,2.38,1.35A108.47,108.47,0,0,0,129,46.51c2.32-.84,1.32-4.58-1-3.73a110.43,110.43,0,0,1-15.13,4.28l2.38,1.35a109.52,109.52,0,0,1-3-17c-.21-2.22-1-4.29.75-5.43s5.74-1.18,7.7-1.59c2.43-.5,1.4-4.22-1-3.72Z"/><path class="cls-1" d="M111.63,39c4.1-.83,8.25-1.15,12.32-2.16,2.42-.59,1.39-4.32-1-3.72-4.08,1-8.23,1.33-12.33,2.16-2.44.49-1.41,4.21,1,3.72Z"/><path class="cls-1" d="M46.42,86.91q-5.06-12.34-9-25.07l-2.95,2.27a59.6,59.6,0,0,1,9.82,8.82c1.39,1.56,2.63,4,5,4,2,0,2.57-1.35,3.39-3,1.7-3.37,2.48-6.69,5.44-9.3l-3.36-.89L60.82,86.9c.66,2.5,4.54,1.44,3.88-1.07L58.57,62.74a2,2,0,0,0-3.36-.89,16.5,16.5,0,0,0-3.75,4.8,21.73,21.73,0,0,0-1.4,3.11l-.56,1.35c.19,1.77,0,2.09-.72.94-.73-.28-2.35-2.73-2.82-3.24-1-1-2-2-3.06-3a70.8,70.8,0,0,0-6.42-5.17c-1.44-1-3.45.69-3,2.28q4,12.72,9,25.07c1,2.36,4.86,1.32,3.88-1.07Z"/><path class="cls-1" d="M84.92,59.57c-4.77.32-10.66-.21-15.26,1-1.28.34-2.11.57-2.57,2-.68,2.14,1.26,6.48,1.68,8.6a114,114,0,0,1,1.87,15.52,2.05,2.05,0,0,0,2.55,1.94,87.59,87.59,0,0,0,16.31-5c2.36-1,1.32-4.87-1.07-3.88a86.84,86.84,0,0,1-16.31,5l2.55,1.94a123.59,123.59,0,0,0-2.2-17.47c-.14-.67-1.22-4-1-4.39.54-.83,1.91-.49,2.94-.56l10.5-.72c2.57-.17,2.59-4.2,0-4Z"/><path class="cls-1" d="M71.44,76.72,85.68,72.2c2.46-.79,1.41-4.67-1.07-3.88L70.37,72.84c-2.46.78-1.41,4.67,1.07,3.88Z"/><path class="cls-1" d="M96.09,58.54a111.27,111.27,0,0,1,5.26,18.16c.51,2.54,4.39,1.47,3.88-1.07A111.27,111.27,0,0,0,100,57.47c-.92-2.39-4.81-1.36-3.88,1.07Z"/><path class="cls-1" d="M106.35,87.12c2.59,0,2.59-4,0-4s-2.59,4,0,4Z"/><path class="cls-1" d="M89.59,29.87a11.18,11.18,0,0,1,9.54-1.36c2.45.88-.66,2.9-1.79,3.62a27.53,27.53,0,0,1-5.58,2.61c-2.43.84-1.39,4.73,1.07,3.88C96.66,37.28,107,33,103.89,27.09c-1.38-2.6-5.12-2.84-7.71-2.94a13.06,13.06,0,0,0-8.62,2.25c-2,1.53,0,5,2,3.47Z"/></svg>