<svg id="Layer_1" data-name="Layer 1" xmlns="http://www.w3.org/2000/svg" viewBox="0 0 150 150"><defs><style>.cls-1{fill:#d66b6b;}</style></defs><title>Artboard 10</title><path class="cls-1" d="M4.31,111.37l.36,18c0,2.24-1.13,8,1.62,9.39s7.18-2.3,9.35-3.41c5.6-2.86,11-6,16.31-9.42,2.18-1.39.16-4.88-2-3.47-3.7,2.37-7.46,4.65-11.31,6.77-3.63,2-7.8,4.94-11.84,5.85l2,.52c-.51-.49,0-4.27,0-5.28l-.13-6.65-.24-12.35c-.05-2.59-4.08-2.59-4,0Z"/><path class="cls-1" d="M18.14,120.59,37.25,99.68c5.5-6,10.84-12.2,18.49-15.49,2.37-1,.32-4.49-2-3.47-7.33,3.15-12.69,8.88-18,14.67Q25.5,106.57,15.3,117.75c-1.75,1.9,1.09,4.76,2.84,2.84Z"/><path class="cls-1" d="M46.19,37.51l33.29-9.26c2.5-.69,1.44-4.58-1.06-3.88l-33.3,9.26c-2.49.69-1.43,4.58,1.07,3.88Z"/><path class="cls-1" d="M62,31.3l3.89,25.56c.39,2.56,4.27,1.47,3.88-1.07L65.87,30.23c-.39-2.55-4.27-1.47-3.88,1.07Z"/><path class="cls-1" d="M83.34,55.19c-.1-3.23-.22-6.47-.11-9.71.1-2.85.12-13.18,5.29-8.31,2.16,2,3.16,6.29,4.24,9a48.38,48.38,0,0,0,3.67,7.56c1.35,2.2,4.84.18,3.47-2C96.78,46.61,93.42,29.25,84.78,31c-3.53.72-4.46,4.41-5,7.5C79,44,79.14,49.64,79.32,55.19c.09,2.58,4.11,2.59,4,0Z"/><path class="cls-1" d="M81.62,49.52Q92,46.35,102.57,43.89c2.52-.59,1.46-4.47-1.07-3.88q-10.57,2.46-21,5.63c-2.47.76-1.42,4.64,1.07,3.88Z"/><path class="cls-1" d="M114.71,47.18c-1.57-5-3-10.12-4.08-15.28q-.88-4.09-1.57-8.23c-.2-1.22-.39-2.45-.57-3.68-.37-2.62-.77-2.64,1.32-3.79,4.22-2.34,13.7-2.49,13.59,4.11-.09,5.87-11.07,8.71-15.51,9.61-2.54.52-1.47,4.39,1.07,3.88,5.57-1.13,16.73-4.45,18.43-10.86,1.63-6.17-3.22-11.83-9.13-12.14a25.16,25.16,0,0,0-11,2.08c-3,1.33-3.28,2.54-2.94,5.8a154.23,154.23,0,0,0,6.54,29.57c.77,2.47,4.66,1.42,3.88-1.07Z"/><path class="cls-1" d="M69.92,69.71q2.92,14.69,4.64,29.55l4-.53-.1-.47c-.52-2.53-4.39-1.46-3.88,1.07l.1.47c.44,2.18,4.21,1.73,4-.54Q76.82,83.85,73.8,68.64c-.51-2.54-4.39-1.47-3.88,1.07Z"/><path class="cls-1" d="M72.3,71.93C79.5,73.81,84,80.54,90.39,84a2,2,0,0,0,3-1.2,153.12,153.12,0,0,1,6.23-17.92l-3.67.48c4.8,8.06,7.63,16.88,10.38,25.8.76,2.47,4.64,1.42,3.88-1.07-2.84-9.24-5.82-18.42-10.79-26.76-1-1.63-3-1.05-3.68.48a153.12,153.12,0,0,0-6.23,17.92l3-1.2c-6.78-3.68-11.33-10.47-19-12.49-2.5-.65-3.57,3.23-1.07,3.88Z"/><path class="cls-1" d="M126.24,55.9c-4.35-.06-15.79-1.08-15.92,5.28,0,2.13,1.18,4.66,1.71,6.71.62,2.43,1.2,4.88,1.73,7.33,1.15,5.36,2,10.76,2.71,16.19.18,1.44,1.59,2.61,3,1.74a125.93,125.93,0,0,0,11.62-7.93c2-1.55,0-5-2-3.47a127.94,127.94,0,0,1-11.62,7.93l3,1.73a197.94,197.94,0,0,0-3.69-20.93c-.43-1.84-.89-3.66-1.38-5.48-.18-.68-1.35-3.74-1.3-3.86.58-1.58,10.69-1.23,12.11-1.21,2.59,0,2.59-4,0-4Z"/><path class="cls-1" d="M117.18,77.2c3.54-1.11,7-2.28,10.52-3.59,2.4-.9,1.36-4.79-1.07-3.88-3.48,1.31-7,2.48-10.52,3.59-2.46.77-1.41,4.66,1.07,3.88Z"/><path class="cls-1" d="M133.78,47.71l7.84,30.57c.64,2.5,4.52,1.44,3.87-1.07l-7.83-30.57c-.65-2.51-4.53-1.45-3.88,1.07Z"/><path class="cls-1" d="M144.5,86.19c2.59,0,2.59-4,0-4s-2.59,4,0,4Z"/></svg>